<svg xmlns:dc="http://purl.org/dc/elements/1.1/" xmlns:cc="http://creativecommons.org/ns#" xmlns:rdf="http://www.w3.org/1999/02/22-rdf-syntax-ns#" xmlns:svg="http://www.w3.org/2000/svg" xmlns="http://www.w3.org/2000/svg" xmlns:sodipodi="http://sodipodi.sourceforge.net/DTD/sodipodi-0.dtd" xmlns:inkscape="http://www.inkscape.org/namespaces/inkscape" width="100" height="100" viewBox="0 0 80 80" version="1.1" id="svg2" inkscape:version="0.48.2 r9819" sodipodi:docname="blank.svg">
  <metadata id="metadata10">
    <rdf:RDF>
      <cc:Work rdf:about="">
        <dc:format>image/svg+xml</dc:format>
        <dc:type rdf:resource="http://purl.org/dc/dcmitype/StillImage"/>
        <dc:title/>
      </cc:Work>
    </rdf:RDF>
  </metadata>
  <defs id="defs8"/>
  <sodipodi:namedview pagecolor="#ffffff" bordercolor="#666666" borderopacity="1" objecttolerance="10" gridtolerance="10" guidetolerance="10" inkscape:pageopacity="0" inkscape:pageshadow="2" inkscape:window-width="1366" inkscape:window-height="706" id="namedview6" showgrid="true" inkscape:zoom="2.7112207" inkscape:cx="35.615336" inkscape:cy="50" inkscape:window-x="-8" inkscape:window-y="-8" inkscape:window-maximized="1" inkscape:current-layer="svg2" inkscape:snap-grids="false">
    <inkscape:grid type="xygrid" id="grid3807"/>
  </sodipodi:namedview>
  <path style="fill:#000000;stroke:none;display:inline" d="m 38.042293,22.235287 c -0.934135,0.07557 -1.841258,0.525104 -2.425,1.1 -0.422535,0.64556 -0.368426,6.085228 -0.075,8.85 -0.02035,1.204546 0.664634,1.525662 1.125,2.2 0.343654,0.505756 0.820181,0.855412 1.3,1.225 -0.691052,2.03548 -0.919016,1.113944 -1.05,3.8 -0.188036,-0.233424 -0.442511,-0.0028 -0.65,0.075 -0.427947,0.272329 -0.889635,-0.02781 -1.35,0.05 -0.0065,-0.09726 -0.025,-0.202739 -0.025,-0.3 -0.239908,-0.07133 -0.478608,-0.149064 -0.725,-0.175 -0.04538,0.116712 -0.07961,0.226804 -0.125,0.35 -0.239908,-0.0389 -0.517579,-0.101732 -0.55,-0.4 -0.343654,0.12968 -0.648926,0.377809 -1.025,0.3 -0.27233,-0.03242 -0.552671,-0.05095 -0.825,-0.025 l 0,-0.375 c -0.239908,-0.06484 -0.46009,-0.153675 -0.7,-0.225 -0.04538,0.129681 -0.104612,0.288836 -0.15,0.425 -0.252878,-0.03242 -0.647259,-0.06002 -0.55,-0.475 -0.265846,0.149133 -0.533218,0.32774 -0.825,0.425 -0.343654,0.04538 -0.674862,-0.05 -1.025,-0.05 -0.0065,-0.09726 -0.01851,-0.202739 -0.025,-0.3 -0.246394,-0.03242 -0.478606,-0.164844 -0.725,-0.1 -0.06484,0.08429 -0.12961,0.17774 -0.175,0.275 -0.252878,-0.01945 -0.525,-0.04432 -0.525,-0.375 -0.265844,0.123196 -0.521187,0.25274 -0.8,0.35 -0.356623,-0.04538 -0.718378,-0.122264 -1.075,-0.025 0.0065,-0.142648 0.03703,-0.282351 0.05,-0.425 -0.25936,-0.0389 -0.51564,-0.07961 -0.775,-0.125 -0.02594,0.142649 -0.06758,0.257352 -0.1,0.4 -0.252878,-0.0389 -0.588904,-0.03041 -0.55,-0.4 -0.265846,0.136165 -0.514703,0.265708 -0.8,0.35 -0.350138,0.02594 -0.699863,-0.03797 -1.05,-0.025 l 0,-0.275 c -0.239908,-0.06484 -0.478606,-0.144452 -0.725,-0.125 -0.05187,0.103745 -0.12313,0.221256 -0.175,0.325 -0.252878,0.0065 -0.427739,-0.154542 -0.525,-0.375 -0.265846,0.116712 -0.546187,0.234224 -0.825,0.325 -0.356623,-0.02594 -0.724863,-0.08522 -1.075,0.025 0.02594,-0.12968 0.06758,-0.27032 0.1,-0.4 -0.259362,-0.05187 -0.51564,-0.129612 -0.775,-0.175 -0.0389,0.123196 -0.07961,0.258288 -0.125,0.375 -0.09726,0.0065 -0.321256,0.025 -0.425,0.025 -0.03242,-0.09078 -0.09258,-0.284224 -0.125,-0.375 -0.27233,0.142649 -0.546187,0.308289 -0.825,0.425 -0.350139,-0.02593 -0.699863,-0.115779 -1.05,-0.025 0.09726,-0.505754 -0.439703,-0.380547 -0.725,-0.4 -0.09078,0.110229 -0.156415,0.332421 -0.325,0.3 -0.181552,-0.02594 -0.277739,-0.22032 -0.375,-0.35 -0.155618,0.06484 -0.319383,0.13516 -0.475,0.2 -0.421463,0.220458 -0.921116,0.08609 -1.375,0.125 0.0065,-0.123195 0.01203,-0.251804 0.025,-0.375 -0.252878,-0.05835 -0.515639,-0.04812 -0.775,-0.1 -0.01945,0.12968 -0.05555,0.238836 -0.075,0.375 -0.265846,-0.03242 -0.613904,0.06497 -0.575,-0.35 -0.175068,0.09726 -0.368447,0.159224 -0.55,0.25 -0.3955267,0.233428 -0.8655697,0.104612 -1.2999997,0.15 -0.0065,-0.103744 0,-0.227739 0,-0.325 -0.259361,-0.04538 -0.515639,-0.0361 -0.775,-0.075 0.06484,0.40201 -0.266574,0.307421 -0.5,0.275 -0.05187,-0.110227 -0.07313,-0.189772 -0.125,-0.3 -0.395525,0.09726 -0.71557,0.498196 -1.15,0.375 -0.259361,-0.05187 -0.540639,-0.02038 -0.8,0.025 -0.0065,-0.12968 -0.0065,-0.24532 0,-0.375 -0.246392,-0.0389 -0.497123,-0.01851 -0.75,-0.025 -0.02593,0.110228 -0.07407,0.296257 -0.1,0.4 -0.155617,-0.01945 -0.294383,-0.05 -0.45,-0.05 -0.03242,-0.103743 -0.06758,-0.196255 -0.1,-0.3 -0.486301,0.317718 -0.834953,0.875868 -1.425,1.025 -0.175069,0.07781 -0.22774,0.294382 -0.325,0.45 -0.1621,-0.02594 -0.331415,-0.07406 -0.5,-0.1 -0.136164,0.207489 -0.251803,0.429544 -0.375001,0.65 0.09726,0.06484 0.227741,0.13516 0.325001,0.2 -0.09078,0.110228 -0.197191,0.201804 -0.275001,0.325 -0.123197,-0.0065 -0.251803,0 -0.375,0 0.181554,0.544658 0.423129,1.091437 0.475001,1.675 0,0.233424 0.190708,0.373996 0.275,0.575 -0.05835,0.149133 -0.164771,0.239772 -0.275,0.35 0.155617,0.220457 0.275868,0.436028 0.425,0.65 0.129681,-0.0778 0.27032,-0.147192 0.4,-0.225 0.09078,0.136164 0.171256,0.251804 0.275,0.375 -0.05187,0.09726 -0.09813,0.177738 -0.15,0.275 1.030961,0.05835 2.063492,0.186964 3.075,0.375 0.252878,0.05835 0.634293,0.03503 0.55,0.45 0.36959,-0.136164 0.741507,-0.385228 1.15,-0.275 0.233426,0.02594 0.466575,0.05649 0.7,0.05 -0.02593,0.505753 0.487831,0.447192 0.825,0.525 0.01297,-0.136164 0.03703,-0.263835 0.05,-0.4 0.272329,-0.0065 0.433288,0.148058 0.55,0.375 0.402009,-0.142648 0.8090857,-0.303746 1.2499997,-0.2 0.654885,-0.01945 1.258081,0.13516 1.9,0.2 0.0065,0.12968 0.01203,0.251804 0.025,0.375 0.265845,-0.12968 0.539702,-0.265708 0.825,-0.35 0.36959,0.0065 0.736894,0.06945 1.1,0.05 0.02594,0.110228 0.0027,0.272192 0.1,0.35 0.220457,0.110228 0.460092,0.129612 0.7,0.175 0.02594,-0.136164 0.07406,-0.288836 0.1,-0.425 0.246393,0.01297 0.453676,0.153608 0.525,0.4 0.414978,-0.123196 0.796118,-0.411164 1.25,-0.275 0.62895,-0.0065 1.246048,0.115708 1.875,0.2 0.01945,0.08429 0.07406,0.240708 0.1,0.325 0.265845,-0.136164 0.521186,-0.25274 0.8,-0.35 0.350137,0.01297 0.724862,0.09078 1.075,0 0.0065,0.123196 0.01851,0.22032 0.025,0.35 0.252877,0.07132 0.497124,0.141644 0.75,0.2 0.03242,-0.149132 0.04906,-0.275868 0.075,-0.425 0.25936,0.0065 0.450866,0.161964 0.6,0.35 0.395525,-0.155616 0.796118,-0.386164 1.25,-0.25 0.615982,-0.01297 1.215501,0.0722 1.825,0.15 0.03242,0.08429 0.09257,0.265708 0.125,0.35 0.233425,-0.103744 0.447122,-0.266644 0.7,-0.325 0.389044,-0.03242 0.817442,0.01022 1.2,-0.1 -0.01297,0.123196 -0.01851,0.251804 -0.025,0.375 0.226941,0.05187 0.435092,0.162032 0.675,0.175 0.201005,-0.01297 0.102742,-0.347192 0.2,-0.425 0.272329,0 0.489772,0.160089 0.6,0.4 0.317717,-0.155616 0.635958,-0.447262 1.025,-0.35 0.395525,0.05187 0.785957,-0.05468 1.175,0.075 0.291781,0.0843 0.583218,0.075 0.875,0.075 0.05187,0.09726 0.111097,0.221256 0.15,0.325 0.213974,-0.110228 0.423061,-0.240708 0.65,-0.325 0.402009,-0.0389 0.829474,-0.0018 1.225,-0.125 -0.01297,0.12968 -0.01851,0.27032 -0.025,0.4 0.324201,0.04538 0.958356,0.360436 0.9,-0.275 0.272329,-0.03242 0.434226,0.148058 0.525,0.375 0.194521,-0.09078 0.386964,-0.20274 0.575,-0.3 0.272329,-0.149132 0.583217,-0.07039 0.875,-0.025 0.155617,0.745664 0.201736,1.51824 0.5,2.225 0.525205,0.70676 1.181141,1.44064 2.05,1.7 0.272329,0.09078 0.546186,-0.01485 0.825,0.05 0.512005,1.279472 2.121477,1.638028 3.275,1.125 0.337169,-0.110228 0.610957,-0.472262 1,-0.375 4.597502,-0.0463 6.620292,-0.0032 10.6,0.15 0.382556,0.05187 0.651733,-0.186964 0.95,-0.375 1.251417,0.0065 2.517098,-0.143515 3.775,-0.15 0.804018,0.02594 1.489496,-0.532422 2.3,-0.5 4.065485,-0.25936 8.134513,-0.391576 12.2,-0.625 0.609497,-0.05187 1.164634,-0.385959 1.625,-0.775 0.687306,-0.635436 1.006485,-1.579268 1,-2.5 0.01297,-1.309772 0.193653,-2.641163 -0.15,-3.925 -0.181552,-0.55114 -0.533151,-1.068378 -1,-1.425 -0.829956,-0.622468 -1.818174,-0.96831 -2.7,-1.5 0.103745,-0.285298 0.178676,-0.583218 0.25,-0.875 0.11023,-0.427947 -0.306347,-0.683288 -0.65,-0.8 -4.08354,-1.300408 -6.26431,-1.928471 -10.55,-3.025 -0.110228,-0.421463 -0.17032,-0.83502 -0.3,-1.25 -0.168587,-0.252876 -0.50361,-0.357351 -0.75,-0.5 -0.97909,-0.460364 -1.926463,-0.891507 -2.925,-1.3 0.05835,-0.06484 0.09165,-0.153676 0.15,-0.225 -0.881828,-0.726211 -2.032946,-0.931278 -3.025,-1.45 -0.505756,-0.272329 -1.068311,-0.417511 -1.6,-0.625 -1.400804,-0.546276 -1.898731,0.865968 -2.8,1.4 -0.778086,-0.894796 -1.465432,-1.861688 -2.25,-2.75 -0.609499,-0.622467 -1.200662,-1.273856 -1.875,-1.825 -0.596531,-0.473332 -1.392306,-0.561096 -2.125,-0.6 -0.356622,0.0389 -0.744316,-0.1121 -1.075,0.05 -0.51224,0.175069 -0.976738,0.49612 -1.275,0.95 -1.056898,1.387584 -1.356347,3.158604 -1.7,4.825 -0.291783,-0.142648 -0.78797,-0.160021 -0.775,-0.575 -0.129682,-2.489868 -0.07032,-5.010132 -0.2,-7.5 -0.0389,-0.291782 -0.06197,-0.610089 -0.25,-0.85 -0.323482,-0.150288 -0.695039,-0.210236 -1.05,-0.225 -0.13311,-0.0055 -0.266554,-0.0108 -0.4,0 z m 0.225,3.25 0.075,1.9 -1.625,0.375 -0.05,-1.975 1.6,-0.3 z m 7.025,2.025 c 1.150897,0.08506 2.396853,2.37159 3.375,4.1 -1.884791,0.17168 -3.879666,0.536556 -5.575,0.825 0.220457,-1.420001 0.47847,-2.858742 1.075,-4.175 0.345981,-0.567914 0.741369,-0.778355 1.125,-0.75 z m -7,0.85 -0.025,1.375 -1.55,0.5 -0.05,-1.475 1.625,-0.4 z m 14.25,5.525 c 2.164722,0.611089 4.281833,1.558497 6.125,2.725 l -0.55,1.45 -2.8,-0.95 -0.875,1.975 0.2,0.525 -1.625,-0.725 0.575,-0.15 0.9,-1.95 -2.55,-1.35 0.6,-1.55 z m 15.25,6.65 c 1.037444,0.544658 2.185682,0.822053 3.275,1.25 0.940182,0.343656 1.909816,0.644316 2.85,0.975 0.596532,0.207489 1.071186,0.692373 1.35,1.25 0.30475,0.953152 0.238033,1.965364 0.05,2.925 -0.08429,0.62895 -0.734954,1.021325 -1.325,0.95 -2.217536,-0.12968 -4.438946,-0.407351 -6.65,-0.55 -1.759727,-0.187384 -4.378999,-0.681724 -4.2,-1.9 -0.05187,-0.90128 0.05,-1.830204 0.05,-2.725 -0.02594,-0.525207 0.283217,-0.941507 0.575,-1.35 0.907764,0.103742 1.728466,0.632145 2.325,1.3 0.265844,0.25936 0.363698,0.851872 0.85,0.8 0.557626,-0.881828 0.700866,-1.913492 0.85,-2.925 z m -58.8749997,0.2 c 0.41866,0 0.75,0.35634 0.75,0.775 0,0.41866 -0.33134,0.75 -0.75,0.75 -0.41866,0 -0.775,-0.33134 -0.775,-0.75 0,-0.41866 0.35634,-0.775 0.775,-0.775 z m 34.8499997,0.175 2.125,0 c -0.08716,0.235929 -0.182119,0.474684 -0.25,0.725 l -2.1,0 c 0.06678,-0.25038 0.138962,-0.488852 0.225,-0.725 z m 11.4,0.475 1.525,0 -0.225,0.55 -1.525,0 0.225,-0.55 z m 1.85,0 1.325,0 -0.2,0.55 -1.275,0 0.1,-0.25 c 0.02054,-0.05367 0.04881,-0.142548 0.05,-0.2 l 0,-0.1 z m -13.525,0.425 2.1,0 c -0.05955,0.238785 -0.08399,0.475416 -0.125,0.725 l -2.075,0 c -0.02119,0 -0.03238,-0.01798 -0.05,-0.025 0.03931,-0.239239 0.09363,-0.470655 0.15,-0.7 z m 11.4,0.275 1.525,0 -0.2,0.55 -1.525,0 0.2,-0.55 z m 1.925,0 1.275,0 -0.225,0.55 -1.275,0 0.225,-0.55 z m -13.5,0.625 2.125,0 c -0.03294,0.230425 -0.05869,0.487122 -0.075,0.725 l -2.1,0 c -0.01271,0 -0.0135,-0.02239 -0.025,-0.025 0.01575,-0.229748 0.04372,-0.477186 0.075,-0.7 z m 11.3,0.1 1.525,0 -0.225,0.55 -1.525,0 0.225,-0.55 z m 1.925,0 1.25,0 -0.2,0.55 -1.275,0 0.225,-0.55 z m -2.225,0.775 1.525,0 -0.225,0.575 -1.525,0 0.225,-0.575 z m 1.925,0 1.25,0 -0.2,0.575 -1.275,0 0.225,-0.575 z m -13,0.025 2.125,0 c -0.0079,0.160129 -0.025,0.337124 -0.025,0.5 0,0.07317 -0.0016,0.127362 0,0.2 l -2.125,0 c -0.0019,-0.08064 0,-0.143696 0,-0.225 0,-0.154746 0.01792,-0.322726 0.025,-0.475 z m 10.75,0.8 1.525,0 -0.2,0.55 -1.525,0 0.2,-0.55 z m 1.925,0 1.275,0 -0.225,0.55 -1.25,0 0.2,-0.55 z m -12.675,0.1 2.125,0 c 0.0099,0.237292 0.02361,0.469545 0.05,0.7 l -2.125,0 c -0.02697,-0.230388 -0.03954,-0.462724 -0.05,-0.7 z m 17.225,0.425 c 0.203065,0 0.392433,0.03749 0.575,0.1 l -1.85,3.15 c -0.348039,-0.339019 -0.575,-0.843823 -0.575,-1.375 0,-1.036692 0.830441,-1.875 1.85,-1.875 z m -6.775,0.275 1.525,0 -0.225,0.575 -1.525,0 0.225,-0.575 z m 1.925,0 1.275,0 -0.225,0.575 -1.275,0 0.225,-0.575 z m -12.3,0.2 2.1,0 c 0.03219,0.238484 0.07596,0.470581 0.125,0.7 l -2.125,0 c -0.04944,-0.228416 -0.06728,-0.462527 -0.1,-0.7 z m 18.45,0.05 c 0.347442,0.34516 0.55,0.81934 0.55,1.35 0,1.036692 -0.830444,1.875 -1.85,1.875 -0.213114,0 -0.409736,-0.05811 -0.6,-0.125 l 1.9,-3.1 z m -8.375,0.525 1.525,0 -0.225,0.575 -1.525,0 0.225,-0.575 z m 1.925,0 1.275,0 -0.225,0.575 -1.275,0 0.225,-0.575 z m -11.85,0.325 2.125,0 c 0.05932,0.250558 0.121605,0.487637 0.2,0.725 l -2.1,0 c -0.08056,-0.240276 -0.164042,-0.47104 -0.225,-0.725 z m 9.6,0.525 1.525,0 -0.2,0.55 -1.525,0 0.2,-0.55 z m 1.925,0 1.275,0 -0.225,0.55 -1.25,0 0.2,-0.55 z m -2.25,0.825 1.55,0 -0.225,0.575 -1.525,0 0.2,-0.575 z m 1.925,0 1.275,0 -0.225,0.575 -1.25,0 0.2,-0.575 z" id="path3004" inkscape:connector-curvature="0"/>
</svg>