<?xml version="1.0" encoding="utf-8"?>
<!-- Generator: Adobe Illustrator 12.0.0, SVG Export Plug-In . SVG Version: 6.00 Build 51448)  -->
<!DOCTYPE svg PUBLIC "-//W3C//DTD SVG 1.1//EN" "http://www.w3.org/Graphics/SVG/1.1/DTD/svg11.dtd" [
	<!ENTITY ns_svg "http://www.w3.org/2000/svg">
	<!ENTITY ns_xlink "http://www.w3.org/1999/xlink">
]>
<svg  version="1.1"
	 id="svg2" xmlns:dc="http://purl.org/dc/elements/1.1/" xmlns:cc="http://web.resource.org/cc/" xmlns:rdf="http://www.w3.org/1999/02/22-rdf-syntax-ns#" xmlns:ns="http://creativecommons.org/ns#" inkscape:output_extension="org.inkscape.output.svg.inkscape" sodipodi:docname="Logo_John_Deere.svg" inkscape:version="0.45.1" sodipodi:version="0.32" sodipodi:docbase="/home/tbn/Desktop" xmlns:svg="http://www.w3.org/2000/svg" xmlns:sodipodi="http://sodipodi.sourceforge.net/DTD/sodipodi-0.dtd" xmlns:inkscape="http://www.inkscape.org/namespaces/inkscape"
	 xmlns="&ns_svg;" xmlns:xlink="&ns_xlink;" width="556" height="128" viewBox="27.5 331.5 556 128"
	 overflow="visible" enable-background="new 27.5 331.5 556 128" xml:space="preserve">
<sodipodi:namedview  showgrid="false" pagecolor="#ffffff" inkscape:cx="379.86004" inkscape:window-x="0" inkscape:pageshadow="2" inkscape:window-y="27" inkscape:current-layer="layer1" gridtolerance="10.0" inkscape:zoom="0.55697915" bordercolor="#666666" borderopacity="1.0" inkscape:window-width="992" inkscape:cy="308.53324" inkscape:pageopacity="0.0" objecttolerance="10.0" guidetolerance="10.0" inkscape:window-height="967" id="base">
	</sodipodi:namedview>
<defs>
	
	
		<inkscape:perspective  sodipodi:type="inkscape:persp3d" inkscape:vp_y="0 : 1000 : 0" inkscape:vp_x="0 : 333.50549 : 1" inkscape:persp3d-origin="488.34863 : 222.337 : 1" inkscape:vp_z="976.69727 : 333.50549 : 1" id="perspective172">
		</inkscape:perspective>
	
		<inkscape:perspective  sodipodi:type="inkscape:persp3d" inkscape:vp_y="0 : 1000 : 0" inkscape:vp_x="0 : 0.5 : 1" inkscape:persp3d-origin="0.5 : 0.33333333 : 1" inkscape:vp_z="1 : 0.5 : 1" id="perspective2630">
		</inkscape:perspective>
</defs>
<g>
	<g id="layer2" inkscape:label="Text" inkscape:groupmode="layer">
		<path id="path2669" fill="#2F7D3F" d="M493.458,380.544v38.625h8.754v-14.142h10.273l10.55,14.142h10.578l-10.968-14.698
			c6.648-1.625,9.145-6.9,9.145-11.539c0-7.763-5.075-12.388-13.584-12.388H493.458z M502.212,388.437h15.994
			c3.065,0,4.829,1.579,4.829,4.301c0,3.821-3.03,4.398-4.829,4.398h-15.994V388.437z"/>
		<path id="path2659" fill="#2F7D3F" d="M232.551,379.625c-14.061,0-22.465,7.656-22.465,20.502c0,8.911,5.535,19.278,20.948,19.918
			c0.497,0.021,1,0.027,1.517,0.027c16.577,0,22.465-10.746,22.465-19.945C255.016,387.282,246.608,379.625,232.551,379.625z
			 M232.551,387.518c8.715,0,13.696,4.448,13.696,12.207c0,10.837-8.572,12.457-13.696,12.457c-5.123,0-13.724-1.62-13.724-12.457
			c0-2.425,0.495-4.52,1.434-6.263c0.094-0.175,0.189-0.348,0.292-0.516C222.711,389.436,226.829,387.518,232.551,387.518z"/>
		<path id="path2671" fill="#2F7D3F" d="M536.675,380.544h34.854v7.893h-26.098v7.46h20.195v7.906h-20.195v7.46h26.098v7.906
			h-34.854V380.544z"/>
		<path id="path2667" fill="#2F7D3F" d="M453.72,380.544h34.853v7.893h-26.098v7.46h20.183v7.906h-20.183v7.46h26.098v7.906H453.72
			V380.544z"/>
		<path id="path2665" fill="#2F7D3F" d="M413.981,380.544h34.839v7.893h-26.098v7.46h20.183v7.906h-20.183v7.46h26.098v7.906
			h-34.839V380.544z"/>
		<path id="path2663" fill="#2F7D3F" d="M304.747,380.544h8.672l22.826,26.055v-26.055h8.756v38.625h-8.756l-22.742-26.348v26.348
			h-8.756V380.544z"/>
		<path id="path2661" fill="#2F7D3F" d="M258.773,380.544h8.755v15.353H290.3v-15.353h8.741v38.625H290.3v-15.366h-22.771v15.366
			h-8.755V380.544z"/>
		<path id="path2647" fill="#2F7D3F" d="M362.511,370.926v48.243h21.156c19.774,0,26.779-12.81,26.779-23.773
			c0-15.311-10.016-24.47-26.779-24.47H362.511z M371.278,378.888l12.389,0.014c11.428,0,17.969,5.818,17.969,15.979
			c0,14.201-11.256,16.327-17.969,16.327h-12.389V378.888z"/>
		<path id="path2655" fill="#2F7D3F" d="M197.573,370.955h8.755v30.092c-0.127,13.34-6.449,19.026-21.157,19.026
			c-7.146,0-12.137-1.141-12.137-1.141v-8.937c0,0,4.963,1.796,10.537,1.796c5.914,0,9.63-0.823,11.691-2.951
			c1.704-1.752,2.394-4.69,2.311-9.02C197.573,399.8,197.573,370.955,197.573,370.955z"/>
	</g>
	<g id="layer1" inkscape:label="Logo" inkscape:groupmode="layer">
		
			<radialGradient id="path59_1_" cx="-9.1572" cy="785.4746" r="0.2425" gradientTransform="matrix(-239.4331 0 0 -272.0899 -2094.9985 214115.1406)" gradientUnits="userSpaceOnUse">
			<stop  offset="0" style="stop-color:#41A849"/>
			<stop  offset="1" style="stop-color:#19512A"/>
		</radialGradient>
		<path id="path59" fill="url(#path59_1_)" d="M147.234,354.178c-14.442-7.083-30.438-10.896-46.504-11.348
			c-16.167-0.455-32.429,2.503-47.338,8.796c-1.793,0.757-3.567,1.562-5.317,2.413c-0.27,0.132-0.392,0.142-0.51,0.428
			c-0.092,0.223-0.183,0.446-0.273,0.669c-0.18,0.448-0.358,0.896-0.532,1.346c-0.378,0.976-0.743,1.957-1.093,2.943
			c-1.355,3.817-2.494,7.711-3.409,11.656c-1.876,8.084-2.804,16.383-2.785,24.681c0.02,8.288,0.985,16.57,2.894,24.635
			c0.932,3.938,2.087,7.823,3.457,11.632c0.326,0.908,0.665,1.813,1.016,2.711c0.175,0.449,0.354,0.897,0.534,1.344
			c0.091,0.224,0.182,0.445,0.274,0.669c0.278,0.137,0.558,0.272,0.837,0.407c1.756,0.846,3.535,1.645,5.333,2.395
			c14.947,6.234,31.233,9.124,47.411,8.6c8.166-0.266,16.305-1.396,24.23-3.386c3.863-0.97,7.675-2.143,11.413-3.518
			c1.845-0.679,3.672-1.406,5.479-2.184c0.862-0.37,1.718-0.752,2.569-1.145c0.424-0.196,0.848-0.395,1.27-0.596
			c0.21-0.101,0.421-0.202,0.631-0.304c0.379-0.185,0.443-0.259,0.603-0.65c6.258-15.292,8.908-31.964,7.759-48.444
			C154.374,376.343,151.68,364.908,147.234,354.178"/>
		
			<linearGradient id="path75_1_" gradientUnits="userSpaceOnUse" x1="-6.1094" y1="792.1953" x2="-5.8669" y2="792.1953" gradientTransform="matrix(0 -52.4637 52.2861 0 -41319.2031 29.007)">
			<stop  offset="0" style="stop-color:#0B3D1B"/>
			<stop  offset="1" style="stop-color:#2B6B36"/>
		</linearGradient>
		<path id="path75" fill="url(#path75_1_)" d="M144.696,358.302c-0.334-0.335-0.668-0.671-1.001-1.006
			c6.119,15.443,8.425,32.3,6.746,48.823c-0.829,8.156-2.63,16.211-5.359,23.942c-0.323,0.915-0.658,1.824-1.006,2.729
			c-0.087,0.227-0.175,0.452-0.263,0.678c-0.115,0.293-0.238,0.296-0.514,0.425c-0.498,0.231-0.998,0.459-1.499,0.684
			c-1.802,0.804-3.627,1.557-5.472,2.258c-3.742,1.421-7.564,2.63-11.442,3.624c-15.98,4.098-32.873,4.545-49.049,1.308
			c-8.508-1.703-16.818-4.422-24.663-8.135c0.278,0.285,0.528,0.624,0.89,0.795c0.923,0.435,1.852,0.855,2.787,1.264
			c1.817,0.793,3.656,1.537,5.514,2.23c3.783,1.413,7.642,2.62,11.555,3.615c8.021,2.04,16.274,3.193,24.551,3.355
			c16.252,0.318,32.629-2.994,47.405-9.792c0.518-0.238,0.818-0.305,1.029-0.848c0.176-0.451,0.349-0.904,0.519-1.358
			c0.368-0.984,0.722-1.976,1.06-2.971c0.653-1.923,1.249-3.864,1.788-5.821c1.088-3.956,1.941-7.976,2.551-12.032
			c1.251-8.312,1.489-16.775,0.718-25.144C150.634,377.121,148.324,367.456,144.696,358.302"/>
		
			<linearGradient id="path103_1_" gradientUnits="userSpaceOnUse" x1="-7.1748" y1="790.8408" x2="-6.3869" y2="790.9783" gradientTransform="matrix(-8.8009 -49.9122 49.9122 -8.8009 -39438.293 6996.9253)">
			<stop  offset="0" style="stop-color:#CFAA34"/>
			<stop  offset="1" style="stop-color:#F6F7E8"/>
		</linearGradient>
		<path id="path103" fill="url(#path103_1_)" d="M43.934,392.965c0.386-8.722,1.517-17.299,3.899-25.715
			c0.583-2.059,1.23-4.101,1.94-6.12c0.328-0.931,0.798-1.882,1.003-2.843c0.172-0.807,0.925-1.283,1.654-1.535
			c1.934-0.668,3.793-1.642,5.706-2.382c1.943-0.752,3.909-1.446,5.894-2.082c16.253-5.211,33.717-6.516,50.575-3.875
			c8.519,1.334,16.891,3.66,24.85,6.982c0.954,0.398,1.901,0.812,2.841,1.241c0.784,0.359,1.503,0.591,1.804,1.5
			c0.653,1.974,1.389,3.929,2.019,5.915c1.289,4.06,2.331,8.199,3.113,12.386c3.228,17.275,1.992,35.345-3.577,52.015
			c-0.329,0.984-0.672,1.964-1.03,2.938c-0.29,0.79-0.438,1.848-1.141,2.387c-0.636,0.489-1.514,0.738-2.242,1.058
			c-0.993,0.437-1.993,0.856-2.999,1.262c-3.869,1.557-7.83,2.883-11.854,3.977c-8.05,2.187-16.351,3.442-24.686,3.763
			c-8.745,0.336-17.541-0.361-26.117-2.106c-4.302-0.877-8.534-2.015-12.702-3.389c-2.047-0.676-4.072-1.416-6.071-2.222
			c-0.959-0.387-1.913-0.788-2.86-1.204c-0.474-0.209-0.945-0.42-1.416-0.636c-0.462-0.212-1.317-0.422-1.499-0.904
			c-2.431-6.473-4.371-13.08-5.562-19.896C44.289,406.674,43.934,399.859,43.934,392.965 M45.034,392.999
			c-0.396,8.522,0.655,17.25,2.56,25.549c0.957,4.169,2.17,8.285,3.648,12.299c0.185,0.503,0.377,1.003,0.565,1.505
			c0.118,0.312,0.111,0.465,0.421,0.616c0.233,0.114,0.468,0.226,0.703,0.336c1.02,0.478,2.054,0.922,3.094,1.354
			c1.999,0.83,4.019,1.602,6.064,2.31c16.367,5.667,34.083,7.268,51.215,4.768c8.334-1.217,16.601-3.363,24.404-6.549
			c0.943-0.386,1.887-0.771,2.822-1.176c0.467-0.202,0.933-0.41,1.395-0.625c0.231-0.107,0.461-0.216,0.69-0.328
			c0.34-0.165,0.374-0.487,0.506-0.828c0.782-2.011,1.492-4.042,2.139-6.101c1.308-4.162,2.352-8.427,3.096-12.726
			c2.956-17.074,1.664-34.755-3.955-51.161c-0.334-0.975-0.685-1.942-1.051-2.906c-0.157-0.414-0.266-1.106-0.653-1.331
			c-0.478-0.276-0.988-0.491-1.495-0.708c-1.916-0.818-3.825-1.635-5.777-2.363c-3.937-1.47-7.961-2.704-12.044-3.7
			c-8.193-1.999-16.578-3.002-25.007-3.104c-8.703-0.105-17.441,0.897-25.911,2.896c-4.181,0.987-8.304,2.22-12.334,3.705
			c-2.002,0.737-3.981,1.536-5.935,2.392c-0.688,0.302-1.689,0.523-2.172,1.14c-0.24,0.306-0.302,0.668-0.436,1.022
			c-0.21,0.557-0.416,1.115-0.617,1.676c-1.805,5.043-3.209,10.229-4.202,15.493c-0.488,2.591-0.877,5.199-1.165,7.819
			c-0.148,1.353-0.27,2.708-0.364,4.064c-0.086,1.231-0.042,2.506-0.204,3.728"/>
		
			<linearGradient id="path119_1_" gradientUnits="userSpaceOnUse" x1="7.8052" y1="790.8613" x2="8.6897" y2="790.8448" gradientTransform="matrix(0 47.4749 -47.4749 0 37643.6445 31.0336)">
			<stop  offset="0" style="stop-color:#F6F7E8"/>
			<stop  offset="1" style="stop-color:#FCE24C"/>
		</linearGradient>
		<path id="path119" fill="url(#path119_1_)" d="M143.209,429.134c5.612-15.955,7.099-33.295,4.392-49.987
			c-0.672-4.14-1.602-8.238-2.781-12.264c-0.592-2.02-1.247-4.021-1.962-6c-0.172-0.477-0.348-0.952-0.527-1.426
			c-0.09-0.237-0.181-0.474-0.272-0.71c-0.222-0.103-0.445-0.204-0.667-0.305c-0.967-0.438-1.941-0.86-2.921-1.267
			c-7.626-3.164-15.634-5.4-23.784-6.709c-16.47-2.645-33.517-1.445-49.437,3.551c-3.922,1.23-7.773,2.69-11.521,4.381
			c-0.224,0.101-0.447,0.202-0.67,0.305c-0.297,0.137-0.292,0.28-0.404,0.576c-0.18,0.473-0.356,0.946-0.529,1.422
			c-0.374,1.027-0.732,2.062-1.073,3.101c-0.654,1.992-1.246,4.005-1.775,6.034c-2.118,8.127-3.211,16.512-3.272,24.909
			c-0.062,8.399,0.904,16.8,2.9,24.959c0.997,4.077,2.249,8.092,3.742,12.015c0.112,0.297,0.107,0.439,0.404,0.575
			c0.223,0.104,0.446,0.205,0.67,0.306c0.448,0.202,0.897,0.401,1.348,0.597c0.979,0.424,1.964,0.833,2.955,1.227
			c1.914,0.759,3.85,1.461,5.806,2.104c15.832,5.214,32.851,6.646,49.339,4.236c6.703-0.98,13.317-2.586,19.715-4.814
			c3.109-1.083,6.073-2.455,9.123-3.675c0.251-0.101,0.494-0.127,0.618-0.369c0.194-0.381,0.389-0.761,0.583-1.142
			C143.472,430.247,143.28,429.704,143.209,429.134 M52.016,358.082c14.852-6.945,31.339-10.3,47.718-9.962
			c8.25,0.17,16.483,1.272,24.485,3.291c3.924,0.99,7.793,2.2,11.58,3.632c1.873,0.708,3.724,1.47,5.552,2.285
			c0.437,0.194,0.872,0.393,1.306,0.594c0.401,0.186,0.51,0.855,0.663,1.261c0.381,1.009,0.747,2.022,1.096,3.042
			c5.449,15.905,6.894,33.111,4.222,49.708c-0.662,4.112-1.576,8.183-2.736,12.183c-0.561,1.935-1.167,3.862-1.856,5.756
			c-0.196,0.538-0.404,1.071-0.609,1.606c-0.178,0.461-0.344,1.401-0.807,1.615c-7.369,3.411-15.144,5.936-23.095,7.571
			c-16.257,3.345-33.246,2.939-49.317-1.215c-3.926-1.015-7.794-2.252-11.578-3.709c-1.872-0.722-3.724-1.498-5.551-2.327
			c-0.396-0.18-1.019-0.319-1.179-0.733c-0.18-0.462-0.355-0.926-0.528-1.391c-0.374-1.007-0.732-2.02-1.075-3.038
			c-2.649-7.882-4.332-16.083-5.002-24.372C44.049,388.348,46.338,372.594,52.016,358.082"/>
		
			<linearGradient id="path135_1_" gradientUnits="userSpaceOnUse" x1="-7.7036" y1="792.1113" x2="-7.8412" y2="792.3101" gradientTransform="matrix(0 -47.2655 47.1054 0 -37215.0195 31.5016)">
			<stop  offset="0" style="stop-color:#0B3D1B"/>
			<stop  offset="1" style="stop-color:#2B6B36"/>
		</linearGradient>
		<path id="path135" fill="url(#path135_1_)" d="M47.026,396.169c0-8.4,1.028-16.796,3.086-24.941
			c0.514-2.032,1.09-4.049,1.729-6.046c0.307-0.961,0.628-1.917,0.964-2.868c0.168-0.477,0.34-0.952,0.515-1.426
			c0.168-0.455,0.313-1.317,0.76-1.522c3.733-1.717,7.571-3.204,11.482-4.462c15.905-5.114,32.97-6.426,49.477-3.879
			c9.333,1.439,18.491,4.093,27.108,7.963c-0.168-0.426-0.792-0.562-1.204-0.746c-0.447-0.2-0.896-0.396-1.346-0.589
			c-0.977-0.42-1.961-0.824-2.951-1.212c-1.912-0.75-3.845-1.443-5.798-2.078c-3.932-1.28-7.939-2.327-11.994-3.142
			c-8.181-1.644-16.552-2.344-24.892-2.071c-8.327,0.273-16.624,1.51-24.666,3.686c-3.981,1.076-7.9,2.385-11.726,3.924
			c-0.913,0.367-1.821,0.748-2.723,1.142c-0.45,0.197-0.898,0.396-1.346,0.599c-0.224,0.102-0.446,0.204-0.669,0.308
			c-0.122,0.314-0.242,0.63-0.36,0.945c-0.739,1.969-1.417,3.96-2.033,5.971c-4.921,16.069-5.764,33.338-2.464,49.816
			c0.592,2.956,1.316,5.885,2.169,8.775c0.428,1.449,0.888,2.89,1.38,4.318c0.247,0.717,0.501,1.43,0.763,2.141
			c0.146,0.395,0.294,0.789,0.445,1.184c0.152,0.395,0.651,0.493,1.026,0.661C49.31,421.005,47.026,408.607,47.026,396.169"/>
		
			<linearGradient id="path151_1_" gradientUnits="userSpaceOnUse" x1="-27.2593" y1="641.7578" x2="-28.6997" y2="641.946" gradientTransform="matrix(-2.4325 0 0 -2.4407 54.3598 1963.8101)">
			<stop  offset="0" style="stop-color:#FBDD2A"/>
			<stop  offset="1" style="stop-color:#A37F30"/>
		</linearGradient>
		<path id="path151" fill="url(#path151_1_)" d="M120.582,397.841c0.234,0.051,0.801,0.294,1.017,0.206
			c0.361-0.148,0.722-0.296,1.083-0.444c0.858-0.351,1.716-0.701,2.574-1.053c-0.297-0.158-0.542-0.401-0.862-0.27
			c-0.46,0.188-0.92,0.376-1.38,0.566C122.203,397.178,121.392,397.51,120.582,397.841"/>
		
			<linearGradient id="path173_1_" gradientUnits="userSpaceOnUse" x1="-5.8745" y1="761.1113" x2="-7.2651" y2="759.0321" gradientTransform="matrix(-11.6336 0 0 -11.673 49.9106 9279.6045)">
			<stop  offset="0" style="stop-color:#FBDD2A"/>
			<stop  offset="1" style="stop-color:#F6F2D8"/>
		</linearGradient>
		<path id="path173" fill="url(#path173_1_)" d="M120.549,397.83c1.412-0.05,2.345,1.694,3.013,2.715
			c1.055,1.613,1.809,3.399,2.418,5.221c0.611,1.831,1.083,3.703,1.601,5.562c0.491,1.495,1.12,3.121,2.531,3.979
			c1.837,1.117,3.668,2.216,5.566,3.23c0.458,0.245,0.917,0.488,1.375,0.731c0.3,0.404,0.592,0.813,0.879,1.228
			c0.621,0.896,1.213,1.813,1.79,2.738c1.047,1.684,1.965,3.48,3.093,5.105c0.288,0.415,0.453,0.972,0.526,1.467
			c0.156,1.064-0.658-0.438-0.81-0.688c-1.783-2.93-3.402-6.056-5.46-8.806c-0.451-0.603-0.965-0.84-1.601-1.188
			c-0.779-0.429-1.565-0.846-2.344-1.274c-0.779-0.43-1.552-0.873-2.303-1.352c-0.702-0.447-1.576-0.925-2.115-1.567
			c-1.007-1.2-1.519-2.707-1.93-4.196c-0.421-1.53-0.803-3.072-1.302-4.581c-1-3.026-2.512-6.134-4.926-8.29"/>
		<path id="path183" fill="#F7F8E8" d="M115.763,384.833c0.524,0.469,1.055,0.936,1.461,1.514c0.304,0.433,0.872,0.729,1.288,1.06
			c1.02,0.813,1.98,1.702,2.844,2.68c0.959,1.086,1.803,2.287,2.416,3.604c0.314,0.676,0.566,1.381,0.737,2.105
			c0.119,0.503,0.299,0.517,0.747,0.754c-0.487-3.369-2.643-6.247-5.098-8.489C118.827,386.846,117.35,385.699,115.763,384.833"/>
		
			<linearGradient id="path199_1_" gradientUnits="userSpaceOnUse" x1="-26.1348" y1="637.0078" x2="-27.6233" y2="632.1617" gradientTransform="matrix(-2.2997 0 0 -2.3075 56.6623 1855.3885)">
			<stop  offset="0" style="stop-color:#FBDD2A"/>
			<stop  offset="1" style="stop-color:#A37F30"/>
		</linearGradient>
		<path id="path199" fill="url(#path199_1_)" d="M117.347,386.532c-0.414-0.664-1.007-1.182-1.584-1.698
			c0.516,1.219,1.364,2.26,1.968,3.438c0.56,1.093,1.018,2.241,1.317,3.433c0.216,0.862,0.35,1.747,0.37,2.637
			c0.013,0.569-0.02,1.144-0.114,1.707c-0.032,0.191-0.071,0.383-0.124,0.569c0.2,0.22,0.323,0.467,0.387,0.754
			C120.607,393.583,119.432,389.762,117.347,386.532"/>
		
			<linearGradient id="path215_1_" gradientUnits="userSpaceOnUse" x1="1.6704" y1="751.8594" x2="-0.2229" y2="752.1152" gradientTransform="matrix(-9.2423 0 0 -9.2736 81.0364 7374.2246)">
			<stop  offset="0" style="stop-color:#F6F7E8"/>
			<stop  offset="1" style="stop-color:#FCE24C"/>
		</linearGradient>
		<path id="path215" fill="url(#path215_1_)" d="M74.356,400.609c0.885-0.077,1.771-0.16,2.656-0.242
			c-0.121-0.124-0.4-0.54-0.573-0.525c-0.438,0.039-0.877,0.081-1.314,0.122c-1.657,0.154-3.315,0.294-4.969,0.482
			c-3.602,0.41-7.198,1.053-10.593,2.359c0.21,0.123,0.42,0.246,0.63,0.37c0.205,0.12,1.472-0.479,1.744-0.562
			c1.386-0.418,2.798-0.744,4.222-1.004C68.869,401.115,71.615,400.858,74.356,400.609"/>
		
			<linearGradient id="path237_1_" gradientUnits="userSpaceOnUse" x1="1.4253" y1="746.6865" x2="-0.0929" y2="745.2854" gradientTransform="matrix(-8.1935 0 0 -8.2214 79.1265 6547.1479)">
			<stop  offset="0" style="stop-color:#CFAA34"/>
			<stop  offset="1" style="stop-color:#F5F2CA"/>
		</linearGradient>
		<path id="path237" fill="url(#path237_1_)" d="M64.896,404.795c0.878,0.36,1.21,1.427,1.686,2.188
			c0.563,0.901,1.167,1.774,1.811,2.619c1.163,1.524,2.468,3,3.98,4.188c0.791,0.622,1.615,1.182,2.515,1.635
			c0.898,0.451,1.855,0.647,2.788,0.999c0.328,0.123,0.806,0.264,0.994,0.588c0.275,0.475,0.494,0.99,0.746,1.478
			c0.508,0.98,0.991,1.974,1.489,2.96c-0.189,0.035-0.618-0.583-0.742-0.703c-0.304-0.296-0.501-0.598-0.727-0.948
			c-0.218-0.408-0.425-0.822-0.646-1.229c-0.196-0.365-0.406-1.092-0.765-1.308c-0.77-0.464-1.732-0.587-2.563-0.908
			c-0.973-0.378-1.885-0.902-2.732-1.513c-1.689-1.214-3.129-2.761-4.391-4.406c-0.661-0.862-1.275-1.763-1.848-2.687
			c-0.308-0.496-0.601-1.001-0.879-1.515c-0.134-0.247-0.477-1.276-0.718-1.37"/>
		
			<linearGradient id="path259_1_" gradientUnits="userSpaceOnUse" x1="1.8843" y1="756.9824" x2="0.1165" y2="755.5551" gradientTransform="matrix(-10.5591 0 0 -10.595 80.3724 8425.377)">
			<stop  offset="0" style="stop-color:#E8CB24"/>
			<stop  offset="1" style="stop-color:#CFAA34"/>
		</linearGradient>
		<path id="path259" fill="url(#path259_1_)" d="M59.563,402.795c0.529,0.201,0.67,0.399,0.76,0.919
			c0.113,0.654,0.238,0.979,0.674,1.493c0.744,0.874,1.484,1.76,2.297,2.571c0.883,0.882,1.758,1.978,2.788,2.691
			c0.808,0.895,1.873,1.555,2.75,2.375c1.033,0.688,1.98,1.55,2.983,2.285c1.056,0.774,2.137,1.514,3.232,2.233
			c1.087,0.713,2.195,1.397,3.321,2.049c0.456,0.265,1.063,0.494,1.433,0.868c0.229,0.23,1.068,0.885,1.088,1.204
			c-0.446-0.074-0.975-0.478-1.364-0.701c-0.563-0.323-1.133-0.635-1.691-0.968c-1.108-0.661-2.194-1.348-3.279-2.044
			c-2.175-1.396-4.16-3.02-6.231-4.555c-0.43-0.324-0.832-0.688-1.243-1.034c-0.41-0.346-0.943-0.704-1.27-1.131
			c-0.989-0.735-1.969-1.729-2.779-2.656c-0.736-0.841-1.53-1.625-2.258-2.476c-0.321-0.375-0.852-0.825-0.909-1.333
			c-0.057-0.506-0.153-1.129-0.302-1.592"/>
		
			<linearGradient id="path281_1_" gradientUnits="userSpaceOnUse" x1="-2.0298" y1="781.6514" x2="-0.0953" y2="782.1763" gradientTransform="matrix(-38.6979 0 0 -38.8285 63.9466 30775.332)">
			<stop  offset="0" style="stop-color:#BA8F2B"/>
			<stop  offset="1" style="stop-color:#CD9C33"/>
		</linearGradient>
		<path id="path281" fill="url(#path281_1_)" d="M64.896,404.795c4.383-0.054,8.521,0.938,12.666,2.28
			c4.122,1.337,8.104,2.668,12.476,2.781c4.318,0.112,8.6-0.979,12.901-1.206c2.162-0.113,4.309-0.004,6.469,0.045
			c0.467,0.011,0.806,0.047,1.118,0.418c0.249,0.295,0.481,0.596,0.738,0.886c0.721,0.815,1.483,1.595,2.269,2.347
			c1.463,1.35,2.994,2.546,4.812,3.377c1.886,0.861,3.849,1.562,5.804,2.246c2.099,0.734,4.213,1.425,6.333,2.096
			c1.025,0.324,2.052,0.645,3.077,0.968c0.396,0.125,0.807,0.188,1.113,0.487c0.326,0.319,0.628,0.681,0.931,1.022
			c1.397,1.57,2.727,3.203,3.963,4.904c0.593,0.815,1.169,1.645,1.709,2.497c0.221,0.349,1.564,2.031,1.027,2.279
			c-0.529,0.243-1.223-1.412-1.456-1.78c-0.589-0.934-1.215-1.844-1.867-2.734c-1.266-1.73-2.623-3.396-4.054-4.992
			c-0.274-0.306-0.518-0.666-0.886-0.866c-0.36-0.195-0.789-0.267-1.177-0.387c-1.059-0.328-2.119-0.649-3.168-1.005
			c-2.114-0.633-4.205-1.357-6.285-2.092c-2.026-0.715-4.103-1.43-6.02-2.409c-1.751-0.895-3.292-2.177-4.682-3.556
			c-0.694-0.688-1.382-1.385-2.03-2.116c-0.262-0.295-0.509-0.799-0.903-0.927c-0.421-0.138-0.974-0.069-1.415-0.091
			c-2.169-0.107-4.349-0.104-6.514,0.078c-4.36,0.366-8.709,1.319-13.104,1.074c-4.175-0.234-8.102-1.696-12.043-2.98
			c-1.994-0.649-4.002-1.261-6.058-1.682c-1.026-0.21-2.061-0.357-3.103-0.465c-0.484-0.05-0.972-0.064-1.458-0.07
			c-0.516-0.007-0.744-0.197-1.184-0.395"/>
		<path id="path291" fill="#F7F8E8" d="M73.792,370.267c1.047-0.649,2.167-1.19,3.285-1.703c-0.424-0.455-0.837-0.256-1.317-0.014
			c-0.643,0.324-1.269,0.68-1.882,1.056c-1.068,0.655-2.104,1.37-3.082,2.154c0.156,0.311,1.061-0.399,1.302-0.536
			C72.66,370.902,73.223,370.579,73.792,370.267"/>
		
			<linearGradient id="path313_1_" gradientUnits="userSpaceOnUse" x1="87.7285" y1="748.2236" x2="85.7463" y2="744.358" gradientTransform="matrix(-1.5974 3.2056 -3.1947 -1.6028 2604.1282 1288.2427)">
			<stop  offset="0" style="stop-color:#FBDD2A"/>
			<stop  offset="1" style="stop-color:#A37F30"/>
		</linearGradient>
		<path id="path313" fill="url(#path313_1_)" d="M70.895,371.87c0.789-0.417,1.541-0.905,2.328-1.321
			c0.763-0.403,1.635-0.603,2.463-0.825c1.793-0.483,3.615-0.877,5.459-1.1c1.874-0.226,3.824-0.329,5.68,0.082
			c1.347,0.297,3.494,1.302,3.178,3.047c-0.139-0.15-0.334-0.14-0.509-0.213c-0.229-0.096-0.194-0.555-0.316-0.763
			c-0.367-0.622-1.024-1.008-1.681-1.263c-1.706-0.66-3.703-0.569-5.49-0.404c-3.855,0.355-7.486,1.554-11.113,2.827"/>
		<path id="path323" fill="#F7F8E8" d="M75.341,365.714c0.933,0.414,1.843,1.01,2.423,1.868c0.066,0.098,0.273,0.556,0.374,0.525
			c0.438-0.134,0.875-0.269,1.316-0.393c1.56-0.44,3.119-0.655,4.731-0.778c-0.266-0.718-0.962-0.51-1.568-0.443
			c-0.649,0.071-1.295,0.174-1.933,0.313c-0.786,0.174-1.561,0.396-2.331,0.631c-0.311-0.517-0.733-0.96-1.207-1.332
			c-1.15-0.902-2.587-1.403-4.013-1.654c-0.252-0.045-0.645-0.237-0.709,0.062c-0.021,0.099,0.805,0.403,0.932,0.473
			C74.042,365.184,74.697,365.399,75.341,365.714"/>
		
			<linearGradient id="path345_1_" gradientUnits="userSpaceOnUse" x1="38.9775" y1="620.9141" x2="39.2204" y2="620.9141" gradientTransform="matrix(-2.049 0 0 -2.0561 77.9099 1645.3042)">
			<stop  offset="0" style="stop-color:#FBDD2A"/>
			<stop  offset="1" style="stop-color:#A37F30"/>
		</linearGradient>
		<path id="path345" fill="url(#path345_1_)" d="M76.726,368.704c0.109-0.068,0.24-0.122,0.367-0.167c0,0.022,0,0.045,0,0.067
			c-0.162,0.01-0.225,0.095-0.367,0.133"/>
		
			<linearGradient id="path361_1_" gradientUnits="userSpaceOnUse" x1="1.9009" y1="622.1104" x2="0.6227" y2="620.9102" gradientTransform="matrix(-2.049 0 0 -2.056 77.9099 1644.2937)">
			<stop  offset="0" style="stop-color:#FBDD2A"/>
			<stop  offset="1" style="stop-color:#A37F30"/>
		</linearGradient>
		<path id="path361" fill="url(#path361_1_)" d="M75.341,365.714c-0.644-0.315-1.299-0.53-1.986-0.729
			c0.687,0.361,1.331,0.826,1.873,1.381c0.343,0.351,0.646,0.742,0.873,1.177c0.118,0.225,0.215,0.461,0.287,0.704
			c0.274,0.033,0.5,0.111,0.69,0.316c-0.332-1.13-0.842-2.063-1.737-2.853"/>
		<path id="path371" fill="#F7F8E8" d="M82.003,361.359c2.007,1.267,3.508,3.085,4.162,5.377c0.101,0.354,2.018,0.218,2.444,0.28
			c0.826,0.12,1.584,0.428,2.35,0.746c-0.081-0.853-0.734-0.959-1.476-1.154c-0.769-0.202-1.562-0.254-2.353-0.28
			c-0.264-0.009-0.454,0.094-0.54-0.186c-0.053-0.172-0.111-0.342-0.176-0.509c-0.13-0.338-0.282-0.668-0.454-0.985
			c-0.354-0.655-0.793-1.264-1.292-1.816c-1.031-1.143-2.314-2.046-3.703-2.703c-0.388-0.184-0.785-0.348-1.188-0.493
			c-0.275,0.167,0.152,0.372,0.262,0.459C80.661,360.586,81.343,360.917,82.003,361.359"/>
		
			<linearGradient id="path387_1_" gradientUnits="userSpaceOnUse" x1="-3.6948" y1="618.6143" x2="-4.7444" y2="616.3941" gradientTransform="matrix(-1.9954 0 0 -2.0021 74.3809 1600.116)">
			<stop  offset="0" style="stop-color:#FBDD2A"/>
			<stop  offset="1" style="stop-color:#A37F30"/>
		</linearGradient>
		<path id="path387" fill="url(#path387_1_)" d="M83.58,366.404c0.294-0.018,0.514,0.289,0.604,0.533
			c-0.07-1.263-0.293-2.44-0.865-3.582c-0.302-0.604-0.671-1.173-1.084-1.706c-0.42-0.541-1.128-0.832-1.729-1.144
			C82.089,361.985,83.459,364.207,83.58,366.404"/>
		<path id="path397" fill="#F7F8E8" d="M93.927,366.494c0,0.379-0.241,1.34,0.134,1.538c0.519,0.274,0.436-1.081,0.439-1.3
			c0.017-0.998-0.064-2.002-0.271-2.979c-0.443-2.093-1.508-3.996-3.145-5.387c-0.418-0.355-0.866-0.675-1.334-0.962
			c-0.375-0.229-1.215-0.698-0.624,0.034c0.748,0.925,1.845,1.51,2.63,2.442C93.312,361.726,93.927,364.116,93.927,366.494"/>
		
			<linearGradient id="path413_1_" gradientUnits="userSpaceOnUse" x1="-15.0664" y1="537.8975" x2="-15.5521" y2="532.1579" gradientTransform="matrix(-1.3515 0 0 -1.3561 70.2002 1088.3817)">
			<stop  offset="0" style="stop-color:#FBDD2A"/>
			<stop  offset="1" style="stop-color:#A37F30"/>
		</linearGradient>
		<path id="path413" fill="url(#path413_1_)" d="M90.547,358.695c-0.333-0.289-0.706-0.537-1.07-0.782
			c0.859,1.324,1.507,2.816,1.766,4.379c0.153,0.921,0.159,1.862-0.001,2.782c-0.085,0.492-0.217,0.976-0.388,1.445
			c-0.08,0.219-0.257,0.396-0.097,0.566s0.182,0.459,0.203,0.677c0.597-1.391,1.015-2.788,0.971-4.319
			C91.883,361.774,91.359,360.145,90.547,358.695"/>
		<path id="path423" fill="#F7F8E8" d="M92.274,374.118c0-0.082,3.045-0.59,3.097-0.599c1.24-0.23,2.481-0.449,3.727-0.649
			c0.606-0.098,1.247-0.116,1.792-0.406c0.361-0.191,0.718-0.391,1.072-0.594c-2.09,0.261-4.169,0.618-6.241,0.997
			C94.715,373.052,92.81,373.045,92.274,374.118"/>
		
			<linearGradient id="path445_1_" gradientUnits="userSpaceOnUse" x1="100.7334" y1="809.1523" x2="102.0353" y2="809.7944" gradientTransform="matrix(0.8279 3.323 -3.3118 0.8307 2690.4429 -638.8276)">
			<stop  offset="0" style="stop-color:#FBDD2A"/>
			<stop  offset="1" style="stop-color:#A37F30"/>
		</linearGradient>
		<path id="path445" fill="url(#path445_1_)" d="M92.256,374.07c0.553-1.288,0.979-2.631,1.26-4.004
			c0.133-0.646,0.233-1.299,0.3-1.955c-0.077-0.146,0.076-0.42,0.201-0.179c0.14,0.28,0.333-0.067,0.438-0.172
			c0.03,1.154-0.299,2.414-0.589,3.523c-0.169,0.647-0.37,1.287-0.604,1.914c-0.284,0.367-0.806,0.496-1.005,0.938"/>
		<path id="path455" fill="#F7F8E8" d="M89.981,371.238C89.968,371.182,89.977,371.218,89.981,371.238"/>
		<path id="path457" fill="#F7F8E8" d="M90.041,371.765c-0.229-0.317-0.569-0.309-0.569,0.091c0,0.383-0.081,0.764-0.201,1.126
			c-0.123,0.371-0.287,0.727-0.473,1.07c-0.192,0.354-0.642,0.342-1.022,0.43c-1.501,0.35-2.994,0.737-4.479,1.148
			c-3.406,0.943-6.786,2.003-10.095,3.245c0.176,0.086,0.354,0.174,0.53,0.261c0.3,0.146,0.548-0.042,0.854-0.152
			c0.907-0.326,1.819-0.639,2.734-0.94c1.878-0.619,3.772-1.194,5.677-1.729c1.645-0.462,3.298-0.896,4.963-1.283
			c0.299-0.069,0.598-0.137,0.897-0.202c0.265-0.059,0.309-0.251,0.438-0.491C89.708,373.58,90.108,372.651,90.041,371.765"/>
		<path id="path459" fill="#F7F8E8" d="M90.019,371.47c0.006,0.055,0.011,0.11,0.017,0.165
			C90.03,371.581,90.025,371.525,90.019,371.47"/>
		
			<linearGradient id="path475_1_" gradientUnits="userSpaceOnUse" x1="-30.8569" y1="794.9072" x2="-29.5171" y2="794.7673" gradientTransform="matrix(0 -11.9652 11.9252 0 -9374.9658 25.5126)">
			<stop  offset="0" style="stop-color:#F6F7E8"/>
			<stop  offset="1" style="stop-color:#CD9C33"/>
		</linearGradient>
		<path id="path475" fill="url(#path475_1_)" d="M119.181,396.616c-2.777-1.004-5.865-1.329-8.783-1.586
			c-3.446-0.306-6.912-0.37-10.37-0.296c-3.057,0.064-7.257,0.605-9.352-2.22c-0.941-1.27-1.073-2.863-1.008-4.391
			c0.069-1.637,0.311-3.265,0.621-4.872c0.44-2.276,1.014-4.537,1.721-6.745c0.104-0.072,0.641,0.078,0.761,0.093
			c0.515,0.063,1.03,0.126,1.545,0.188c0.407,0.05,0.815,0.1,1.222,0.149c0.502,0.062,1.251-0.62,1.666-0.886
			c1.767-1.131,3.501-2.48,4.758-4.182c-0.47,0.27-1.14,0.49-1.515,0.87c-0.479,0.487-0.992,0.942-1.524,1.37
			c-0.659,0.529-1.35,1.018-2.063,1.473c-0.567,0.361-1.045,0.807-1.723,0.724c-1.027-0.126-2.053-0.251-3.08-0.376
			c-0.326-0.04-0.419-0.149-0.522,0.173c-0.104,0.327-0.208,0.655-0.307,0.984c-0.862,2.859-1.567,5.791-1.938,8.756
			c-0.413,3.304-0.426,7.089,3.056,8.705c3.013,1.398,6.71,0.742,9.911,0.733c3.088-0.008,6.183,0.104,9.255,0.428
			c2.732,0.289,5.466,0.721,8.056,1.661C119.503,397.083,119.381,396.836,119.181,396.616"/>
		
			<linearGradient id="path497_1_" gradientUnits="userSpaceOnUse" x1="-10.5244" y1="793.333" x2="-10.0318" y2="792.5394" gradientTransform="matrix(0 -36.8691 36.743 0 -29016.9941 30.9897)">
			<stop  offset="0" style="stop-color:#E3AA31"/>
			<stop  offset="1" style="stop-color:#FCE24C"/>
		</linearGradient>
		<path id="path497" fill="url(#path497_1_)" d="M60.197,403.162c4.155-1.375,8.386-2.031,12.733-2.438
			c0.942-0.088,1.887-0.192,2.826-0.284c0.736-0.072,1.218,0.12,1.323-0.774c0.256-2.181,0.644-4.344,1.178-6.475
			c0.522-2.08,1.18-4.127,1.986-6.114c0.372-0.963,0.814-1.895,1.252-2.828c0.334-0.713,0.901-1.749-0.104-2.231
			c-0.402-0.193-0.943-0.221-1.379-0.311c-0.522-0.107-1.044-0.213-1.566-0.319c-1.132-0.229-2.263-0.456-3.393-0.695
			c-0.455-0.096-0.728-0.147-0.917-0.604c-0.129-0.311-0.305-0.799,0.043-0.964c0.945-0.447,2.008-0.729,2.999-1.059
			c2.918-0.971,5.877-1.833,8.859-2.585c0.763-0.192,1.527-0.376,2.293-0.552c0.681-0.156,0.932-0.434,1.179-1.081
			c0.414-1.09,0.789-2.212,0.182-3.324c-1.263-2.311-5.108-2.16-7.303-1.989c-1.548,0.12-3.081,0.372-4.595,0.71
			c-0.748,0.168-1.492,0.355-2.231,0.559c-0.179,0.049-1.794,0.429-1.802,0.485c0.023-0.181,0.71-0.415,0.859-0.513
			c0.701-0.388,1.492-0.668,2.175-1.051c0.885-0.496-1.14-2.68-1.451-3.008c0.584,0.235,1.158,0.587,1.641,0.992
			c0.262,0.221,0.515,0.458,0.711,0.741c0.164,0.236,0.242,0.575,0.588,0.581c0.55,0.009,1.285-0.378,1.82-0.514
			c0.813-0.207,1.641-0.362,2.476-0.457c0.44-0.051,1.584,0.132,1.607-0.526c0.016-0.437-0.15-1.011-0.249-1.437
			c-0.179-0.765-0.49-1.494-0.88-2.174c-0.075-0.131-0.99-1.488-0.956-1.507c0.097-0.054,0.789,0.541,0.888,0.618
			c0.395,0.307,0.766,0.643,1.11,1.005c0.637,0.674,1.178,1.44,1.581,2.276c0.19,0.395,0.291,1.382,0.744,1.559
			c0.297,0.115,0.789,0.007,1.111,0.024c0.548,0.031,1.097,0.089,1.634,0.206c0.45,0.099,0.873,0.233,1.273,0.454
			c0.333,0.185,0.686,0.047,0.762-0.337c0.198-0.993,0.608-1.896,0.684-2.935c0.074-1.04-0.054-2.071-0.327-3.074
			c-0.13-0.476-0.291-0.942-0.484-1.396c-0.033-0.076-0.538-1.05-0.438-1.066c0.146-0.023,0.702,0.648,0.812,0.766
			c0.339,0.359,0.645,0.749,0.915,1.162c0.542,0.828,0.942,1.747,1.196,2.703c0.589,2.221,0.447,4.635-0.037,6.862
			c-0.225,1.032-0.498,2.108-0.921,3.081c-0.077,0.177-0.28,0.486-0.216,0.689c0.055,0.172,0.974-0.132,1.107-0.158
			c1.23-0.246,2.465-0.472,3.701-0.686c0.618-0.106,1.236-0.21,1.855-0.313c0.238-0.039,1.252-0.365,1.445-0.17
			c0.237,0.241-4.143,3.231-4.561,3.475c-0.739,0.431-1.984,0.01-2.795-0.083c-0.477-0.056-0.953-0.111-1.427-0.183
			c-0.292,0.393-0.374,0.885-0.5,1.345c-0.564,2.047-1.133,4.083-1.523,6.173c-0.369,1.979-0.722,4.093-0.577,6.111
			c0.135,1.86,0.915,3.569,2.517,4.602c1.632,1.054,3.684,1.247,5.578,1.241c4.374-0.015,8.705-0.173,13.073,0.208
			c1.705,0.149,3.407,0.351,5.09,0.663c0.842,0.155,1.678,0.339,2.505,0.557c0.452,0.119,1,0.438,1.463,0.441
			c0.524,0.004,0.516-1.11,0.558-1.455c0.099-0.803,0.093-1.616,0.006-2.42c-0.182-1.679-0.706-3.313-1.453-4.822
			c-0.11-0.223-1.124-1.8-1.026-1.921c0.074-0.091,0.824,0.55,0.915,0.623c1.354,1.085,2.625,2.264,3.698,3.633
			c1.027,1.311,1.878,2.773,2.345,4.381c0.103,0.353,0.374,0.853,0.001,1.035c-0.367,0.18-0.748,0.329-1.128,0.477
			c-0.884,0.345-1.762,0.706-2.632,1.087c2.686,2.703,4.24,6.013,5.3,9.634c0.511,1.748,0.88,3.553,1.556,5.248
			c0.311,0.777,0.703,1.573,1.285,2.187c0.624,0.655,1.437,1.142,2.207,1.605c1.71,1.03,3.453,2.007,5.221,2.933
			c0.691,0.361,0.917,0.93,1.359,1.529c0.607,0.822,1.136,1.711,1.678,2.577c1.071,1.71,2.105,3.444,3.127,5.185
			c0.162,0.275,0.284,0.586,0.471,0.844c0.171,0.236,0.417,0.467,0.482,0.762c0.083,0.376-0.487,1.436-0.813,1.637
			c-0.57-0.752-1-1.628-1.516-2.418c-0.583-0.895-1.198-1.77-1.836-2.626c-1.229-1.647-2.546-3.227-3.914-4.76
			c-0.586-0.657-1.053-0.962-1.905-1.194c-1.023-0.28-2.032-0.629-3.043-0.95c-2.101-0.667-4.196-1.355-6.276-2.085
			c-1.985-0.696-3.998-1.394-5.899-2.3c-1.807-0.86-3.372-2.092-4.807-3.476c-0.689-0.664-1.354-1.354-1.993-2.066
			c-0.34-0.379-0.674-0.763-0.986-1.165c-0.371-0.291-0.875-0.221-1.313-0.229c-2.157-0.039-4.299-0.166-6.459-0.025
			c-4.323,0.28-8.629,1.337-12.977,1.176c-4.325-0.161-8.302-1.565-12.383-2.878c-2.039-0.656-4.095-1.271-6.203-1.665
			c-1.02-0.19-2.05-0.332-3.084-0.417c-0.366-0.029-2.736-0.337-2.849,0.027c-0.094,0.304,0.556,1.186,0.701,1.446
			c0.504,0.905,1.046,1.79,1.631,2.646c1.115,1.631,2.387,3.179,3.845,4.516c1.427,1.307,3.101,2.444,4.966,3.012
			c0.718,0.219,1.77,0.337,2.162,1.059c0.435,0.801,0.921,1.629,1.262,2.474c-0.342-0.021-0.661-0.291-0.94-0.462
			c-0.466-0.284-0.95-0.543-1.418-0.826c-0.949-0.573-1.885-1.168-2.808-1.783c-1.902-1.267-3.764-2.61-5.534-4.058
			c-1.764-1.441-3.46-2.954-5.071-4.567c-0.77-0.771-1.514-1.567-2.231-2.388c-0.381-0.437-0.753-0.882-1.111-1.339
			c-0.23-0.427-0.14-0.935-0.312-1.379"/>
		
			<linearGradient id="path513_1_" gradientUnits="userSpaceOnUse" x1="-9.1323" y1="791.2285" x2="-8.8897" y2="791.2285" gradientTransform="matrix(0 -37.7057 37.5775 0 -29661.9551 -4.8533)">
			<stop  offset="0" style="stop-color:#0B3D1B"/>
			<stop  offset="1" style="stop-color:#2B6B36"/>
		</linearGradient>
		<path id="path513" fill="url(#path513_1_)" d="M59.933,404.867c4.834,7.618,12.827,13.131,20.934,16.803
			c0.139-0.273-0.517-0.47-0.717-0.576c-0.581-0.311-1.156-0.632-1.727-0.96c-1.795-1.035-3.547-2.146-5.254-3.321
			C68.271,413.44,63.665,409.517,59.933,404.867"/>
		
			<linearGradient id="path535_1_" gradientUnits="userSpaceOnUse" x1="-9.1763" y1="793.3389" x2="-8.9403" y2="793.3389" gradientTransform="matrix(0 -37.701 37.5728 0 -29684.5078 -4.8481)">
			<stop  offset="0" style="stop-color:#0B3D1B"/>
			<stop  offset="1" style="stop-color:#2B6B36"/>
		</linearGradient>
		<path id="path535" fill="url(#path535_1_)" d="M121.549,398.03c0.757-0.224,1.503-0.593,2.23-0.9
			c0.396-0.162,0.792-0.321,1.188-0.483c0.394-0.162,0.365,0.104,0.409,0.445c0.057,0.432-1.586,0.853-1.923,1.004
			c-0.376,0.142-0.744,0.31-1.112,0.469c-0.353,0.153-0.595-0.258-0.792-0.501"/>
		
			<linearGradient id="path551_1_" gradientUnits="userSpaceOnUse" x1="-9.1338" y1="792.2383" x2="-8.8912" y2="792.2383" gradientTransform="matrix(0 -37.701 37.5728 0 -29670.8203 -4.8481)">
			<stop  offset="0" style="stop-color:#0B3D1B"/>
			<stop  offset="1" style="stop-color:#2B6B36"/>
		</linearGradient>
		<path id="path551" fill="url(#path551_1_)" d="M95.689,376.956c-1.131-0.139-2.263-0.276-3.394-0.415
			c-0.421-0.051-0.363,0.205-0.481,0.596c-0.228,0.752-0.441,1.509-0.642,2.27c-0.563,2.138-1.036,4.307-1.312,6.501
			c-0.275,2.183-0.568,4.785,0.857,6.652c-0.786-1.479-0.727-3.207-0.581-4.827c0.155-1.71,0.473-3.405,0.863-5.076
			c0.307-1.316,0.663-2.622,1.057-3.915c0.12-0.394,0.243-0.785,0.37-1.177c0.106-0.327,0.079-0.321,0.42-0.278
			c0.907,0.113,1.814,0.228,2.721,0.341c0.514,0.064,1.242-0.619,1.661-0.896c0.732-0.482,1.44-1.004,2.104-1.578
			c0.772-0.668,1.499-1.411,2.068-2.264c0.212-0.317,0.338-0.717,0.561-1.02C100.361,374.037,98.014,375.661,95.689,376.956"/>
		
			<linearGradient id="path567_1_" gradientUnits="userSpaceOnUse" x1="-9.1489" y1="791.5156" x2="-8.9097" y2="791.5156" gradientTransform="matrix(0 -37.701 37.5728 0 -29661.8516 -4.8481)">
			<stop  offset="0" style="stop-color:#0B3D1B"/>
			<stop  offset="1" style="stop-color:#2B6B36"/>
		</linearGradient>
		<path id="path567" fill="url(#path567_1_)" d="M80.961,382.469c-2.358-0.487-4.719-0.967-7.079-1.446
			c0.187,0.243,0.495,0.883,0.795,0.956c0.658,0.158,1.316,0.315,1.975,0.473c1.046,0.248,2.094,0.494,3.143,0.734
			c0.438,0.1,0.875,0.198,1.314,0.293C81.513,383.566,81.546,382.561,80.961,382.469"/>
		
			<linearGradient id="path583_1_" gradientUnits="userSpaceOnUse" x1="-9.1274" y1="791.4629" x2="-8.8837" y2="791.4629" gradientTransform="matrix(0 -37.7152 37.5881 0 -29673.2754 -4.8542)">
			<stop  offset="0" style="stop-color:#0B3D1B"/>
			<stop  offset="1" style="stop-color:#2B6B36"/>
		</linearGradient>
		<path id="path583" fill="url(#path583_1_)" d="M78.352,367.439c0.15-0.046,0.301-0.091,0.452-0.136
			c-0.879-1.724-3.182-2.495-4.971-2.704C75.555,365.01,77.407,365.862,78.352,367.439"/>
		
			<linearGradient id="path599_1_" gradientUnits="userSpaceOnUse" x1="-9.1353" y1="791.7754" x2="-8.8927" y2="791.7754" gradientTransform="matrix(0 -37.694 37.5657 0 -29659.4258 -4.8398)">
			<stop  offset="0" style="stop-color:#0B3D1B"/>
			<stop  offset="1" style="stop-color:#2B6B36"/>
		</linearGradient>
		<path id="path599" fill="url(#path599_1_)" d="M86.641,366.314c0.189,0.004,0.378,0.009,0.566,0.017
			c-0.954-2.86-3.285-5.034-6.063-6.113C83.652,361.451,85.863,363.566,86.641,366.314"/>
		
			<linearGradient id="path615_1_" gradientUnits="userSpaceOnUse" x1="-9.1338" y1="792.1602" x2="-8.8914" y2="792.1602" gradientTransform="matrix(0 -37.7034 37.5763 0 -29672.5898 -4.8502)">
			<stop  offset="0" style="stop-color:#0B3D1B"/>
			<stop  offset="1" style="stop-color:#2B6B36"/>
		</linearGradient>
		<path id="path615" fill="url(#path615_1_)" d="M94.503,366.494c0,2.324-0.479,4.69-1.318,6.854
			c0.224-0.041,0.447-0.086,0.67-0.131c0.064-0.192,0.125-0.386,0.184-0.58c0.146-0.483,0.274-0.971,0.385-1.464
			c0.3-1.328,0.478-2.688,0.478-4.052c0-2.442-0.612-4.916-2.129-6.87C94.011,362.086,94.503,364.304,94.503,366.494"/>
		
			<linearGradient id="path631_1_" gradientUnits="userSpaceOnUse" x1="-9.1362" y1="792.5537" x2="-8.8941" y2="792.5537" gradientTransform="matrix(0 -37.7023 37.5752 0 -29676.623 -4.8431)">
			<stop  offset="0" style="stop-color:#0B3D1B"/>
			<stop  offset="1" style="stop-color:#2B6B36"/>
		</linearGradient>
		<path id="path631" fill="url(#path631_1_)" d="M79.021,408.987c4.148,1.327,8.197,2.442,12.594,2.243
			c4.184-0.189,8.286-1.152,12.467-1.37c0.916-0.048,1.834-0.063,2.751-0.049c0.475,0.008,0.95,0.023,1.424,0.045
			c0.273,0.013,1.124-0.074,1.295,0.128c0.631,0.744,1.33,1.439,2.029,2.118c2.062,2,4.279,3.775,6.927,4.924
			c4.539,1.969,9.329,3.405,14.053,4.857c0.463,0.142,0.93,0.277,1.392,0.428c0.12,0.04,0.263,0.254,0.349,0.342
			c0.305,0.313,0.605,0.634,0.9,0.957c2.191,2.401,4.191,5.013,5.814,7.833c0.117,0.203,0.231,0.407,0.343,0.612
			c0.226,0.412,0.186,0.428,0.615,0.232c-1.703-3.08-3.854-5.919-6.147-8.581c-0.532-0.619-1.07-1.235-1.639-1.821
			c-0.218-0.225-0.814-0.286-1.103-0.376c-4.66-1.44-9.358-2.88-13.866-4.755c-2.653-1.104-4.842-2.693-6.873-4.729
			c-0.799-0.802-1.567-1.638-2.292-2.508c-0.365-0.438-1.408-0.268-1.955-0.29c-1.116-0.046-2.234-0.064-3.351-0.046
			c-4.293,0.068-8.494,0.969-12.772,1.208c-2.151,0.121-4.303,0.047-6.422-0.362c-2.099-0.405-4.141-1.054-6.167-1.722
			c-4.504-1.483-9.071-3.136-13.876-3.129c0.182,0.368,0.364,0.964,0.787,0.971c0.677,0.011,1.353,0.056,2.026,0.127
			c1.256,0.135,2.5,0.364,3.729,0.652C74.415,407.479,76.714,408.251,79.021,408.987"/>
		
			<linearGradient id="path647_1_" gradientUnits="userSpaceOnUse" x1="-8.9497" y1="791.6152" x2="-8.7057" y2="791.6152" gradientTransform="matrix(0 -38.5095 38.3801 0 -30302.0586 -5.3547)">
			<stop  offset="0" style="stop-color:#0B3D1B"/>
			<stop  offset="1" style="stop-color:#2B6B36"/>
		</linearGradient>
		<path id="path647" fill="url(#path647_1_)" d="M89.441,372.26c0.482-3.182-4.11-3.337-6.167-3.257
			c-4.228,0.164-8.438,1.384-12.36,2.904c0.388,0.158,0.775,0.314,1.163,0.473c0.233,0.095,1.241-0.451,1.505-0.544
			c0.567-0.198,1.139-0.386,1.714-0.561c2.135-0.649,4.332-1.151,6.557-1.356C84.185,369.706,88.354,369.559,89.441,372.26"/>
		
			<linearGradient id="path663_1_" gradientUnits="userSpaceOnUse" x1="18.0361" y1="709.5361" x2="18.2788" y2="709.5361" gradientTransform="matrix(-4.3558 0 0 -4.3558 76.6626 3471.6714)">
			<stop  offset="0" style="stop-color:#FBDD2A"/>
			<stop  offset="1" style="stop-color:#A37F30"/>
		</linearGradient>
		<path id="path663" fill="url(#path663_1_)" d="M81.409,382.786c0.054,0.149,0.016,0.313-0.045,0.454
			c0.125-0.224,0.442-0.263,0.621-0.079c0.198-0.97-0.708-1.215-1.435-1.363c-0.95-0.194-1.899-0.389-2.849-0.583
			c-0.96-0.196-1.921-0.393-2.882-0.589c-0.52-0.106-0.5-0.129-0.677-0.692c-0.099-0.316-0.102-0.646-0.408-0.797
			c-0.177-0.087-0.354-0.175-0.53-0.261c0.217,0.688,0.436,1.375,0.653,2.063c0.081,0.257,1.149,0.313,1.387,0.362
			c1.132,0.229,2.265,0.461,3.396,0.692c0.542,0.11,1.083,0.222,1.625,0.333C80.591,382.392,81.271,382.406,81.409,382.786"/>
		
			<linearGradient id="path685_1_" gradientUnits="userSpaceOnUse" x1="29.3296" y1="801.9004" x2="29.5716" y2="801.9004" gradientTransform="matrix(2.6527 9.1073 -9.1073 2.6527 7284.9868 -2070.1082)">
			<stop  offset="0" style="stop-color:#FBDD2A"/>
			<stop  offset="1" style="stop-color:#D1BA34"/>
		</linearGradient>
		<path id="path685" fill="url(#path685_1_)" d="M76.493,399.596c0.276-0.901,0.277-2,0.433-2.932
			c0.139-0.833,0.401-1.709,0.533-2.5c0.132-0.792,0.289-1.534,0.533-2.267c0.099-0.297,0.204-0.664,0.3-0.966
			c0.083-0.259,0.267-0.607,0.267-0.866c0-0.513,0.414-1.173,0.567-1.634c0.171-0.515,0.361-0.982,0.533-1.499
			c0.276-0.828,0.728-1.746,1.133-2.5c0.209-0.388,0.291-0.836,0.533-1.199c0.125-0.188,0.62-0.355,0.667,0.033
			c0.021,0.18-0.228,0.495-0.3,0.634c-0.208,0.396-0.321,0.805-0.533,1.199c-0.092,0.171-0.224,0.388-0.3,0.566
			c-0.076,0.179-0.266,0.514-0.266,0.684c0,0.182-0.188,0.5-0.267,0.683c-0.089,0.208-0.225,0.442-0.3,0.666
			c-0.176,0.528-0.365,0.999-0.533,1.533c-0.37,1.18-0.84,2.404-1.133,3.666c-0.13,0.559-0.268,1.072-0.367,1.667
			c-0.093,0.557-0.367,1.153-0.367,1.78c0,0.572-0.241,1.272-0.333,1.851c-0.12,0.754-0.126,1.462-0.267,2.199
			c-0.21-0.125-0.322-0.374-0.533-0.5"/>
	</g>
</g>
</svg>
