<?xml version="1.0" encoding="UTF-8" standalone="no"?>
<!-- Created with Inkscape (http://www.inkscape.org/) -->

<svg
   xmlns:dc="http://purl.org/dc/elements/1.1/"
   xmlns:cc="http://creativecommons.org/ns#"
   xmlns:rdf="http://www.w3.org/1999/02/22-rdf-syntax-ns#"
   xmlns:svg="http://www.w3.org/2000/svg"
   xmlns="http://www.w3.org/2000/svg"
   xmlns:sodipodi="http://sodipodi.sourceforge.net/DTD/sodipodi-0.dtd"
   xmlns:inkscape="http://www.inkscape.org/namespaces/inkscape"
   width="405.88916"
   height="334.62491"
   id="svg2"
   version="1.1"
   inkscape:version="0.48.1 r9760"
   sodipodi:docname="lawnMower.svg"
   style="display:inline">
  <title
     id="title4061">lawn mower</title>
  <defs
     id="defs4" />
  <sodipodi:namedview
     id="base"
     pagecolor="#ffffff"
     bordercolor="#666666"
     borderopacity="1.0"
     inkscape:pageopacity="0.0"
     inkscape:pageshadow="2"
     inkscape:zoom="1.4"
     inkscape:cx="-61.732423"
     inkscape:cy="218.2978"
     inkscape:document-units="px"
     inkscape:current-layer="layer2"
     showgrid="false"
     inkscape:window-width="1920"
     inkscape:window-height="1152"
     inkscape:window-x="0"
     inkscape:window-y="0"
     inkscape:window-maximized="1"
     inkscape:object-paths="true"
     inkscape:snap-nodes="false"
     fit-margin-top="0"
     fit-margin-left="0"
     fit-margin-right="0"
     fit-margin-bottom="0" />
  <metadata
     id="metadata7">
    <rdf:RDF>
      <cc:Work
         rdf:about="">
        <dc:format>image/svg+xml</dc:format>
        <dc:type
           rdf:resource="http://purl.org/dc/dcmitype/StillImage" />
        <dc:title>lawn mower</dc:title>
        <dc:date>2011-05-29</dc:date>
        <dc:creator>
          <cc:Agent>
            <dc:title>tzunghaor (Prim András)</dc:title>
          </cc:Agent>
        </dc:creator>
        <cc:license
           rdf:resource="http://creativecommons.org/licenses/publicdomain/" />
        <dc:publisher>
          <cc:Agent>
            <dc:title>openclipart.org</dc:title>
          </cc:Agent>
        </dc:publisher>
        <dc:subject>
          <rdf:Bag>
            <rdf:li>lawn mower</rdf:li>
            <rdf:li>garden</rdf:li>
            <rdf:li>grass</rdf:li>
            <rdf:li>tool</rdf:li>
            <rdf:li></rdf:li>
          </rdf:Bag>
        </dc:subject>
      </cc:Work>
      <cc:License
         rdf:about="http://creativecommons.org/licenses/publicdomain/">
        <cc:permits
           rdf:resource="http://creativecommons.org/ns#Reproduction" />
        <cc:permits
           rdf:resource="http://creativecommons.org/ns#Distribution" />
        <cc:permits
           rdf:resource="http://creativecommons.org/ns#DerivativeWorks" />
      </cc:License>
    </rdf:RDF>
  </metadata>
  <g
     inkscape:groupmode="layer"
     id="layer2"
     inkscape:label="Réteg"
     transform="translate(-102.71082,-316.50302)">
    <path
       style="fill:#333333;fill-opacity:1;stroke:none"
       d="m 467.85714,455.21933 c 14.35047,-31.63201 29.27013,-58.84745 40.71429,-93.57143 0.53422,-4.13228 -6.55505,-7.60841 -10.71428,-7.85714 -57.45113,-3.43573 -115.81725,-3.78051 -162.14286,7.14285 -7.93661,1.87142 -12.2226,10.16402 -13.92858,16.78572 C 316.62227,397.76102 305,437.00504 305,437.00504 l 6.07143,2.5 c 0,0 13.66425,-37.70646 18.92857,-59.28571 1.23989,-5.08252 7.54517,-9.36305 12.5,-10.35715 45.69542,-9.16796 156.20104,-9.89576 152.85714,0.35716 -9.32941,28.60538 -21.95527,54.46661 -34.64285,82.49999 z"
       id="path3154"
       inkscape:connector-curvature="0"
       sodipodi:nodetypes="ccsssccssscc" />
    <path
       sodipodi:nodetypes="ccccc"
       style="fill:#000000;fill-opacity:1;stroke:none"
       d="m 291.54347,467.89879 9.09445,1.63778 5.19126,-14.49492 -9.28571,-1.78572 z"
       id="path3156"
       inkscape:connector-curvature="0" />
    <path
       inkscape:connector-curvature="0"
       id="path3145"
       d="m 443.57143,485.57646 9.09445,1.63778 5.19126,-14.49492 -9.28571,-1.78572 z"
       style="fill:#000000;fill-opacity:1;stroke:none"
       sodipodi:nodetypes="ccccc" />
    <path
       style="fill:#000000;fill-opacity:1;stroke:none"
       d="m 407.09147,569.00419 c 0,0 5.66599,-47.15539 18.18275,-68.1853 5.04313,-8.47314 19.37795,-32.42251 26.98742,-54.6464 14.34701,-41.90127 21.56152,-89.28213 15.439,-96.87649 -22.76211,-28.23406 -123.23862,-20.20304 -140.91629,4.04062 -10.10887,13.86357 -8.29074,63.93512 -20.70813,88.89343 -10.3437,20.7903 -13.80962,33.43702 -17.67767,51.0127 -4.72769,21.48171 -6.56599,65.65991 -6.56599,65.65991 l -8.5863,0 c 0,0 -0.95412,-46.63298 6.06092,-75.25636 3.08269,-12.57826 11.98797,-35.723 16.16244,-47.98225 9.07848,-26.66096 11.18562,-51.78449 18.18274,-82.32743 7.56046,-33.00191 54.59961,-34.21889 88.38835,-36.36549 34.11553,-2.16735 87.48588,2.33567 84.85282,31.8198 -2.42978,27.2078 -5.4796,58.15699 -20.7452,97.5475 -7.33666,18.93113 -27.30208,52.39918 -32.79289,64.58198 -9.2378,20.49647 -10.4577,42.94318 -15.15228,58.08378 z"
       id="path3108"
       inkscape:connector-curvature="0"
       sodipodi:nodetypes="csssssaccssssssscc" />
    <path
       sodipodi:nodetypes="ssccs"
       style="fill:#333333;fill-opacity:1;stroke:none"
       d="m 303.19047,427.99301 c -4.67977,2.26105 -7.95824,8.23341 -5.42344,14.61845 2.53481,6.38503 3.13052,26.60454 3.13052,26.60454 l 14.77721,-37.14974 c 0,0 -8.54289,-5.97754 -12.48429,-4.07325 z"
       id="path3158"
       inkscape:connector-curvature="0" />
    <path
       style="fill:#808080;fill-opacity:1;stroke:none"
       d="m 247.99245,515.4661 c -4.09553,11.46213 -3.57454,21.39132 -2.52538,31.56727 l 99.50002,1.01015 -2.77791,-51.51778 z"
       id="path3125"
       inkscape:connector-curvature="0"
       sodipodi:nodetypes="ccccc" />
    <path
       style="fill:#1a1a1a;fill-opacity:1;stroke:none"
       d="M 321.15625,500.75 248,515.46875 c -1.44771,4.0517 -2.30665,7.90903 -2.78125,11.65625 9.5857,12.11731 20.86161,3.22321 46.21875,-3.5625 l -1.46875,23.90625 36.21875,0.375 z"
       id="path3133"
       inkscape:connector-curvature="0"
       sodipodi:nodetypes="ccccccc" />
    <g
       id="g3063"
       transform="matrix(1.0059497,0.02629151,-0.03119503,0.84782539,-144.77929,68.851211)">
      <path
         style="fill:#000000;fill-opacity:1;stroke:none"
         d="m 286.97036,577.856 c -10.46047,0 -20.07402,16.90693 -21.46875,39.64102 -1.39473,22.73409 7.46101,38.12579 16.40625,39.38848 l 16.84214,2.52075 c 10.46047,0 20.07402,-18.42216 21.46875,-41.15625 1.39473,-22.73409 -5.94578,-41.15625 -16.40625,-41.15625 z"
         id="path3065"
         inkscape:connector-curvature="0"
         sodipodi:nodetypes="csccscc" />
      <path
         transform="matrix(0.97546012,0,-0.06375556,1.0392157,47.83254,-20.833321)"
         d="m 318.95568,614.96613 c 0,21.33936 -8.47989,38.63833 -18.94036,38.63833 -10.46047,0 -18.94036,-17.29897 -18.94036,-38.63833 0,-21.33937 8.47989,-38.63834 18.94036,-38.63834 10.46047,0 18.94036,17.29897 18.94036,38.63834 z"
         sodipodi:ry="38.638336"
         sodipodi:rx="18.940361"
         sodipodi:cy="614.96613"
         sodipodi:cx="300.01532"
         id="path3067"
         style="fill:#333333;fill-opacity:1;stroke:none"
         sodipodi:type="arc" />
      <path
         sodipodi:type="arc"
         style="fill:#e3dbdb;fill-opacity:1;stroke:none"
         id="path3069"
         sodipodi:cx="300.01532"
         sodipodi:cy="614.96613"
         sodipodi:rx="18.940361"
         sodipodi:ry="38.638336"
         d="m 318.95568,614.96613 c 0,21.33936 -8.47989,38.63833 -18.94036,38.63833 -10.46047,0 -18.94036,-17.29897 -18.94036,-38.63833 0,-21.33937 8.47989,-38.63834 18.94036,-38.63834 10.46047,0 18.94036,17.29897 18.94036,38.63834 z"
         transform="matrix(0.76073621,0,-0.04972132,0.81045755,103.62242,119.8452)" />
      <path
         transform="matrix(0.63803683,0,-0.04170175,0.6797386,135.50235,200.23293)"
         d="m 318.95568,614.96613 c 0,21.33936 -8.47989,38.63833 -18.94036,38.63833 -10.46047,0 -18.94036,-17.29897 -18.94036,-38.63833 0,-21.33937 8.47989,-38.63834 18.94036,-38.63834 10.46047,0 18.94036,17.29897 18.94036,38.63834 z"
         sodipodi:ry="38.638336"
         sodipodi:rx="18.940361"
         sodipodi:cy="614.96613"
         sodipodi:cx="300.01532"
         id="path3071"
         style="fill:#c8b7b7;fill-opacity:1;stroke:none"
         sodipodi:type="arc" />
      <path
         style="fill:#483737;fill-opacity:1;stroke:none"
         d="m 302.875,592 c -0.57417,0 -1.12434,0.0817 -1.6875,0.25 5.10357,2.8185 8.38188,13.16289 7.625,25.5 -0.81367,13.26276 -6.01397,24.21862 -12,26 0.89602,0.49426 1.84726,0.75 2.84375,0.75 6.67417,0 12.82886,-11.74481 13.71875,-26.25 0.88989,-14.50519 -3.82583,-26.25 -10.5,-26.25 z"
         id="path3073"
         inkscape:connector-curvature="0" />
    </g>
    <path
       style="fill:#501616;fill-opacity:1;stroke:none"
       d="m 130.89286,571.29076 c -11.40722,0.6984 -16.51452,-0.78051 -18.75,6.78571 -2.32143,7.85714 -4.82144,30.89285 -5.35715,44.64285 0,0 131.96428,6.25001 139.82143,8.39286 7.85714,2.14286 30.68365,-1.58176 36.39794,-1.58176 5.71428,0 59.34341,11.29697 88.95921,8.18891 14.38029,-1.50915 41.21665,-5.65199 41.42857,-12.85714 l 0.17857,-6.07144 17.14286,-1.42857 c 0,0 1.66838,-32.7805 -1.42858,-47.51794 -0.9615,-4.57548 -13.02302,-6.97698 -13.02302,-6.97698 l -19.95667,-1.05348 C 386.04157,561.27194 380,543.07647 370.71429,542.36218 c -9.28572,-0.71428 -136.42857,0.35715 -146.42857,1.78572 -22.23532,6.75568 -29.80476,23.58042 -49.64286,24.46428 z"
       id="path2997"
       inkscape:connector-curvature="0"
       sodipodi:nodetypes="sscssasccscssccs" />
    <path
       style="fill:#280b0b;fill-opacity:1;stroke:none"
       d="m 423.57143,571.29075 c 0,0 2.32143,-3.92857 0.71429,-4.46428 -1.60715,-0.53572 -11.42858,1.96428 -11.42858,1.96428 l -0.53571,9.28572 z"
       id="path3945"
       inkscape:connector-curvature="0"
       sodipodi:nodetypes="csccc" />
    <path
       style="fill:#280b0b;fill-opacity:1;stroke:none"
       d="m 261.07143,577.54075 -5.17857,16.78572 c 0,0 -0.71429,36.42857 0.35714,36.25 1.07143,-0.17857 16.96429,-1.42857 16.96429,-1.42857 l 3.21428,-52.67858 z"
       id="path3941"
       inkscape:connector-curvature="0" />
    <path
       style="font-size:medium;font-style:normal;font-variant:normal;font-weight:normal;font-stretch:normal;text-indent:0;text-align:start;text-decoration:none;line-height:normal;letter-spacing:normal;word-spacing:normal;text-transform:none;direction:ltr;block-progression:tb;writing-mode:lr-tb;text-anchor:start;baseline-shift:baseline;color:#000000;fill:#1a1a1a;fill-opacity:1;stroke:none;stroke-width:5;marker:none;visibility:visible;display:inline;overflow:visible;enable-background:accumulate;font-family:Sans;-inkscape-font-specification:Sans"
       d="m 447.84375,482.84375 -8.01807,15.20326 c -0.78751,6.16658 -1.34686,4.71075 -0.53106,11.00112 0.77175,5.95073 3.16249,13.18686 6.95257,17.9282 2.22313,3.68651 5.3866,6.87134 6.99054,10.88694 0.55571,4.88294 -4.63172,8.30018 -8.34505,10.44515 -6.43723,2.6403 -13.25198,4.26488 -20.22503,4.43462 -5.41847,0.35001 -10.57222,-2.10451 -15.55618,-3.927 -9.42016,-4.11711 -17.98741,-10.03558 -27.56576,-13.7724 -6.4852,-2.46726 -13.38101,-0.22877 -19.96853,0.52158 -3.52711,1.42319 -13.34315,-0.33517 -10.57348,5.87571 4.13958,2.00146 9.28367,-1.33216 13.85838,-1.37951 5.66419,-0.8282 11.79494,-2.27198 17.10665,0.6827 10.34441,4.74429 19.90157,11.11429 30.43301,15.45387 9.2283,3.04799 19.18139,2.35128 28.64673,1.00425 5.59857,-1.06757 10.7899,-4.45416 14.27657,-8.90726 2.87601,-3.37847 4.44225,-8.12273 2.27765,-12.30046 -2.63924,-6.79149 -8.14552,-12.03457 -11.03925,-18.67203 -1.11694,-5.26466 -1.92886,-10.75231 -1.52307,-16.13785 0.98657,-5.52437 3.15712,-10.74793 5.52214,-15.80962 0.52361,-1.89718 -1.06427,-2.6863 -2.71876,-2.53127 z"
       id="path3162"
       inkscape:connector-curvature="0"
       sodipodi:nodetypes="ccscccccccccccccccccc" />
    <g
       id="g3036"
       transform="matrix(0.77915233,-0.02968838,0.02968838,0.77915233,183.90866,126.96732)">
      <path
         style="fill:#000000;fill-opacity:1;stroke:none"
         d="m 278.8125,578.10898 c -10.46047,0 -20.07402,16.90693 -21.46875,39.64102 -1.39473,22.73409 7.46101,38.12579 16.40625,39.38848 l 25,2.26777 c 10.46047,0 20.07402,-18.42216 21.46875,-41.15625 1.39473,-22.73409 -5.94578,-41.15625 -16.40625,-41.15625 z"
         id="path3038"
         inkscape:connector-curvature="0"
         sodipodi:nodetypes="csccscc" />
      <path
         transform="matrix(0.97546012,0,-0.06375556,1.0392157,47.83254,-20.833321)"
         d="m 318.95568,614.96613 c 0,21.33936 -8.47989,38.63833 -18.94036,38.63833 -10.46047,0 -18.94036,-17.29897 -18.94036,-38.63833 0,-21.33937 8.47989,-38.63834 18.94036,-38.63834 10.46047,0 18.94036,17.29897 18.94036,38.63834 z"
         sodipodi:ry="38.638336"
         sodipodi:rx="18.940361"
         sodipodi:cy="614.96613"
         sodipodi:cx="300.01532"
         id="path3040"
         style="fill:#333333;fill-opacity:1;stroke:none"
         sodipodi:type="arc" />
      <path
         sodipodi:type="arc"
         style="fill:#e3dbdb;fill-opacity:1;stroke:none"
         id="path3042"
         sodipodi:cx="300.01532"
         sodipodi:cy="614.96613"
         sodipodi:rx="18.940361"
         sodipodi:ry="38.638336"
         d="m 318.95568,614.96613 c 0,21.33936 -8.47989,38.63833 -18.94036,38.63833 -10.46047,0 -18.94036,-17.29897 -18.94036,-38.63833 0,-21.33937 8.47989,-38.63834 18.94036,-38.63834 10.46047,0 18.94036,17.29897 18.94036,38.63834 z"
         transform="matrix(0.76073621,0,-0.04972132,0.81045755,103.62242,119.8452)" />
      <path
         transform="matrix(0.63803683,0,-0.04170175,0.6797386,135.50235,200.23293)"
         d="m 318.95568,614.96613 c 0,21.33936 -8.47989,38.63833 -18.94036,38.63833 -10.46047,0 -18.94036,-17.29897 -18.94036,-38.63833 0,-21.33937 8.47989,-38.63834 18.94036,-38.63834 10.46047,0 18.94036,17.29897 18.94036,38.63834 z"
         sodipodi:ry="38.638336"
         sodipodi:rx="18.940361"
         sodipodi:cy="614.96613"
         sodipodi:cx="300.01532"
         id="path3044"
         style="fill:#c8b7b7;fill-opacity:1;stroke:none"
         sodipodi:type="arc" />
      <path
         style="fill:#483737;fill-opacity:1;stroke:none"
         d="m 302.875,592 c -0.57417,0 -1.12434,0.0817 -1.6875,0.25 5.10357,2.8185 8.38188,13.16289 7.625,25.5 -0.81367,13.26276 -6.01397,24.21862 -12,26 0.89602,0.49426 1.84726,0.75 2.84375,0.75 6.67417,0 12.82886,-11.74481 13.71875,-26.25 0.88989,-14.50519 -3.82583,-26.25 -10.5,-26.25 z"
         id="path3046"
         inkscape:connector-curvature="0" />
    </g>
    <path
       style="fill:#501616;fill-opacity:1;stroke:none"
       d="m 371.96875,637.71875 c 14.42718,-0.96272 41.22558,-5.6386 41.4375,-12.84375 l 0,-62.15625 z"
       id="path3048"
       inkscape:connector-curvature="0"
       sodipodi:nodetypes="cccc" />
    <path
       style="fill:#782121;fill-opacity:1;stroke:none"
       d="m 116.38152,573.6032 c 0,0 -7.11735,7.65272 -1.15065,5.56636 10.5309,-3.68232 113.63972,-2.31263 133.34056,-1.08566 9.94447,0.61934 2.3485,16.09217 7.18618,16.29859 3.33911,0.14247 4.1483,-16.74239 9.70414,-16.74239 6.45048,0 68.03121,3.45922 73.03046,3.37273 14.59645,-0.25254 64.92385,0.62456 71.40319,-7.38796 2.21173,-2.73508 -3.10969,-5.19126 -3.10969,-5.19126 0,0 -6.49803,1.1146 -8.21429,3.57143 -2.48691,3.56 -93.7139,3.14844 -103.36221,1.41063 -7.76461,-1.39852 -177.82326,-2.21066 -178.82769,0.18753 z"
       id="path3087"
       inkscape:connector-curvature="0"
       sodipodi:nodetypes="ssssssscsss" />
    <g
       transform="matrix(0.99951952,0.03099563,-0.03099563,0.99951952,19.30181,-17.225706)"
       id="g3056">
      <path
         sodipodi:nodetypes="csccscc"
         inkscape:connector-curvature="0"
         id="path2999"
         d="m 278.8125,578.10898 c -10.46047,0 -20.07402,16.90693 -21.46875,39.64102 -1.39473,22.73409 7.46101,38.12579 16.40625,39.38848 l 25,2.26777 c 10.46047,0 20.07402,-18.42216 21.46875,-41.15625 1.39473,-22.73409 -5.94578,-41.15625 -16.40625,-41.15625 z"
         style="fill:#000000;fill-opacity:1;stroke:none" />
      <path
         sodipodi:type="arc"
         style="fill:#333333;fill-opacity:1;stroke:none"
         id="path3017"
         sodipodi:cx="300.01532"
         sodipodi:cy="614.96613"
         sodipodi:rx="18.940361"
         sodipodi:ry="38.638336"
         d="m 318.95568,614.96613 c 0,21.33936 -8.47989,38.63833 -18.94036,38.63833 -10.46047,0 -18.94036,-17.29897 -18.94036,-38.63833 0,-21.33937 8.47989,-38.63834 18.94036,-38.63834 10.46047,0 18.94036,17.29897 18.94036,38.63834 z"
         transform="matrix(0.97546012,0,-0.06375556,1.0392157,47.83254,-20.833321)" />
      <path
         transform="matrix(0.76073621,0,-0.04972132,0.81045755,103.62242,119.8452)"
         d="m 318.95568,614.96613 c 0,21.33936 -8.47989,38.63833 -18.94036,38.63833 -10.46047,0 -18.94036,-17.29897 -18.94036,-38.63833 0,-21.33937 8.47989,-38.63834 18.94036,-38.63834 10.46047,0 18.94036,17.29897 18.94036,38.63834 z"
         sodipodi:ry="38.638336"
         sodipodi:rx="18.940361"
         sodipodi:cy="614.96613"
         sodipodi:cx="300.01532"
         id="path3003"
         style="fill:#e3dbdb;fill-opacity:1;stroke:none"
         sodipodi:type="arc" />
      <path
         sodipodi:type="arc"
         style="fill:#c8b7b7;fill-opacity:1;stroke:none"
         id="path3006"
         sodipodi:cx="300.01532"
         sodipodi:cy="614.96613"
         sodipodi:rx="18.940361"
         sodipodi:ry="38.638336"
         d="m 318.95568,614.96613 c 0,21.33936 -8.47989,38.63833 -18.94036,38.63833 -10.46047,0 -18.94036,-17.29897 -18.94036,-38.63833 0,-21.33937 8.47989,-38.63834 18.94036,-38.63834 10.46047,0 18.94036,17.29897 18.94036,38.63834 z"
         transform="matrix(0.63803683,0,-0.04170175,0.6797386,135.50235,200.23293)" />
      <path
         inkscape:connector-curvature="0"
         id="path3010"
         d="m 302.875,592 c -0.57417,0 -1.12434,0.0817 -1.6875,0.25 5.10357,2.8185 8.38188,13.16289 7.625,25.5 -0.81367,13.26276 -6.01397,24.21862 -12,26 0.89602,0.49426 1.84726,0.75 2.84375,0.75 6.67417,0 12.82886,-11.74481 13.71875,-26.25 0.88989,-14.50519 -3.82583,-26.25 -10.5,-26.25 z"
         style="fill:#483737;fill-opacity:1;stroke:none" />
    </g>
    <path
       style="fill:#4d4d4d;fill-opacity:1;stroke:none"
       d="m 327.28943,337.42673 c 3.37683,-5.7099 15.22184,-15.08707 61.36677,-18.43529 52.01709,-3.7743 81.31727,5.3033 87.37819,12.12183 2.96828,3.33932 -1.01015,3.78807 -1.01015,3.78807 0,0 -28.42801,-14.94237 -76.01399,-13.63706 -19.59859,0.5376 -41.18923,4.28705 -54.07064,8.16605 -2.74643,0.82703 -17.95915,8.51885 -17.65018,7.9964 z"
       id="path3110"
       inkscape:connector-curvature="0"
       sodipodi:nodetypes="ssscsss" />
    <path
       style="fill:#782121;fill-opacity:1;stroke:none"
       d="m 221.47595,483.58538 c -5.30331,5.3033 -13.06851,17.14859 -9.84899,25.75889 4.00959,10.72329 18.96351,14.59848 30.30457,16.16244 19.46478,2.68425 38.1515,-9.68299 57.5787,-12.6269 23.55548,-3.56949 54.27613,10.69173 71.21575,-6.06092 8.11756,-8.02796 10.40375,-25.16864 3.283,-34.09265 -10.20691,-12.7917 -46.40064,-11.83045 -69.95306,-10.6066 -28.4031,1.47591 -76.07987,14.96565 -82.57997,21.46574 z"
       id="path3127"
       inkscape:connector-curvature="0"
       sodipodi:nodetypes="saaaasas" />
    <path
       transform="matrix(0.95781971,0.2873698,-0.2873698,0.95781971,-4.1630557,-130.73846)"
       d="m 460.37703,454.73068 c 0,1.74341 -0.62186,3.15673 -1.38896,3.15673 -0.7671,0 -1.38896,-1.41332 -1.38896,-3.15673 0,-1.74341 0.62186,-3.15672 1.38896,-3.15672 0.7671,0 1.38896,1.41331 1.38896,3.15672 z"
       sodipodi:ry="3.1567266"
       sodipodi:rx="1.3889598"
       sodipodi:cy="454.73068"
       sodipodi:cx="458.98807"
       id="path3160"
       style="fill:#000000;fill-opacity:1;stroke:none"
       sodipodi:type="arc" />
    <path
       style="fill:#501616;fill-opacity:1;stroke:none"
       d="m 217.43533,514.64757 c 30.29977,8.87676 61.96225,-0.48903 82.83252,-8.08122 l -3.78808,4.79823 c 0,0 -37.87163,13.87706 -48.23479,14.14213 -10.35355,0.26484 -22.47589,-4.79822 -30.80965,-10.85914 z"
       id="path3129"
       inkscape:connector-curvature="0"
       sodipodi:nodetypes="cccsc" />
    <path
       style="fill:#a02c2c;fill-opacity:1;stroke:none"
       d="m 225.01148,483.08031 c -5.88266,3.76317 48.16216,2.58183 71.72083,-1.51523 17.49291,-3.04217 45.25751,-14.77051 50.50763,-16.92006 4.75961,-1.94872 -37.50566,-2.79542 -53.53809,-0.25254 -5.33199,0.84571 -42.73385,7.99119 -49.49747,10.85915 -7.11313,3.01615 -8.80935,1.18626 -19.1929,7.82868 z"
       id="path3131"
       inkscape:connector-curvature="0"
       sodipodi:nodetypes="sassss" />
    <path
       inkscape:connector-curvature="0"
       id="path3143"
       d="m 458.08624,445.91351 c -4.84438,1.88268 -8.5863,7.57615 -6.566,14.14214 2.02031,6.56599 1.01016,26.76904 1.01016,26.76904 l 17.67767,-35.86041 c 0,0 -8.04178,-6.6364 -12.12183,-5.05077 z"
       style="fill:#333333;fill-opacity:1;stroke:none"
       sodipodi:nodetypes="ssccs" />
    <path
       style="fill:#2b0000;fill-opacity:1;stroke:none"
       d="m 281.21937,543.01148 1.11475,4.68618 c 0,0 13.02302,4.30738 17.66588,8.59309 4.64286,4.28572 11.07143,12.5 14.28571,13.21429 3.21429,0.71428 37.70178,0.50508 49.84464,-0.20921 12.14286,-0.71428 24.44108,-1.93365 23.72679,-5.14793 -0.71428,-3.21429 -16.07143,-20 -16.07143,-20 z"
       id="path3939"
       inkscape:connector-curvature="0"
       sodipodi:nodetypes="ccsssscc" />
    <path
       style="fill:#4d4d4d;fill-opacity:1;stroke:none"
       d="m 297.85714,510.57646 c -0.73565,11.05274 -1.78571,25.92795 -1.78571,30.00001 0,7.5 14.38815,14.56478 23.57143,14.28571 13.32656,-0.40498 36.42857,1.42857 41.42857,-1.07143 5,-2.5 8.57143,-13.21428 8.57143,-13.21428 0,0 12.20768,-30.18983 5.71428,-39.64286 -13.35226,-19.43809 -53.92857,-7.5 -62.85714,-3.57143 -8.23109,3.62168 -14.1011,5.0747 -14.64286,13.21428 z"
       id="path3112"
       inkscape:connector-curvature="0"
       sodipodi:nodetypes="sssscsss" />
    <path
       style="fill:#1a1a1a;fill-opacity:1;stroke:none"
       d="m 297.5,541.29076 c -0.17627,-2.55067 11.18979,-1.60614 11.25,0.17856 0.19713,5.84279 5.21905,9.87381 12.85714,12.67858 l -7.5,0 C 305.64823,551.32378 297.93573,547.5957 297.5,541.29076 z"
       id="path3114"
       inkscape:connector-curvature="0"
       sodipodi:nodetypes="ssccs" />
    <path
       style="fill:#808080;fill-opacity:1;stroke:none"
       d="m 299.82143,508.07647 c -0.26948,2.21699 10.12234,2.57659 10.71428,0.35714 0.7022,-2.63283 4.23226,-5.62866 9.97263,-7.83432 6.82933,-2.62409 24.05032,-7.82925 26.0988,-8.59425 1.34871,-0.50368 -7.3,-1.38149 -11.07142,-0.62499 -11.38621,2.28393 -21.68282,5.72992 -27.94611,8.52388 -4.22323,1.88392 -7.27355,4.1033 -7.76818,8.17254 z"
       id="path3116"
       inkscape:connector-curvature="0"
       sodipodi:nodetypes="sssssss" />
    <path
       sodipodi:type="arc"
       style="fill:#000000;fill-opacity:1;stroke:none"
       id="path3118"
       sodipodi:cx="324.25897"
       sodipodi:cy="521.65326"
       sodipodi:rx="4.0406103"
       sodipodi:ry="7.9549513"
       d="m 328.29958,521.65326 c 0,4.3934 -1.80904,7.95495 -4.04061,7.95495 -2.23157,0 -4.04061,-3.56155 -4.04061,-7.95495 0,-4.3934 1.80904,-7.95495 4.04061,-7.95495 2.23157,0 4.04061,3.56155 4.04061,7.95495 z" />
    <path
       style="fill:#333333;fill-opacity:1;stroke:none"
       d="m 323.1875,514 c -1.71018,0.92613 -2.96875,3.99508 -2.96875,7.65625 0,3.66117 1.25857,6.73012 2.96875,7.65625 1.71018,-0.92613 2.96875,-3.99508 2.96875,-7.65625 0,-3.66117 -1.25857,-6.73012 -2.96875,-7.65625 z"
       id="path3120"
       inkscape:connector-curvature="0" />
    <path
       sodipodi:type="arc"
       style="fill:#000000;fill-opacity:1;stroke:none"
       id="path3152"
       sodipodi:cx="458.98807"
       sodipodi:cy="454.73068"
       sodipodi:rx="1.3889598"
       sodipodi:ry="3.1567266"
       d="m 460.37703,454.73068 c 0,1.74341 -0.62186,3.15673 -1.38896,3.15673 -0.7671,0 -1.38896,-1.41332 -1.38896,-3.15673 0,-1.74341 0.62186,-3.15672 1.38896,-3.15672 0.7671,0 1.38896,1.41331 1.38896,3.15672 z"
       transform="matrix(0.93200467,0.36244627,-0.36244627,0.93200467,196.02448,-135.43895)" />
    <path
       style="fill:#782121;fill-opacity:1;stroke:none"
       d="m 218.70437,547.07036 c 1.20316,-1.29153 62.12748,-1.66581 61.98542,-0.52937 0,0 1.75034,-2.24369 0.13262,-2.99983 -1.49585,-0.69917 -54.8263,0.61952 -56.18974,1.09309 -2.39404,0.83155 -5.9283,2.43611 -5.9283,2.43611 z"
       id="path3937"
       inkscape:connector-curvature="0"
       sodipodi:nodetypes="ccssc" />
    <path
       style="fill:#2b0000;fill-opacity:1;stroke:none"
       d="m 413.40625,572.63004 c 0,0 0.96876,0.89285 -3.40624,3.125 -1.71318,0.87407 -4.82144,2.32142 -4.46429,5.17857 0.35714,2.85714 -0.53572,45 -0.17858,46.96429 0.35715,1.96428 1.08578,2.3773 2.85715,1.60714 2.05357,-0.89286 3.73531,-1.89168 5.16388,-4.30239 z"
       id="path3947"
       inkscape:connector-curvature="0"
       sodipodi:nodetypes="csssscc" />
  </g>
</svg>
