<svg xmlns="http://www.w3.org/2000/svg" xmlns:xlink="http://www.w3.org/1999/xlink" version="1.1" x="0px" y="0px" width="100px" height="100px" viewBox="0 0 100 100" enable-background="new 0 0 100 100" xml:space="preserve">
<g id="Captions">
</g>
<g id="Your_Icon">
	<path d="M89.479,76.539l-1.063-2.028c0,0-1.304-0.725,0.29-2.319c-0.628-1.208-1.257-2.56-1.257-2.56l-1.11-0.387l-3.912-3.96   c0,0,0.193-0.918-0.097-1.354c-0.387-0.725-0.967-1.206-0.967-1.206l-0.965-1.063l-1.306-0.579l-0.628,0.24l-0.965,0.049   c0,0-1.594-0.386-2.174,1.063c-0.29,0.579-0.436,0.917-0.436,0.917s-0.519,0.862-1.581,1.152L58.544,42.514   c0.601-0.491,0.745-0.851,0.745-0.851c1.666-1.159,3.332-2.68,5.217-6.521c0.289-0.942,0.145-1.231,0.289-2.825   c0.271-1.028,0.811-3.741,3.744-5.337c0.213,0.137,0.96,0.582,1.449,0.41c0.748-0.459,2.367-1.304,2.464-1.399   c-0.763-1.842-4.705-9.699-8.162-16.044c-0.999,2.153-2.491,4.437-3.671,5.984c-3.958,5.249-13.273,12.073-13.668,12.361   c-12.084,8.009-17.729,9.947-22.264,11.504l-0.278,0.096c-3.124,1.042-6.125,1.386-8.446,1.458   c4.66,5.328,11.229,12.63,11.229,12.63l1.738,2.392c0,0,0.942,1.738,3.623,2.318c1.667,0.507,3.405,0.724,3.405,0.724   s1.063-0.747,1.666-1.206c-0.289-0.555-0.192-2.173,0.75-2.342c1.643-0.773,3.888-0.241,4.758-2.755   c0.507-1.956,0.434-3.333,3.188-5.651c0.169-0.104,0.347-0.222,0.532-0.342l15.843,26.425c0,0,0.266-0.628-0.604,3.044   c-0.241,1.062-0.58,1.787-0.58,1.787s0.097,0.678-1.594,1.692c-0.821,0.725-2.416,1.061-0.483,3.959   c0.918,1.692,9.082,12.561,9.082,12.561L71.896,99l0.918-1.11l1.062-0.435l3.188-4.251c0,0,4.733-1.4,7.004-5.265   c1.014-1.788,2.753-4.733,3.092-7.68c0.628-0.87,1.979-2.513,1.979-2.513l-0.386-0.676L89.479,76.539z M62.029,31.324l0.013-0.003   c0,0,2.047-0.87,2.228,1.63c0.035,0.51-0.469,2.442-2.279,2.002c-0.419,1.655-1.141,2.626-2.242,3.692   c-2.393,2.101-4.661,1.206-4.661,1.206c6.473-0.846,6.327-6.979,6.254-8.017c-0.532-3.745-3.743-4.903-4.153-5.193   C60.353,27.059,61.575,29.451,62.029,31.324z M52.518,30.53c1.675-1.116,2.146-1.477,2.839-2.017   c2.729-0.434,4.692,1.995,4.692,4.79c0,2.797-1.858,5.063-4.147,5.063c-2.292,0-4.148-2.267-4.148-5.063   C51.753,32.267,52.077,31.334,52.518,30.53z M69.771,70.309c-2.994,3.042-3.912,0.144-3.912,0.144L51.119,45.887   c0.118-0.006,0.219-0.019,0.345-0.021c2.066-0.305,3.73-0.775,5.71-2.241c3.136,4.746,12.857,19.477,14.191,21.659   C72.959,67.312,71.751,68.327,69.771,70.309z M85.784,80.402c-0.362,3.334-2.488,6.449-3.72,7.874   c-1.231,1.424-3.381,2.705-5.265,2.874c-4.95-0.169-4.807-5.362-4.807-5.362c0.073,1.28,1.377,3.115,2.078,3.646   c1.859,0.845,3.694-0.047,4.201-0.362c1.907-1.062,3.261-2.512,3.551-3.066c2.029-2.682,2.149-4.202,2.342-5.435   c0.869-5.096-0.893-6.447-1.545-6.955c-2.939-1.263-4.646-0.045-5.556,0.493c0.453,7.479-5.022,10.567-5.022,10.567   c0.47-7.232,4.442-10.095,4.976-10.539c-0.031,0.019-0.069,0.043-0.098,0.058c3.09-2.56,4.541-1.933,5.628-1.787   C85.881,72.987,86.025,77.842,85.784,80.402z"/>
	<path d="M45.197,24.881c4.301-2.932,12.064-8.229,17.287-18.181c-0.673-1.184-1.293-2.231-1.827-3.08   c0.035-0.452-0.038-0.848-0.244-1.167c-1.632-3.755-14.287,1.39-27.805,9.896c-0.286,0.182-3.916,1.577-4.909,2.252   c-2.355,1.702-3.551,2.646-5.182,3.84c-0.869,0.761-1.79,2.359-2.805,3.21c-6.89,5.772-10.784,10.819-9.454,12.896   c0.187,0.292,0.5,0.492,0.872,0.649c0.327,0.592,0.784,1.31,1.425,2.191c0.143,0.172,0.301,0.359,0.466,0.555   C15.89,38.146,26.238,37.72,45.197,24.881z M52.027,6.268c3.391-1.672,6.682-1.992,7.151-1.703   c0.685,0.421-2.687,1.826-6.078,3.498c-3.391,1.671-6.444,2.406-6.822,1.641C45.899,8.936,48.637,7.938,52.027,6.268z    M39.543,9.277c2.91-1.436,5.411-2.308,5.587-1.95c0.176,0.356-2.041,1.808-4.949,3.242c-2.91,1.435-5.411,2.31-5.587,1.953   C34.417,12.165,36.633,10.712,39.543,9.277z M27.77,22.26c2.905-2.696,5.99-4.092,6.894-3.119c0.903,0.974-0.718,3.945-3.623,6.643   c-2.903,2.696-5.991,4.092-6.894,3.119C23.242,27.929,24.866,24.955,27.77,22.26z M24.542,19.936   c0.708,0.708-0.588,3.155-2.896,5.467c-2.309,2.31-4.755,3.608-5.463,2.9c-0.71-0.708,0.589-3.156,2.896-5.467   C21.388,20.525,23.833,19.227,24.542,19.936z"/>
	<path d="M24.311,38.701c4.473-1.535,10.039-3.447,21.979-11.36c3.272-2.389,10.319-8.017,13.406-12.11   c1.294-1.698,2.976-4.298,3.893-6.564c-0.146-0.264-0.292-0.524-0.435-0.78c-5.342,9.779-13.011,14.948-17.305,17.877   C28.463,37.534,18.248,39,14.086,39c-0.011,0-0.018,0-0.028,0c0.284,0,0.583,0.753,0.897,1.115   c2.335,0.001,5.655-0.217,9.082-1.358L24.311,38.701z"/>
</g>
</svg>