<?xml version="1.0" encoding="UTF-8" standalone="no"?>
<!-- Created with Inkscape (http://www.inkscape.org/) -->
<svg
   xmlns:dc="http://purl.org/dc/elements/1.1/"
   xmlns:cc="http://web.resource.org/cc/"
   xmlns:rdf="http://www.w3.org/1999/02/22-rdf-syntax-ns#"
   xmlns:svg="http://www.w3.org/2000/svg"
   xmlns="http://www.w3.org/2000/svg"
   xmlns:sodipodi="http://sodipodi.sourceforge.net/DTD/sodipodi-0.dtd"
   xmlns:inkscape="http://www.inkscape.org/namespaces/inkscape"
   xml:space="preserve"
   id="svg2"
   height="164.069"
   width="146.597"
   y="0.0000000"
   x="0.0000000"
   version="1.0"
   sodipodi:version="0.32"
   inkscape:version="0.44.1"
   sodipodi:docname="Map_of_USA_OH.svg"
   sodipodi:docbase="C:\Users\Blast\Desktop"><metadata
   id="metadata212"><rdf:RDF><cc:Work
       rdf:about=""><dc:format>image/svg+xml</dc:format><dc:type
         rdf:resource="http://purl.org/dc/dcmitype/StillImage" /></cc:Work></rdf:RDF></metadata><sodipodi:namedview
   inkscape:window-height="850"
   inkscape:window-width="1440"
   inkscape:pageshadow="2"
   inkscape:pageopacity="0.0"
   guidetolerance="10.0"
   gridtolerance="10.0"
   objecttolerance="10.0"
   borderopacity="1.0"
   bordercolor="#666666"
   pagecolor="#ffffff"
   id="base"
   inkscape:zoom="2.8284271"
   inkscape:cx="161.1672"
   inkscape:cy="86.323986"
   inkscape:window-x="-8"
   inkscape:window-y="-8"
   inkscape:current-layer="svg2" /><defs
   id="defs4">
<pattern
   id="pattern3809"
   height="300"
   width="480"
   patternUnits="userSpaceOnUse"><path
     style="fill:#ffffff;fill-opacity:1;fill-rule:evenodd;stroke:none;stroke-width:1px;stroke-linecap:butt;stroke-linejoin:miter;stroke-opacity:1"
     d="M 0,38 L 0,129 L 480,129 L 480,94 L 0,38 z M 0,171 L 0,262 L 480,206 L 480,171 L 0,171 z "
     id="path3805" /><path
     style="fill:#ff0000;fill-opacity:1;fill-rule:evenodd;stroke:none;stroke-width:1px;stroke-linecap:butt;stroke-linejoin:miter;stroke-opacity:1"
     d="M 0,0 L 0,38 L 480,94 L 480,56 L 0,0 z M 0,129 L 0,171 L 480,171 L 480,129 L 0,129 z M 480,206 L 0,262 L 0,300 L 480,244 L 480,206 z "
     id="path3803" /></pattern><pattern
   id="pattern2827"
   height="300"
   width="480"
   patternUnits="userSpaceOnUse"><path
     style="fill:#ff0000;fill-opacity:1;fill-rule:evenodd;stroke:none;stroke-width:1px;stroke-linecap:butt;stroke-linejoin:miter;stroke-opacity:1"
     d="M 0,0 L 0,38 L 480,94 L 480,56 L 0,0 z M 0,131 L 0,169 L 480,169 L 480,131 L 0,131 z M 480,206 L 0,262 L 0,300 L 480,244 L 480,206 z "
     id="path1884" /><path
     style="fill:#ffffff;fill-opacity:1;fill-rule:evenodd;stroke:none;stroke-width:1px;stroke-linecap:butt;stroke-linejoin:miter;stroke-opacity:1"
     d="M 0,38 L 0,131 L 480,131 L 480,94 L 0,38 z M 0,169 L 0,262 L 480,206 L 480,169 L 0,169 z "
     id="path1882" /></pattern></defs>





















































































































































































































































































































































































<g
   id="g5793"
   transform="matrix(0.716228,8.279424e-2,-8.279449e-2,0.716226,-809.42,305.075)"><path
     style="fill:#00c;fill-opacity:1;stroke:none;stroke-width:0.25;stroke-opacity:1"
     d="M 1079.5001,-524.99992 L 1075.0001,-514.99992 L 1092.0001,-373.49992 L 1096.0001,-365.99992 L 1111.0001,-369.99992 L 1120.0001,-360.49992 L 1122.5001,-352.99992 L 1137.5001,-352.49992 L 1143.5001,-347.49992 L 1154.5001,-351.49992 L 1166.0001,-350.49992 L 1167.5001,-346.49992 L 1177.5001,-356.49992 L 1186.2501,-359.53117 L 1270.3978,-442.16023 L 1271.0001,-471.49992 L 1267.0001,-479.49992 L 1270.0001,-486.99992 L 1269.4376,-511.43742 L 1184.3751,-524.39055 L 1174.5001,-515.49992 C 1174.5001,-515.49992 1164.3537,-526.50598 1164.3537,-526.50598 C 1164.3537,-526.50598 1156.5001,-525.49992 1156.5001,-525.49992 L 1143.0001,-530.99992 L 1114.0001,-529.49992 L 1079.5001,-524.99992 z "
     id="path4006"
     sodipodi:nodetypes="cccccccccccccccccccccscccc" /><path
     transform="matrix(0.862607,-0.278505,0.278505,0.862607,1030.82,-547.8244)"
     d="M 158 150 A 54 54 0 1 1  50,150 A 54 54 0 1 1  158 150 z"
     sodipodi:ry="54"
     sodipodi:rx="54"
     sodipodi:cy="150"
     sodipodi:cx="104"
     id="path2842"
     style="fill:white;fill-opacity:1;fill-rule:evenodd;stroke:none;stroke-width:2;stroke-linecap:butt;stroke-linejoin:miter;stroke-miterlimit:4;stroke-dasharray:none;stroke-dashoffset:0;stroke-opacity:1"
     sodipodi:type="arc" /><path
     transform="matrix(0.862607,-0.278505,0.278505,0.862607,1030.82,-547.8244)"
     d="M 142 150 A 38 38 0 1 1  66,150 A 38 38 0 1 1  142 150 z"
     sodipodi:ry="38"
     sodipodi:rx="38"
     sodipodi:cy="150"
     sodipodi:cx="104"
     id="path2850"
     style="fill:red;fill-opacity:1;fill-rule:evenodd;stroke:none;stroke-width:2;stroke-linecap:butt;stroke-linejoin:miter;stroke-miterlimit:4;stroke-dasharray:none;stroke-dashoffset:0;stroke-opacity:1"
     sodipodi:type="arc" /><path
     transform="matrix(0.862607,-0.278505,0.278505,0.862607,1030.82,-547.8244)"
     d="M 19.489588,150 L 27.788248,147.30325 L 27.788579,138.57742 L 32.917763,145.63657 L 41.216628,142.94046 L 36.087977,150 L 41.216627,157.05954 L 32.917763,154.36343 L 27.788578,161.42258 L 27.788248,152.69675 L 19.489588,150 z "
     inkscape:randomized="0"
     inkscape:rounded="0"
     inkscape:flatsided="false"
     sodipodi:arg2="3.7699112"
     sodipodi:arg1="3.1415927"
     sodipodi:r2="4.5879774"
     sodipodi:r1="12.010412"
     sodipodi:cy="150"
     sodipodi:cx="31.5"
     sodipodi:sides="5"
     id="path2868"
     style="fill:white;fill-opacity:1;fill-rule:evenodd;stroke:none;stroke-width:2;stroke-linecap:butt;stroke-linejoin:miter;stroke-miterlimit:4;stroke-dasharray:none;stroke-dashoffset:0;stroke-opacity:1"
     sodipodi:type="star" /><path
     transform="matrix(0.886295,0.190096,-0.190096,0.886295,1098.647,-600.1121)"
     sodipodi:type="star"
     style="fill:white;fill-opacity:1;fill-rule:evenodd;stroke:none;stroke-width:2;stroke-linecap:butt;stroke-linejoin:miter;stroke-miterlimit:4;stroke-dasharray:none;stroke-dashoffset:0;stroke-opacity:1"
     id="path2870"
     sodipodi:sides="5"
     sodipodi:cx="31.5"
     sodipodi:cy="150"
     sodipodi:r1="12.010412"
     sodipodi:r2="4.5879774"
     sodipodi:arg1="3.1415927"
     sodipodi:arg2="3.7699112"
     inkscape:flatsided="false"
     inkscape:rounded="0"
     inkscape:randomized="0"
     d="M 19.489588,150 L 27.788248,147.30325 L 27.788579,138.57742 L 32.917763,145.63657 L 41.216628,142.94046 L 36.087977,150 L 41.216627,157.05954 L 32.917763,154.36343 L 27.788578,161.42258 L 27.788248,152.69675 L 19.489588,150 z " /><path
     d="M 19.489588,150 L 27.788248,147.30325 L 27.788579,138.57742 L 32.917763,145.63657 L 41.216628,142.94046 L 36.087977,150 L 41.216627,157.05954 L 32.917763,154.36343 L 27.788578,161.42258 L 27.788248,152.69675 L 19.489588,150 z "
     inkscape:randomized="0"
     inkscape:rounded="0"
     inkscape:flatsided="false"
     sodipodi:arg2="3.7699112"
     sodipodi:arg1="3.1415927"
     sodipodi:r2="4.5879774"
     sodipodi:r1="12.010412"
     sodipodi:cy="150"
     sodipodi:cx="31.5"
     sodipodi:sides="5"
     id="path2874"
     style="fill:white;fill-opacity:1;fill-rule:evenodd;stroke:none;stroke-width:2;stroke-linecap:butt;stroke-linejoin:miter;stroke-miterlimit:4;stroke-dasharray:none;stroke-dashoffset:0;stroke-opacity:1"
     sodipodi:type="star"
     transform="matrix(0.672507,0.607776,-0.607776,0.672507,1183.533,-611.4825)" /><path
     transform="matrix(0.27852,0.862602,-0.862602,0.27852,1262.731,-578.8865)"
     sodipodi:type="star"
     style="fill:white;fill-opacity:1;fill-rule:evenodd;stroke:none;stroke-width:2;stroke-linecap:butt;stroke-linejoin:miter;stroke-miterlimit:4;stroke-dasharray:none;stroke-dashoffset:0;stroke-opacity:1"
     id="path2876"
     sodipodi:sides="5"
     sodipodi:cx="31.5"
     sodipodi:cy="150"
     sodipodi:r1="12.010412"
     sodipodi:r2="4.5879774"
     sodipodi:arg1="3.1415927"
     sodipodi:arg2="3.7699112"
     inkscape:flatsided="false"
     inkscape:rounded="0"
     inkscape:randomized="0"
     d="M 19.489588,150 L 27.788248,147.30325 L 27.788579,138.57742 L 32.917763,145.63657 L 41.216628,142.94046 L 36.087977,150 L 41.216627,157.05954 L 32.917763,154.36343 L 27.788578,161.42258 L 27.788248,152.69675 L 19.489588,150 z " /><path
     d="M 19.489588,150 L 27.788248,147.30325 L 27.788579,138.57742 L 32.917763,145.63657 L 41.216628,142.94046 L 36.087977,150 L 41.216627,157.05954 L 32.917763,154.36343 L 27.788578,161.42258 L 27.788248,152.69675 L 19.489588,150 z "
     inkscape:randomized="0"
     inkscape:rounded="0"
     inkscape:flatsided="false"
     sodipodi:arg2="3.7699112"
     sodipodi:arg1="3.1415927"
     sodipodi:r2="4.5879774"
     sodipodi:r1="12.010412"
     sodipodi:cy="150"
     sodipodi:cx="31.5"
     sodipodi:sides="5"
     id="path2878"
     style="fill:white;fill-opacity:1;fill-rule:evenodd;stroke:none;stroke-width:2;stroke-linecap:butt;stroke-linejoin:miter;stroke-miterlimit:4;stroke-dasharray:none;stroke-dashoffset:0;stroke-opacity:1"
     sodipodi:type="star"
     transform="matrix(-0.190096,0.886295,-0.886295,-0.190096,1315.021,-511.0576)" /><path
     transform="matrix(0.607787,-0.672496,0.672496,0.607787,998.2226,-468.6264)"
     sodipodi:type="star"
     style="fill:white;fill-opacity:1;fill-rule:evenodd;stroke:none;stroke-width:2;stroke-linecap:butt;stroke-linejoin:miter;stroke-miterlimit:4;stroke-dasharray:none;stroke-dashoffset:0;stroke-opacity:1"
     id="path2880"
     sodipodi:sides="5"
     sodipodi:cx="31.5"
     sodipodi:cy="150"
     sodipodi:r1="12.010412"
     sodipodi:r2="4.5879774"
     sodipodi:arg1="3.1415927"
     sodipodi:arg2="3.7699112"
     inkscape:flatsided="false"
     inkscape:rounded="0"
     inkscape:randomized="0"
     d="M 19.489588,150 L 27.788248,147.30325 L 27.788579,138.57742 L 32.917763,145.63657 L 41.216628,142.94046 L 36.087977,150 L 41.216627,157.05954 L 32.917763,154.36343 L 27.788578,161.42258 L 27.788248,152.69675 L 19.489588,150 z " /><path
     d="M 19.489588,150 L 27.788248,147.30325 L 27.788579,138.57742 L 32.917763,145.63657 L 41.216628,142.94046 L 36.087977,150 L 41.216627,157.05954 L 32.917763,154.36343 L 27.788578,161.42258 L 27.788248,152.69675 L 19.489588,150 z "
     inkscape:randomized="0"
     inkscape:rounded="0"
     inkscape:flatsided="false"
     sodipodi:arg2="3.7699112"
     sodipodi:arg1="3.1415927"
     sodipodi:r2="4.5879774"
     sodipodi:r1="12.010412"
     sodipodi:cy="150"
     sodipodi:cx="31.5"
     sodipodi:sides="5"
     id="path2882"
     style="fill:white;fill-opacity:1;fill-rule:evenodd;stroke:none;stroke-width:2;stroke-linecap:butt;stroke-linejoin:miter;stroke-miterlimit:4;stroke-dasharray:none;stroke-dashoffset:0;stroke-opacity:1"
     sodipodi:type="star"
     transform="matrix(0.190111,-0.886292,0.886292,0.190111,1009.592,-383.7402)" /><path
     transform="matrix(-0.278505,-0.862607,0.862607,-0.278505,1061.88,-315.911)"
     sodipodi:type="star"
     style="fill:white;fill-opacity:1;fill-rule:evenodd;stroke:none;stroke-width:2;stroke-linecap:butt;stroke-linejoin:miter;stroke-miterlimit:4;stroke-dasharray:none;stroke-dashoffset:0;stroke-opacity:1"
     id="path2884"
     sodipodi:sides="5"
     sodipodi:cx="31.5"
     sodipodi:cy="150"
     sodipodi:r1="12.010412"
     sodipodi:r2="4.5879774"
     sodipodi:arg1="3.1415927"
     sodipodi:arg2="3.7699112"
     inkscape:flatsided="false"
     inkscape:rounded="0"
     inkscape:randomized="0"
     d="M 19.489588,150 L 27.788248,147.30325 L 27.788579,138.57742 L 32.917763,145.63657 L 41.216628,142.94046 L 36.087977,150 L 41.216627,157.05954 L 32.917763,154.36343 L 27.788578,161.42258 L 27.788248,152.69675 L 19.489588,150 z " /><path
     d="M 19.489588,150 L 27.788248,147.30325 L 27.788579,138.57742 L 32.917763,145.63657 L 41.216628,142.94046 L 36.087977,150 L 41.216627,157.05954 L 32.917763,154.36343 L 27.788578,161.42258 L 27.788248,152.69675 L 19.489588,150 z "
     inkscape:randomized="0"
     inkscape:rounded="0"
     inkscape:flatsided="false"
     sodipodi:arg2="3.7699112"
     sodipodi:arg1="3.1415927"
     sodipodi:r2="4.5879774"
     sodipodi:r1="12.010412"
     sodipodi:cy="150"
     sodipodi:cx="31.5"
     sodipodi:sides="5"
     id="path2886"
     style="fill:white;fill-opacity:1;fill-rule:evenodd;stroke:none;stroke-width:2;stroke-linecap:butt;stroke-linejoin:miter;stroke-miterlimit:4;stroke-dasharray:none;stroke-dashoffset:0;stroke-opacity:1"
     sodipodi:type="star"
     transform="matrix(-0.672496,-0.607788,0.607788,-0.672496,1141.078,-283.3137)" /><path
     d="M 19.489588,150 L 27.788248,147.30325 L 27.788579,138.57742 L 32.917763,145.63657 L 41.216628,142.94046 L 36.087977,150 L 41.216627,157.05954 L 32.917763,154.36343 L 27.788578,161.42258 L 27.788248,152.69675 L 19.489588,150 z "
     inkscape:randomized="0"
     inkscape:rounded="0"
     inkscape:flatsided="false"
     sodipodi:arg2="3.7699112"
     sodipodi:arg1="3.1415927"
     sodipodi:r2="4.5879774"
     sodipodi:r1="12.010412"
     sodipodi:cy="150"
     sodipodi:cx="31.5"
     sodipodi:sides="5"
     id="path2896"
     style="fill:white;fill-opacity:1;fill-rule:evenodd;stroke:none;stroke-width:2;stroke-linecap:butt;stroke-linejoin:miter;stroke-miterlimit:4;stroke-dasharray:none;stroke-dashoffset:0;stroke-opacity:1"
     sodipodi:type="star"
     transform="matrix(0.55675,0.715322,-0.715322,0.55675,1196.55,-624.7732)" /><path
     transform="matrix(0.767829,0.481763,-0.481763,0.767829,1133.819,-625.7881)"
     sodipodi:type="star"
     style="fill:white;fill-opacity:1;fill-rule:evenodd;stroke:none;stroke-width:2;stroke-linecap:butt;stroke-linejoin:miter;stroke-miterlimit:4;stroke-dasharray:none;stroke-dashoffset:0;stroke-opacity:1"
     id="path2898"
     sodipodi:sides="5"
     sodipodi:cx="31.5"
     sodipodi:cy="150"
     sodipodi:r1="12.010412"
     sodipodi:r2="4.5879774"
     sodipodi:arg1="3.1415927"
     sodipodi:arg2="3.7699112"
     inkscape:flatsided="false"
     inkscape:rounded="0"
     inkscape:randomized="0"
     d="M 19.489588,150 L 27.788248,147.30325 L 27.788579,138.57742 L 32.917763,145.63657 L 41.216628,142.94046 L 36.087977,150 L 41.216627,157.05954 L 32.917763,154.36343 L 27.788578,161.42258 L 27.788248,152.69675 L 19.489588,150 z " /><path
     transform="matrix(0.341112,-0.83982,0.83982,0.341112,991.5736,-388.3659)"
     sodipodi:type="star"
     style="fill:white;fill-opacity:1;fill-rule:evenodd;stroke:none;stroke-width:2;stroke-linecap:butt;stroke-linejoin:miter;stroke-miterlimit:4;stroke-dasharray:none;stroke-dashoffset:0;stroke-opacity:1"
     id="path2900"
     sodipodi:sides="5"
     sodipodi:cx="31.5"
     sodipodi:cy="150"
     sodipodi:r1="12.010412"
     sodipodi:r2="4.5879774"
     sodipodi:arg1="3.1415927"
     sodipodi:arg2="3.7699112"
     inkscape:flatsided="false"
     inkscape:rounded="0"
     inkscape:randomized="0"
     d="M 19.489588,150 L 27.788248,147.30325 L 27.788579,138.57742 L 32.917763,145.63657 L 41.216628,142.94046 L 36.087977,150 L 41.216627,157.05954 L 32.917763,154.36343 L 27.788578,161.42258 L 27.788248,152.69675 L 19.489588,150 z " /><path
     d="M 19.489588,150 L 27.788248,147.30325 L 27.788579,138.57742 L 32.917763,145.63657 L 41.216628,142.94046 L 36.087977,150 L 41.216627,157.05954 L 32.917763,154.36343 L 27.788578,161.42258 L 27.788248,152.69675 L 19.489588,150 z "
     inkscape:randomized="0"
     inkscape:rounded="0"
     inkscape:flatsided="false"
     sodipodi:arg2="3.7699112"
     sodipodi:arg1="3.1415927"
     sodipodi:r2="4.5879774"
     sodipodi:r1="12.010412"
     sodipodi:cy="150"
     sodipodi:cx="31.5"
     sodipodi:sides="5"
     id="path2902"
     style="fill:white;fill-opacity:1;fill-rule:evenodd;stroke:none;stroke-width:2;stroke-linecap:butt;stroke-linejoin:miter;stroke-miterlimit:4;stroke-dasharray:none;stroke-dashoffset:0;stroke-opacity:1"
     sodipodi:type="star"
     transform="matrix(3.330417e-2,-0.905841,0.905841,3.330417e-2,1022.06,-333.5317)" /><path
     d="M 19.489588,150 L 27.788248,147.30325 L 27.788579,138.57742 L 32.917763,145.63657 L 41.216628,142.94046 L 36.087977,150 L 41.216627,157.05954 L 32.917763,154.36343 L 27.788578,161.42258 L 27.788248,152.69675 L 19.489588,150 z "
     inkscape:randomized="0"
     inkscape:rounded="0"
     inkscape:flatsided="false"
     sodipodi:arg2="3.7699112"
     sodipodi:arg1="3.1415927"
     sodipodi:r2="4.5879774"
     sodipodi:r1="12.010412"
     sodipodi:cy="150"
     sodipodi:cx="31.5"
     sodipodi:sides="5"
     id="path2904"
     style="fill:white;fill-opacity:1;fill-rule:evenodd;stroke:none;stroke-width:2;stroke-linecap:butt;stroke-linejoin:miter;stroke-miterlimit:4;stroke-dasharray:none;stroke-dashoffset:0;stroke-opacity:1"
     sodipodi:type="star"
     transform="matrix(0.27852,0.862602,-0.862602,0.27852,1344.349,-537.5118)" /><path
     d="M 19.489588,150 L 27.788248,147.30325 L 27.788579,138.57742 L 32.917763,145.63657 L 41.216628,142.94046 L 36.087977,150 L 41.216627,157.05954 L 32.917763,154.36343 L 27.788578,161.42258 L 27.788248,152.69675 L 19.489588,150 z "
     inkscape:randomized="0"
     inkscape:rounded="0"
     inkscape:flatsided="false"
     sodipodi:arg2="3.7699112"
     sodipodi:arg1="3.1415927"
     sodipodi:r2="4.5879774"
     sodipodi:r1="12.010412"
     sodipodi:cy="150"
     sodipodi:cx="31.5"
     sodipodi:sides="5"
     id="path2908"
     style="fill:white;fill-opacity:1;fill-rule:evenodd;stroke:none;stroke-width:2;stroke-linecap:butt;stroke-linejoin:miter;stroke-miterlimit:4;stroke-dasharray:none;stroke-dashoffset:0;stroke-opacity:1"
     sodipodi:type="star"
     transform="matrix(0.27852,0.862602,-0.862602,0.27852,1374.829,-567.015)" /><path
     transform="matrix(0.27852,0.862602,-0.862602,0.27852,1386.327,-531.4029)"
     sodipodi:type="star"
     style="fill:white;fill-opacity:1;fill-rule:evenodd;stroke:none;stroke-width:2;stroke-linecap:butt;stroke-linejoin:miter;stroke-miterlimit:4;stroke-dasharray:none;stroke-dashoffset:0;stroke-opacity:1"
     id="path2910"
     sodipodi:sides="5"
     sodipodi:cx="31.5"
     sodipodi:cy="150"
     sodipodi:r1="12.010412"
     sodipodi:r2="4.5879774"
     sodipodi:arg1="3.1415927"
     sodipodi:arg2="3.7699112"
     inkscape:flatsided="false"
     inkscape:rounded="0"
     inkscape:randomized="0"
     d="M 19.489588,150 L 27.788248,147.30325 L 27.788579,138.57742 L 32.917763,145.63657 L 41.216628,142.94046 L 36.087977,150 L 41.216627,157.05954 L 32.917763,154.36343 L 27.788578,161.42258 L 27.788248,152.69675 L 19.489588,150 z " /><path
     sodipodi:nodetypes="ccccc"
     id="path2214"
     d="M 1252.7907,-557.05135 L 1258.9176,-558.25602 L 1256.9989,-561.83733 L 1251.5915,-558.65395 L 1252.7907,-557.05135 z "
     style="fill:red;fill-opacity:1;stroke:none;stroke-width:0.25;stroke-opacity:1" /><path
     sodipodi:nodetypes="ccccccc"
     id="path3103"
     d="M 1185.8143,-359.2877 L 1213.4267,-371.90023 L 1213.5653,-355.96376 L 1211.7773,-346.50081 L 1201.0062,-340.96259 L 1183.7374,-352.78037 L 1185.8143,-359.2877 z "
     style="fill:red;fill-opacity:1;stroke:none;stroke-width:0.25;stroke-opacity:1" /><path
     d="M 1092.0983,-367.50887 L 1090.8026,-382.82668 L 1083.8004,-446.23668 L 1078.9992,-483.40411 L 1075.0499,-523.18069 M 1075.9196,-522.73695 L 1096.4735,-526.23361 L 1124.0207,-530.60884 L 1138.2558,-532.22404 M 1092.5509,-367.09176 L 1103.4668,-367.95261 L 1110.0341,-370.14466 L 1117.906,-365.76054 L 1122.2724,-353.95714 L 1138.0251,-353.0963 L 1142.8263,-348.26844 L 1148.515,-347.84245 L 1155.0645,-351.77397 L 1163.3713,-350.45163 L 1166.8768,-346.53787 L 1174.3139,-353.52227 L 1179.1329,-357.02781 L 1183.4992,-357.02781 L 1185.2475,-349.59965 L 1190.0488,-346.96386 L 1199.669,-341.28402 M 1273.995,-487.30899 L 1270.0634,-483.81233 L 1267.4276,-479.88971 L 1270.4983,-471.57408 L 1270.4983,-458.89207 L 1269.2026,-445.34923 L 1268.3329,-430.03142 L 1262.2004,-419.54148 L 1253.8937,-410.35612 L 1247.7612,-405.98086 L 1242.0903,-407.3032 L 1238.5759,-403.36283 L 1232.47,-394.17747 L 1229.852,-390.6897 L 1229.852,-384.11351 L 1232.9049,-379.31227 L 1231.5914,-374.93702 L 1226.7902,-372.31898 L 1225.4767,-377.12023 L 1221.9712,-380.19975 L 1218.4835,-378.44256 L 1215.8477,-367.94372 L 1215.4128,-354.392 L 1211.0464,-350.45163 L 1210.5938,-343.02346 L 1205.3577,-340.84028 L 1199.243,-339.97054 M 1260.8692,-567.2349 L 1268.7589,-514.87393 L 1273.5601,-484.26496 M 1261.3218,-566.01905 L 1241.6465,-555.9551 L 1231.1388,-549.84929 L 1221.9535,-539.78533 L 1211.0376,-529.29539 L 1202.2871,-527.10332 L 1194.4329,-525.79873 L 1179.5411,-518.79655 L 1173.8701,-518.37058 L 1164.6848,-526.67733 L 1150.6804,-524.92902 L 1143.6783,-528.86051 L 1136.259,-532.79202"
     style="fill:none;stroke:#9a7751;stroke-width:8.8747406;stroke-opacity:1"
     id="IN_OH_1_" /></g>









































</svg>