<svg xmlns="http://www.w3.org/2000/svg" xmlns:xlink="http://www.w3.org/1999/xlink" version="1.1" x="0px" y="0px" width="100px" height="100px" viewBox="0 0 100 100" enable-background="new 0 0 100 100" xml:space="preserve">
<g id="Captions">
</g>
<g id="Your_Icon">
	<path fill-rule="evenodd" clip-rule="evenodd" d="M55.059,98.833c-0.233,0.172-0.64,0.348-1.214,0.52   c-1.042,0.289-2.742,0.433-5.109,0.433c-1.269,0-2.31-0.042-3.115-0.13c-0.811-0.088-1.443-0.189-1.907-0.303   c-0.578-0.172-1.01-0.348-1.3-0.52v-3.636c0-0.866,0.028-1.746,0.087-2.641c0.059-0.897,0.144-1.746,0.261-2.558   c0.113-0.865,0.23-1.73,0.345-2.598c0.176-3.058,0.288-6.294,0.348-9.699c0.059-3.405,0.072-6.606,0.042-9.61   c-0.029-3.004-0.102-5.6-0.214-7.795c-0.118-2.194-0.231-3.606-0.349-4.243c-0.113-0.635-0.159-1.239-0.13-1.817   c0.03-0.576,0.102-1.097,0.217-1.56c0.115-0.521,0.287-1.011,0.518-1.473l3.118-9.266c0-0.635,0.262-1.012,0.783-1.124   c0.285-0.812,0.633-1.474,1.035-1.994c0.463-0.577,0.955-1.038,1.474-1.383c0.521-0.349,1.038-0.637,1.558-0.868   c1.042-0.461,1.966-0.734,2.771-0.824c0.812-0.083,1.243-0.129,1.299-0.129h28.232c0.344,0,0.617-0.029,0.818-0.084   c0.205-0.06,0.362-0.146,0.478-0.261c0.346-0.349,0.577-0.664,0.693-0.953c0.114-0.289,0.202-0.578,0.262-0.865   c0.059-0.29,0.112-0.578,0.172-0.868V17.258c0-0.979-0.1-1.717-0.302-2.208c-0.203-0.492-0.392-0.824-0.563-0.996   c-0.29-0.288-0.521-0.431-0.692-0.431h-1.214c-0.058,2.888-0.231,4.847-0.519,5.889c-0.174,0.635-0.316,1.096-0.435,1.386   c0,0.054-0.028,0.144-0.087,0.26c-0.056,0.114-0.114,0.214-0.172,0.302c-0.06,0.085-0.114,0.187-0.173,0.304   c-0.114,0.23-0.261,0.288-0.433,0.172c-0.117,0-0.202-0.06-0.261-0.172l0.087,0.691l-1.128-0.347l-1.297,0.174l-1.386,0.345   l-0.864,0.609l-1.127-0.176l-0.867,0.176l-1.037,0.173l0.086,1.035H72.98v-0.69l-0.692,0.087l-0.779,0.432l-1.3,0.521l0.692-0.604   l-0.604-0.607l-0.088-0.782l-0.953-0.256L69,23.06l-0.869,1.302l-0.952-0.09l-1.126,0.262V23.84h-0.346l-0.433,0.521l-0.691,0.082   l-0.437-0.862l-0.952,0.78l-0.865,0.52l-0.262-0.52h-0.431l-0.518-0.433l0.693-0.434l-0.869-0.26l-1.125,0.346l-0.604,0.952   l-0.693,0.172l-0.952-0.865l-0.521-0.345l-0.865,1.038l-0.348-1.038l-0.866-0.087l-1.298,0.78l-0.259,0.517l-0.865,0.176   l0.172-1.128l-0.692-0.345h-1.734l-1.297,0.78v-0.693l-1.302,0.866l-0.431,0.344l0.176-0.865l-0.176-0.521l-0.435,0.434   l-0.345,0.78l-1.385,0.348v-1.3l-0.781,0.78h-0.604l0.259-0.953l-0.778,0.863l-0.954-0.863l-0.344,0.78l-0.952-0.26l-0.694,0.343   l0.261-1.036l-1.128-0.176l-0.95,0.436v-0.52l-0.176,0.084l-0.953,0.436l-0.692,0.518l-0.174-0.953l-0.692,0.953l-0.432-0.084   l0.348-1.13l-0.868,0.261l-0.085,0.78l-1.732,0.173v-0.604l-0.952,0.345l-0.779,0.176l0.172-0.521l-1.732-0.173l-0.692,0.518   l-0.261-0.518l-1.385-0.26l-1.47,0.52l1.038-0.952l-1.991-0.262l-0.781,0.434l-0.777,0.521l-0.953-0.26l-0.953,0.344l0.087-0.776   l-0.952,0.172l-1.04,0.084l-1.126,0.609v-0.693l0.172-1.124c-0.575-0.812-1.008-1.577-1.297-2.299   c-0.291-0.72-0.492-1.396-0.609-2.034c-0.172-0.692-0.23-1.386-0.172-2.078c-0.345-0.289-0.546-0.647-0.605-1.083   c-0.058-0.433-0.058-0.823,0-1.167c0.059-0.402,0.202-0.812,0.433-1.214l0.781-0.952L16.694,9.55l0.609-1.209l-0.088-0.693   l0.433-0.868l-0.866-0.085l0.78-1.646l0.866-0.52L18.6,3.836l0.348-0.692l0.606,0.259l0.259-0.604h0.693L19.64,1.846l1.73,0.433   l-0.084-0.78l0.692,0.78l1.21,0.776h0.953V2.363l1.473,0.348h0.781l0.256-0.865l0.609,0.346l0.776,0.172h0.692l0.78,0.435   l2.079-0.348l0.605-0.604l0.867,0.346l0.955-0.521l0.431,0.78l0.866-0.345l0.604-0.869L36.87,1.93l0.781,0.176l0.519-0.348   l0.261,0.605l1.125-0.085h1.21l0.348-0.521l0.865,0.434l0.608-0.086l0.344-0.697l0.521,0.438h1.126l0.259-1.041l1.126,1.041   l1.729,0.518h0.693l1.822,0.348L50.64,1.67l0.606-0.517l0.78,0.255l0.692,0.955l0.346-0.605l1.039,0.088l0.865,0.346l0.173-0.866   V0.719l0.869,0.435l0.776,0.345l0.261-1.038l1.039,0.345l0.346,0.865l0.521,0.088l1.214-0.088l0.518,0.436l0.778,0.086l0.35-0.434   l0.344-0.604l0.866,0.345l0.52-0.693l0.261,0.693l0.52-0.521l0.604,0.952l1.99,0.176V0.978l0.608-0.433   c0.06,0.117,0.144,0.26,0.261,0.433c0.23,0.348,0.345,0.578,0.345,0.692c0,0.059,0.147,0.029,0.432-0.086   c0.176-0.058,0.349-0.146,0.521-0.259l0.865-0.606l1.474,0.518l0.78,1.386l0.778,0.521l1.732-0.262l1.037-0.69l0.433,0.606   l1.301-0.435l-0.52-0.518c0.174-0.117,0.45-0.2,0.824-0.262c0.373-0.058,0.678-0.028,0.908,0.086   c0.115,0.059,0.258,0.088,0.433,0.088c0.172,0,0.315,0,0.434,0h0.521l0.948,1.473l0.348,0.172c0.114,0.061,0.23,0.102,0.346,0.131   c0.118,0.03,0.233,0.102,0.348,0.215c0.173,0.117,0.317,0.376,0.432,0.78v0.434c0.231,0.176,0.421,0.478,0.563,0.908   c0.147,0.434,0.247,0.938,0.302,1.517c0.059,0.575,0.102,1.156,0.13,1.73c0.028,0.579,0.046,1.129,0.046,1.646h1.21   c0.116,0,0.306,0.028,0.563,0.086c0.261,0.06,0.592,0.173,0.998,0.346c0.403,0.231,0.794,0.563,1.168,0.998   c0.374,0.434,0.708,0.995,0.995,1.688C88.828,14.747,89,15.872,89,17.258v15.327c0,0.06-0.014,0.248-0.042,0.563   c-0.03,0.319-0.102,0.708-0.217,1.171c-0.115,0.461-0.305,0.982-0.563,1.559c-0.26,0.579-0.706,1.096-1.344,1.561   c-0.865,0.693-1.872,1.037-3.027,1.037H55.574h-0.085h-0.431c-0.35,0-0.812,0.088-1.388,0.261c-0.52,0.113-1.053,0.333-1.603,0.649   s-0.995,0.707-1.344,1.168c-0.056,0.06-0.144,0.201-0.257,0.434c0.287,0.288,0.434,0.608,0.434,0.952l3.03,9.266   c0.172,0.462,0.344,0.952,0.516,1.473c0.119,0.463,0.189,0.983,0.22,1.56c0.028,0.578-0.018,1.183-0.13,1.817   c-0.118,0.637-0.23,2.049-0.349,4.243c-0.113,2.195-0.186,4.791-0.215,7.795c-0.028,3.004-0.016,6.205,0.043,9.61   s0.172,6.642,0.348,9.699c0.114,0.867,0.23,1.732,0.345,2.598c0.116,0.812,0.202,1.66,0.26,2.558   c0.059,0.895,0.09,1.774,0.09,2.641V98.833z"/>
	<path fill-rule="evenodd" clip-rule="evenodd" fill="#000000" d="M49.515,95.717c0.748,0,1.125-0.376,1.125-1.129v-1.209   c0-0.693-0.377-1.041-1.125-1.041h-1.128c-0.748,0-1.124,0.348-1.124,1.041v1.209c0,0.753,0.376,1.129,1.124,1.129H49.515z"/>
</g>
</svg>