<?xml version="1.0" encoding="UTF-8" standalone="no"?>
<!-- Created with Inkscape (http://www.inkscape.org/) -->

<svg
   xmlns:dc="http://purl.org/dc/elements/1.1/"
   xmlns:cc="http://creativecommons.org/ns#"
   xmlns:rdf="http://www.w3.org/1999/02/22-rdf-syntax-ns#"
   xmlns:svg="http://www.w3.org/2000/svg"
   xmlns="http://www.w3.org/2000/svg"
   xmlns:sodipodi="http://sodipodi.sourceforge.net/DTD/sodipodi-0.dtd"
   xmlns:inkscape="http://www.inkscape.org/namespaces/inkscape"
   width="128"
   height="128"
   id="svg2"
   sodipodi:version="0.32"
   inkscape:version="0.48.3.1 r9886"
   version="1.0"
   sodipodi:docname="pitr_Home_icon.svg"
   inkscape:export-filename="C:\joanna\Gfx\drawings_vector\nature_plants\fruits\papa_candy.png"
   inkscape:export-xdpi="90"
   inkscape:export-ydpi="90"
   inkscape:output_extension="org.inkscape.output.svg.inkscape">
  <defs
     id="defs4">
    <inkscape:path-effect
       effect="bend_path"
       id="path-effect4286"
       is_visible="true"
       bendpath="m 103.12508,404.74975 182.83774,0"
       prop_scale="1"
       scale_y_rel="true"
       vertical="false" />
    <inkscape:perspective
       sodipodi:type="inkscape:persp3d"
       inkscape:vp_x="0 : 186.64798 : 1"
       inkscape:vp_y="0 : 1000 : 0"
       inkscape:vp_z="559.62469 : 186.64798 : 1"
       inkscape:persp3d-origin="279.81235 : 124.43199 : 1"
       id="perspective4876" />
  </defs>
  <sodipodi:namedview
     id="base"
     pagecolor="#ffffff"
     bordercolor="#666666"
     borderopacity="1.0"
     gridtolerance="10"
     guidetolerance="10"
     objecttolerance="10000"
     inkscape:pageopacity="0.0"
     inkscape:pageshadow="2"
     inkscape:zoom="4.2109375"
     inkscape:cx="94.246206"
     inkscape:cy="64"
     inkscape:document-units="px"
     inkscape:current-layer="g4204"
     inkscape:window-width="1280"
     inkscape:window-height="744"
     inkscape:window-x="56"
     inkscape:window-y="24"
     showgrid="true"
     borderlayer="true"
     showguides="true"
     inkscape:guide-bbox="true"
     inkscape:window-maximized="0">
    <inkscape:grid
       type="xygrid"
       id="grid7194"
       visible="true"
       enabled="true"
       spacingx="8px"
       spacingy="8px" />
  </sodipodi:namedview>
  <g
     inkscape:groupmode="layer"
     id="layer2"
     inkscape:label="BG">
    <rect
       style="fill:#086fa1;fill-opacity:1;fill-rule:nonzero;stroke:#309600;stroke-width:3;stroke-linecap:round;stroke-linejoin:miter;stroke-miterlimit:4;stroke-opacity:0;stroke-dasharray:none;stroke-dashoffset:0"
       id="rect4171"
       width="131.32468"
       height="131.0872"
       x="-3.3246765"
       y="-3.087204" />
    <path
       style="fill:#a63a00;stroke:#000000;stroke-width:6;stroke-linecap:round;stroke-linejoin:round;stroke-opacity:1;stroke-miterlimit:4;stroke-dasharray:none"
       d="m 32,66.77551 48,-56 72,0 40,56 z"
       id="path4222"
       inkscape:connector-curvature="0" />
  </g>
  <g
     inkscape:label="Layer 1"
     inkscape:groupmode="layer"
     id="layer1"
     transform="translate(-66.38047,-391.3222)">
    <g
       id="g4204"
       transform="translate(-39.77945,28.39715)">
      <path
         style="fill:#ff5900;fill-opacity:1;fill-rule:evenodd;stroke:#000000;stroke-width:6;stroke-linecap:round;stroke-linejoin:round;stroke-miterlimit:4;stroke-opacity:1;stroke-dasharray:none;stroke-dashoffset:0;marker:none;visibility:visible;display:inline;overflow:visible;enable-background:accumulate"
         d="m 130.15992,430.16666 80,-0.47496 c 0,97.25641 0,41.13887 0,61.23335 l -80,0 z"
         id="path7201"
         sodipodi:nodetypes="ccccc"
         inkscape:connector-curvature="0" />
      <path
         sodipodi:nodetypes="ccccc"
         id="rect7198"
         d="m 154.15992,450.92505 32,0 0,40 -32,0 z"
         style="fill:#ffa640;fill-opacity:1;fill-rule:evenodd;stroke:#000000;stroke-width:6;stroke-linecap:round;stroke-linejoin:round;stroke-miterlimit:4;stroke-opacity:1;stroke-dasharray:none;stroke-dashoffset:0;marker:none;visibility:visible;display:inline;overflow:visible;enable-background:accumulate"
         inkscape:connector-curvature="0" />
      <path
         style="fill:#ff5900;fill-opacity:1;fill-rule:evenodd;stroke:#000000;stroke-width:5.75060749000000015;stroke-linecap:round;stroke-linejoin:round;stroke-miterlimit:4;stroke-opacity:1;stroke-dasharray:none;stroke-dashoffset:0;marker:none;visibility:visible;display:inline;overflow:visible;enable-background:accumulate"
         d="m 212.92059,430.16666 73.48774,-0.47496 c 0,97.25641 0,41.13887 0,61.23335 l -73.48774,0 z"
         id="path7201-6"
         sodipodi:nodetypes="ccccc"
         inkscape:connector-curvature="0" />
      <path
         sodipodi:nodetypes="ccccccccccc"
         id="path7196"
         d="m 130.21725,430.69356 80.32644,0 15.61623,4.23149 -23.64888,-24.63143 0,-27.19992 -16.06528,0 -0.28584,11.83135 -32,0 -16,16 -24,24 z"
         style="fill:#a63a00;fill-rule:evenodd;stroke:#000000;stroke-width:6;stroke-linecap:round;stroke-linejoin:round;stroke-miterlimit:4;stroke-opacity:1;stroke-dasharray:none"
         inkscape:connector-curvature="0" />
      <path
         sodipodi:nodetypes="ccccc"
         id="rect7198-8"
         d="m 226.15992,442.92505 48,0 0,16 -48,0 z"
         style="fill:#ffa640;fill-opacity:1;fill-rule:evenodd;stroke:#000000;stroke-width:4.64758015;stroke-linecap:round;stroke-linejoin:round;stroke-miterlimit:4;stroke-opacity:1;stroke-dasharray:none;stroke-dashoffset:0;marker:none;visibility:visible;display:inline;overflow:visible;enable-background:accumulate"
         inkscape:connector-curvature="0" />
      <path
         style="fill:#ffbe73;fill-opacity:1;fill-rule:nonzero;stroke:#309600;stroke-width:7.12340832;stroke-linecap:round;stroke-linejoin:round;stroke-miterlimit:4;stroke-opacity:0;stroke-dasharray:none;stroke-dashoffset:0"
         d="m 128.26073,400.8616 c -3.26899,0.13083 -7.38439,2.05677 -1.9041,-0.14448 1.87814,-0.70018 -6.42277,2.94981 -7.88547,4.36311 -3.98053,3.68197 -7.17506,7.93585 -9.22127,12.36964 -4.19763,3.79483 -0.40053,10.05996 5.9488,10.94262 3.46131,-0.19078 7.36729,-1.86377 1.96073,0.20552 -1.36454,0.7176 5.07853,-4.43448 4.66859,-6.70622 2.6156,-5.58278 3.93236,-11.28049 4.04262,-17.12976 0.99677,-1.4946 7.48434,-3.77487 3.79166,-0.17847 -2.50052,4.97976 -0.50239,11.2314 5.21325,14.65367 5.60204,-0.36964 2.29833,-0.23389 1.77661,0.21094 7.79698,-2.45284 11.74519,-8.12693 19.44488,-10.57726 3.2383,-1.18401 8.64174,-3.14007 2.48877,-0.72145 -4.26147,1.62767 4.13786,-1.15535 -0.83135,-0.6819 -3.54038,-0.21351 -7.10439,1.33259 -1.92936,-0.6649 -5.34573,3.18298 -2.93059,9.25589 4.05992,9.94495 3.68887,0.70318 8.33898,-0.58308 2.42795,1.46731 -0.30112,0.80442 1.57055,-1.86723 -0.15306,-3.76528 -2.87711,-8.10467 10.70649,-10.27328 8.5478,-15.8019 -2.83458,-3.31068 -3.70127,-9.22887 2.80311,-9.34412 -2.97438,4.09922 -0.54264,8.93593 -3.09965,13.23212 -1.9236,4.71091 2.19912,9.88294 6.74104,12.95435 3.38094,-1.0338 -4.90678,2.2113 0.54991,-0.90773 4.18125,-2.61353 5.02153,-11.0347 11.41498,-9.3206 0.82632,4.26059 8.17743,9.58767 7.73283,12.22852 -6.05082,3.16489 2.20371,-4.49217 2.73205,-6.61096 0.92548,-3.27992 9.99644,-7.30619 8.84248,-8.72473 -7.31528,2.55212 5.92974,-3.1727 0.8564,0.24386 0.52082,4.22904 -5.11896,9.53176 -1.01263,12.95202 3.59047,0.60924 3.88464,-0.64697 -0.0424,1.15344 4.01086,-2.68392 7.48204,-7.6351 5.49874,-10.35081 5.02777,-3.98748 8.19283,4.04366 13.49113,4.96999 4.66614,2.50405 9.61738,4.87537 13.87678,7.67685 -6.58024,5.07941 -10.95512,-3.75144 -12.55203,-7.36381 0.0923,-4.28734 -2.04525,-10.68685 3.73075,-13.40641 6.66865,-1.96318 14.06419,1.07025 17.01657,5.44173 1.20835,2.8366 6.64536,3.38225 0.94906,4.37312 6.46537,-2.89089 6.94311,-8.40971 8.71376,-13.00357 3.95279,-4.04971 4.92813,-8.7983 3.45244,-13.54776 -1.48132,0.68183 6.60399,-4.03405 2.66337,-0.0202 0.10966,4.94391 1.12173,9.90975 1.36756,14.87796 -0.42524,3.88814 0.0579,10.5454 7.57691,10.36351 3.37002,-1.31383 -5.30448,2.40575 0.14906,-0.55145 4.85527,-3.12245 11.45423,-8.59217 4.61895,-12.6681 -4.09423,-5.47372 -14.2218,-2.73968 -21.2552,-3.50392 -8.68854,-0.17212 -17.14849,1.50117 -25.79606,1.68116 -3.71381,-0.65187 -12.59127,0.59541 -5.77124,-2.05295 6.38808,-0.77703 13.40828,0.81 19.91829,-0.78271 10.49491,-1.2207 21.1515,-0.73258 31.73399,-0.46171 6.78993,2.37739 12.43481,9.68575 4.42718,13.7202 -3.88382,3.05729 -9.89263,8.57922 -16.21334,5.65832 -5.6496,-3.45926 -2.79858,-9.33425 -4.07565,-13.92583 0.65942,-4.33514 -2.96725,-9.05212 0.16446,-13.08362 6.08117,-5.15067 6.25065,5.14276 4.80585,7.95016 -3.89853,4.22354 -4.47729,9.10015 -6.82293,13.68008 -2.52892,3.15351 -11.38944,10.09142 -14.25611,3.5582 -2.80384,-4.03433 -9.05695,-7.43548 -15.62406,-5.92051 3.46597,-1.45082 4.54072,-2.41646 3.08194,0.83252 -1.00477,5.19842 -1.20311,10.62647 3.30327,15.12423 0.68524,3.28125 9.03341,2.04473 3.05546,3.34833 -5.05406,3.24506 -9.42958,-4.82386 -14.99249,-5.75329 -3.10111,-1.86812 -13.15098,-5.48315 -9.83453,-7.63547 6.92927,-2.86774 3.74045,5.44633 0.4502,7.29037 -1.85316,4.73739 -15.6307,6.69434 -12.38446,-0.17793 2.36604,-4.23391 -0.26444,-10.76889 7.70468,-12.36275 8.7478,-1.16175 -4.4436,5.24455 -5.40257,7.63791 -3.59259,3.61409 -4.4839,10.83142 -11.85629,10.84101 -2.77516,-4.13163 -6.64301,-8.01826 -8.62323,-12.30952 3.31514,-1.25478 4.88039,-2.67646 2.36582,0.56464 -2.61497,4.10753 -8.42292,11.76779 -15.55845,9.27744 -3.7138,-4.2795 -7.7452,-9.12992 -4.60424,-14.29559 2.69057,-3.88648 -2.24834,-10.5655 4.98566,-12.27987 3.0596,-1.08019 0.0359,5.07132 3.06093,6.66785 3.28042,6.0073 -5.2254,9.62519 -7.21197,14.37469 3.03992,5.24245 -4.80305,9.67737 -11.6462,7.71897 -7.82792,-0.81265 -9.82073,-7.57578 -4.0366,-10.94045 2.1519,-2.63922 16.67461,-3.38338 9.1424,0.0542 -2.14685,0.94867 -10.23705,3.75376 -5.43341,1.91175 -5.15123,3.99666 -11.16593,7.313 -17.85319,10.04837 -5.83118,4.23218 -11.39385,-1.03749 -12.56481,-5.12233 -1.83057,-4.15451 -1.35012,-10.983 5.42373,-11.87961 -1.56141,5.50767 -0.73237,11.37647 -4.13185,16.71239 -1.01832,5.46457 -6.90586,10.92322 -15.20986,10.91729 -5.91636,-1.00807 -10.59593,-6.97164 -6.67505,-10.82125 1.96518,-4.44427 5.09792,-8.57629 8.61094,-12.48205 4.90857,-3.37684 10.65569,-6.71183 17.3107,-8.09291 4.40189,-1.11117 -1.73491,1.389 -2.22977,1.88084 z"
         id="path4280"
         inkscape:connector-curvature="0"
         inkscape:path-effect="#path-effect4286"
         inkscape:original-d="m 128.26075,400.8616 c -3.26899,0.13083 -7.38439,2.05677 -1.9041,-0.14448 1.87814,-0.70018 -6.42277,2.94981 -7.88547,4.36311 -3.98053,3.68197 -7.17506,7.93585 -9.22127,12.36964 -4.19763,3.79483 -0.40053,10.05996 5.9488,10.94262 3.46131,-0.19078 7.36729,-1.86377 1.96073,0.20552 -1.36454,0.7176 5.07853,-4.43448 4.66859,-6.70622 2.6156,-5.58278 3.93236,-11.28049 4.04262,-17.12976 0.99677,-1.4946 7.48434,-3.77487 3.79166,-0.17847 -2.50052,4.97976 -0.50239,11.2314 5.21325,14.65367 5.60204,-0.36964 2.29833,-0.23389 1.77661,0.21094 7.79698,-2.45284 11.74519,-8.12693 19.44488,-10.57726 3.2383,-1.18401 8.64174,-3.14007 2.48877,-0.72145 -4.26147,1.62767 4.13786,-1.15535 -0.83135,-0.6819 -3.54038,-0.21351 -7.10439,1.33259 -1.92936,-0.6649 -5.34573,3.18298 -2.93059,9.25589 4.05992,9.94495 3.68887,0.70318 8.33898,-0.58308 2.42795,1.46731 -0.30112,0.80442 1.57055,-1.86723 -0.15306,-3.76528 -2.87711,-8.10467 10.70649,-10.27328 8.5478,-15.8019 -2.83458,-3.31068 -3.70127,-9.22887 2.80311,-9.34412 -2.97438,4.09922 -0.54264,8.93593 -3.09965,13.23212 -1.9236,4.71091 2.19912,9.88294 6.74104,12.95435 3.38094,-1.0338 -4.90678,2.2113 0.54991,-0.90773 4.18125,-2.61353 5.02153,-11.0347 11.41498,-9.3206 0.82632,4.26059 8.17743,9.58767 7.73283,12.22852 -6.05082,3.16489 2.20371,-4.49217 2.73205,-6.61096 0.92548,-3.27992 9.99644,-7.30619 8.84248,-8.72473 -7.31528,2.55212 5.92974,-3.1727 0.8564,0.24386 0.52082,4.22904 -5.11896,9.53176 -1.01263,12.95202 3.59047,0.60924 3.88464,-0.64697 -0.0424,1.15344 4.01086,-2.68392 7.48204,-7.6351 5.49874,-10.35081 5.02777,-3.98748 8.19283,4.04366 13.49113,4.96999 4.66614,2.50405 9.61738,4.87537 13.87678,7.67685 -6.58024,5.07941 -10.95512,-3.75144 -12.55203,-7.36381 0.0923,-4.28734 -2.04525,-10.68685 3.73075,-13.40641 6.66865,-1.96318 14.06419,1.07025 17.01657,5.44173 1.20835,2.8366 6.64536,3.38225 0.94906,4.37312 6.46537,-2.89089 6.94311,-8.40971 8.71376,-13.00357 3.95279,-4.04971 4.92813,-8.7983 3.45244,-13.54776 -1.48132,0.68183 6.60399,-4.03405 2.66337,-0.0202 0.10966,4.94391 1.12173,9.90975 1.36756,14.87796 -0.42524,3.88814 0.0579,10.5454 7.57691,10.36351 3.37002,-1.31383 -5.30448,2.40575 0.14906,-0.55145 4.85527,-3.12245 11.45423,-8.59217 4.61895,-12.6681 -4.09423,-5.47372 -14.2218,-2.73968 -21.2552,-3.50392 -8.68854,-0.17212 -17.14849,1.50117 -25.79606,1.68116 -3.71381,-0.65187 -12.59127,0.59541 -5.77124,-2.05295 6.38808,-0.77703 13.40828,0.81 19.91829,-0.78271 10.49491,-1.2207 21.1515,-0.73258 31.73399,-0.46171 6.78993,2.37739 12.43481,9.68575 4.42718,13.7202 -3.88382,3.05729 -9.89263,8.57922 -16.21334,5.65832 -5.6496,-3.45926 -2.79858,-9.33425 -4.07565,-13.92583 0.65942,-4.33514 -2.96725,-9.05212 0.16446,-13.08362 6.08117,-5.15067 6.25065,5.14276 4.80585,7.95016 -3.89853,4.22354 -4.47729,9.10015 -6.82293,13.68008 -2.52892,3.15351 -11.38944,10.09142 -14.25611,3.5582 -2.80384,-4.03433 -9.05695,-7.43548 -15.62406,-5.92051 3.46597,-1.45082 4.54072,-2.41646 3.08194,0.83252 -1.00477,5.19842 -1.20311,10.62647 3.30327,15.12423 0.68524,3.28125 9.03341,2.04473 3.05546,3.34833 -5.05406,3.24506 -9.42958,-4.82386 -14.99249,-5.75329 -3.10111,-1.86812 -13.15098,-5.48315 -9.83453,-7.63547 6.92927,-2.86774 3.74045,5.44633 0.4502,7.29037 -1.85316,4.73739 -15.6307,6.69434 -12.38446,-0.17793 2.36604,-4.23391 -0.26444,-10.76889 7.70468,-12.36275 8.7478,-1.16175 -4.4436,5.24455 -5.40257,7.63791 -3.59259,3.61409 -4.4839,10.83142 -11.85629,10.84101 -2.77516,-4.13163 -6.64301,-8.01826 -8.62323,-12.30952 3.31514,-1.25478 4.88039,-2.67646 2.36582,0.56464 -2.61497,4.10753 -8.42292,11.76779 -15.55845,9.27744 -3.7138,-4.2795 -7.7452,-9.12992 -4.60424,-14.29559 2.69057,-3.88648 -2.24834,-10.5655 4.98566,-12.27987 3.0596,-1.08019 0.0359,5.07132 3.06093,6.66785 3.28042,6.0073 -5.2254,9.62519 -7.21197,14.37469 3.03992,5.24245 -4.80305,9.67737 -11.6462,7.71897 -7.82792,-0.81265 -9.82073,-7.57578 -4.0366,-10.94045 2.1519,-2.63922 16.67461,-3.38338 9.1424,0.0542 -2.14685,0.94867 -10.23705,3.75376 -5.43341,1.91175 -5.15123,3.99666 -11.16593,7.313 -17.85319,10.04837 -5.83118,4.23218 -11.39385,-1.03749 -12.56481,-5.12233 -1.83057,-4.15451 -1.35012,-10.983 5.42373,-11.87961 -1.56141,5.50767 -0.73237,11.37647 -4.13185,16.71239 -1.01832,5.46457 -6.90586,10.92322 -15.20986,10.91729 -5.91636,-1.00807 -10.59593,-6.97164 -6.67505,-10.82125 1.96518,-4.44427 5.09792,-8.57629 8.61094,-12.48205 4.90857,-3.37684 10.65569,-6.71183 17.3107,-8.09291 4.40189,-1.11117 -1.73491,1.389 -2.22977,1.88084 z"
         sodipodi:nodetypes="cccccccccccccccccccccccccccccccccccccccccccccccccccccccccccccccccccccccccccccccccccccccc" />
      <path
         style="fill:#ffbe73;fill-opacity:1;fill-rule:nonzero;stroke:#309600;stroke-width:6;stroke-linecap:round;stroke-linejoin:round;stroke-miterlimit:4;stroke-opacity:0;stroke-dasharray:none;stroke-dashoffset:0"
         d="m 247.31973,382.53963 c -2.34827,2.74387 -5.45323,5.68522 -5.004,9.6399 0.71606,1.89234 4.03318,2.22649 5.07462,1.36173 -1.14309,0.55845 -4.18893,2.44997 -1.66616,0.53065 1.73257,-1.87944 2.12045,-4.80092 1.73495,-7.2437 -0.20314,-2.03008 -2.56472,-3.67896 0.45246,-4.29272 2.02902,-1.68547 1.77155,3.1736 3.98658,3.60249 1.00553,1.25 3.60039,0.56158 1.03679,1.57262 -0.96926,0.57236 -2.12115,1.34812 -0.55372,-0.002 1.98309,-2.05895 3.31811,-4.50031 6.02119,-5.62106 0.95443,-0.80013 5.73497,-3.04518 2.52493,-1.36904 -1.36366,0.75876 -2.36117,1.39426 -0.51132,0.0898 1.47624,-1.07385 -4.09453,2.07054 -0.8636,0.2241 1.39931,-0.84651 1.9817,-1.08613 0.24699,-0.0799 -1.09335,0.67229 -4.44231,2.37716 -1.53938,0.84957 0.91042,-0.38703 3.13064,-2.02955 0.99594,-0.58011 -1.27611,2.0273 -0.0892,7.20347 3.0678,6.22733 0.86215,-0.77902 -3.9195,2.77756 -1.62844,0.23241 -0.20439,-2.40072 3.53334,-4.55785 4.19479,-4.57227 -1.30772,0.44096 -3.05994,2.66021 -2.19002,0.14209 -0.66576,-1.60949 -1.48784,-1.78004 0.469,-2.41246 1.46003,-1.50015 1.72424,-1.12764 1.6408,0.80091 0.69589,3.72877 0.0959,7.83457 -2.51654,10.73212 -1.86405,2.38519 -4.62777,3.84255 -6.27091,6.4065 -1.83669,1.8252 -4.75487,2.44784 -5.73006,-0.58303 -1.13971,-1.96727 -1.5409,-4.92823 0.65098,-6.35361 2.14067,-1.56589 4.65155,-2.66979 7.35169,-2.58558 3.14551,-0.23954 6.40805,-0.1726 9.33337,-1.51121 3.16115,-0.73498 6.2492,-1.82425 9.42184,-2.53441 1.29059,-0.43697 3.60443,-1.60324 1.07521,-0.23028 -1.43495,0.79958 -1.81018,1.2589 -0.38808,-0.20712 1.44433,-2.37881 2.38854,-5.52316 0.79566,-8.07955 -0.68632,-2.7401 -3.95551,-2.57397 -6.1927,-2.80618 -2.72631,1.25776 3.87291,-2.82128 0.91321,-0.41416 -1.58784,2.72327 0.0116,6.30861 2.34424,8.01595 3.22425,1.64575 6.92732,0.66207 10.37266,0.76562 1.27022,-0.18321 1.98921,-0.90878 0.43265,0.11183 -0.73393,0.45102 -2.71788,1.72854 -0.96097,0.31338 2.29794,-2.60357 4.41092,-5.42852 6.99072,-7.7582 1.88485,-1.31921 3.91252,-2.40666 5.97462,-3.41405 -0.99125,0.54953 -4.45524,2.62226 -1.72835,0.91173 1.2145,-0.99802 2.15432,-2.33009 3.76083,-2.70194 1.93081,-0.98969 1.30839,-0.26041 -0.0213,0.9413 -1.87446,1.5943 -4.10188,2.7663 -6.33228,3.79404 0.94599,-0.53556 4.07408,-2.37494 1.57507,-0.80635 -1.98883,1.52181 -3.52747,3.58733 -5.21968,5.4344 -1.47392,2.31725 -3.6642,3.93659 -6.17334,5.00146 -2.44736,0.29059 -4.97449,0.41537 -7.45541,0.34203 -3.00478,0.0626 -5.84507,-1.62788 -6.72813,-4.59957 -1.19615,-2.508 -0.40768,-6.19638 2.56142,-6.98118 2.35923,-1.60375 5.74895,-0.91066 8.0145,0.50169 1.47594,2.3055 2.45464,5.22562 1.22353,7.86418 -0.57687,2.44039 -2.51807,4.12737 -4.77518,5.01819 -3.26108,1.50854 -6.8723,1.93202 -10.23789,3.15571 -2.6707,0.67299 -5.26127,1.74582 -8.07055,1.67628 -2.43947,0.30253 -5.04935,0.002 -7.32602,1.08502 1.26121,-0.62181 3.6342,-2.46844 1.43881,-0.40925 -1.24015,2.13607 0.0533,4.93923 1.70853,6.47983 1.11603,0.75936 2.69009,-0.82148 0.65033,0.38691 -1.31607,0.60719 -3.38805,2.35258 -1.34217,0.25956 1.31911,-2.08576 3.74889,-3.13276 5.21151,-5.14921 2.09499,-2.24226 3.03296,-5.27833 2.87034,-8.31215 0.0536,-2.0216 -1.67134,-5.10275 1.54249,-5.32983 2.35067,-1.83014 3.40781,4.41237 0.39829,4.38871 -1.05333,0.4334 -2.40637,1.17228 -0.58774,0.15372 1.55095,-0.67231 1.92824,-1.78917 0.96349,0.23983 -0.46195,2.93995 -4.15806,5.70531 -6.9692,4.26432 -1.54353,-1.7952 -2.98109,-6.02694 -0.21408,-7.34448 1.25263,-0.28013 4.62349,-2.83477 1.95083,-1.02808 -3.12937,1.86026 1.73825,-1.18681 2.78638,-1.62601 1.0377,-1.12948 3.21337,-0.36577 1.30606,0.78123 -1.79997,1.29241 -5.67163,3.39525 -6.61568,3.6844 1.09972,-0.44338 3.42668,-2.44351 1.69762,-0.37742 -1.50291,1.76003 -2.85679,3.8979 -4.95072,4.97099 -2.08378,1.94571 -4.55487,0.0131 -5.95963,-1.72753 -1.45649,-1.64761 -1.79597,-3.44742 0.41529,-4.44512 2.18386,-1.34144 2.56471,2.93807 2.94206,4.44496 -0.0644,2.69774 -0.57495,5.83939 -3.05604,7.40089 -1.79554,1.518 -4.30311,2.97104 -6.61206,1.64135 -3.11474,-1.06655 -1.76494,-5.20135 -0.39349,-7.21959 1.2843,-1.58364 2.29735,-3.68732 4.16257,-4.62478 0.83374,-0.36944 1.66741,-0.73919 2.50118,-1.10843 z"
         id="path4282"
         inkscape:connector-curvature="0" />
    </g>
  </g>
  <metadata
     id="metadata3387">
    <rdf:RDF>
      <cc:Work>
        <dc:format>image/svg+xml</dc:format>
        <dc:type
           rdf:resource="http://purl.org/dc/dcmitype/StillImage" />
        <cc:license
           rdf:resource="http://creativecommons.org/licenses/publicdomain/" />
        <dc:publisher>
          <cc:Agent
             rdf:about="http://openclipart.org/">
            <dc:title>Open Clip Art Library</dc:title>
          </cc:Agent>
        </dc:publisher>
        <dc:title>Home icon</dc:title>
        <dc:date>2008-11-16T07:42:11</dc:date>
        <dc:description>Simple image of a house with thick black contour.</dc:description>
        <dc:source>http://openclipart.org/detail/20195/home-icon-by-pitr-20195</dc:source>
        <dc:creator>
          <cc:Agent>
            <dc:title>pitr</dc:title>
          </cc:Agent>
        </dc:creator>
        <dc:subject>
          <rdf:Bag>
            <rdf:li>building</rdf:li>
            <rdf:li>building</rdf:li>
            <rdf:li>clip art</rdf:li>
            <rdf:li>clipart</rdf:li>
            <rdf:li>contour</rdf:li>
            <rdf:li>contour</rdf:li>
            <rdf:li>cottage</rdf:li>
            <rdf:li>cottage</rdf:li>
            <rdf:li>home</rdf:li>
            <rdf:li>home</rdf:li>
            <rdf:li>house</rdf:li>
            <rdf:li>house</rdf:li>
            <rdf:li>icon</rdf:li>
            <rdf:li>icon</rdf:li>
            <rdf:li>image</rdf:li>
            <rdf:li>media</rdf:li>
            <rdf:li>minimalistic</rdf:li>
            <rdf:li>minimalistic</rdf:li>
            <rdf:li>png</rdf:li>
            <rdf:li>public domain</rdf:li>
            <rdf:li>svg</rdf:li>
          </rdf:Bag>
        </dc:subject>
      </cc:Work>
      <cc:License
         rdf:about="http://creativecommons.org/licenses/publicdomain/">
        <cc:permits
           rdf:resource="http://creativecommons.org/ns#Reproduction" />
        <cc:permits
           rdf:resource="http://creativecommons.org/ns#Distribution" />
        <cc:permits
           rdf:resource="http://creativecommons.org/ns#DerivativeWorks" />
      </cc:License>
    </rdf:RDF>
  </metadata>
</svg>
