<?xml version="1.0" encoding="UTF-8" standalone="no"?>
<!-- Created with Inkscape (http://www.inkscape.org/) -->

<svg
   xmlns:dc="http://purl.org/dc/elements/1.1/"
   xmlns:cc="http://creativecommons.org/ns#"
   xmlns:rdf="http://www.w3.org/1999/02/22-rdf-syntax-ns#"
   xmlns:svg="http://www.w3.org/2000/svg"
   xmlns="http://www.w3.org/2000/svg"
   xmlns:sodipodi="http://sodipodi.sourceforge.net/DTD/sodipodi-0.dtd"
   xmlns:inkscape="http://www.inkscape.org/namespaces/inkscape"
   width="800px"
   height="600px"
   id="svg4061"
   version="1.1"
   inkscape:version="0.48.3.1 r9886"
   inkscape:export-filename="/home/ryan/MyApp6/public/assets/gristech/cloud.png"
   inkscape:export-xdpi="72"
   inkscape:export-ydpi="72"
   sodipodi:docname="New document 7">
  <defs
     id="defs4063" />
  <sodipodi:namedview
     id="base"
     pagecolor="#ffffff"
     bordercolor="#666666"
     borderopacity="1.0"
     inkscape:pageopacity="0.0"
     inkscape:pageshadow="2"
     inkscape:zoom="0.57848045"
     inkscape:cx="400"
     inkscape:cy="300"
     inkscape:current-layer="layer1"
     inkscape:document-units="px"
     showgrid="false"
     inkscape:window-width="806"
     inkscape:window-height="638"
     inkscape:window-x="265"
     inkscape:window-y="181"
     inkscape:window-maximized="0" />
  <metadata
     id="metadata4066">
    <rdf:RDF>
      <cc:Work
         rdf:about="">
        <dc:format>image/svg+xml</dc:format>
        <dc:type
           rdf:resource="http://purl.org/dc/dcmitype/StillImage" />
        <dc:title></dc:title>
      </cc:Work>
    </rdf:RDF>
  </metadata>
  <g
     id="layer1"
     inkscape:label="Layer 1"
     inkscape:groupmode="layer">
    <g
       id="g4956"
       transform="matrix(1.2978859,0,0,1.2978859,-21.985974,378.36674)"
       inkscape:export-filename="/home/ryan/MyApp6/public/assets/gristech/cloud.png"
       inkscape:export-xdpi="72"
       inkscape:export-ydpi="72">
      <path
         inkscape:connector-curvature="0"
         id="path4095-6-0"
         d="m 301.39754,-217.49985 c -23.4693,0 -44.52086,12.06647 -58.83688,31.18341 -4.57252,-0.97271 -9.28243,-1.5028 -14.09026,-1.5028 -37.65357,0 -69.07351,31.09167 -76.44964,72.46388 -21.4973,16.228772 -35.72887,44.432081 -35.72887,76.526192 0,50.315316 34.96868,91.108188 78.10029,91.108188 6.95654,0 13.68953,-1.061636 20.10876,-3.052591 12.28811,31.511816 39.50429,53.420401 71.11551,53.420401 25.47427,0 48.10374,-14.216088 62.35942,-36.231959 6.14109,1.810454 12.55954,2.770823 19.18282,2.770823 13.28285,0 25.80432,-3.860382 36.75543,-10.684086 14.21971,22.50505 37.09815,37.100765 62.90293,37.100765 43.13154,0 78.10022,-40.769384 78.10022,-91.0847173 l -0.0399,-3.3578473 C 543.37399,-46.549833 510.60673,-84.57964 470.07829,-86.520094 c -5.62902,-44.065196 -38.17708,-77.582846 -77.23473,-77.582846 -6.65909,0 -13.13242,0.96482 -19.3036,2.79429 -11.76748,-33.07633 -39.70499,-56.1912 -72.14207,-56.1912 z"
         style="fill:#235d79;fill-opacity:0.65753425;fill-rule:nonzero;stroke:#b3c1bf;stroke-width:17.93310547;stroke-linecap:round;stroke-linejoin:round;stroke-miterlimit:4;stroke-opacity:0.61643832;stroke-dasharray:none;stroke-dashoffset:0" />
      <path
         inkscape:connector-curvature="0"
         id="path4722-0-0-0"
         d="m 212.60789,-100.60489 c -35.97882,0.034 -68.04472,25.682334 -76.79028,64.952904 -10.5607,47.421065 16.8924,96.759464 61.29177,110.182915 27.16463,8.212807 54.37621,1.069721 73.83588,-16.562709 1.46891,0.717147 3.00799,1.324156 4.60113,1.805805 11.99954,3.62788 24.00885,-0.775415 31.21497,-10.214123 5.86053,10.644068 14.86641,19.428922 26.12952,24.406704 13.99426,6.184828 28.67938,5.227634 40.70782,-1.241499 7.57234,7.529672 16.44099,13.771377 26.39591,18.171022 42.88806,18.954591 89.75115,-2.837226 104.6634,-48.644135 14.91224,-45.8069402 -7.77269,-98.310507 -50.66078,-117.265112 -26.23997,-11.596899 -53.96375,-7.930907 -74.94984,7.138617 -1.39349,-0.898532 -2.86848,-1.718222 -4.40738,-2.398345 -14.32427,-6.33068 -29.81578,-0.454349 -36.88162,13.120372 -6.27634,-14.952546 -18.51446,-26.988907 -34.14516,-31.714636 -14.48738,-4.380037 -28.98921,-1.602307 -40.34457,6.348577 -8.22853,-6.528408 -17.61583,-11.584689 -27.92155,-14.700476 -7.63114,-2.307145 -15.27191,-3.392971 -22.73922,-3.385881 z"
         style="fill:#235d79;fill-opacity:0.65753425;fill-rule:nonzero;stroke:#b3c1bf;stroke-width:21.56175041;stroke-linecap:round;stroke-linejoin:round;stroke-miterlimit:4;stroke-opacity:0.61643832;stroke-dasharray:none;stroke-dashoffset:0" />
      <path
         transform="matrix(0.68062212,0,0,0.70592706,158.782,-341.69328)"
         sodipodi:open="true"
         sodipodi:end="6.2464425"
         sodipodi:start="0"
         d="m 359.04411,395.90094 c 0,76.95014 -81.87429,139.33055 -182.87135,139.33055 -100.99706,0 -182.8713531,-62.38041 -182.8713531,-139.33055 0,-76.95014 81.8742931,-139.33055 182.8713531,-139.33055 98.38292,0 179.13387,59.30449 182.74793,134.21231"
         sodipodi:ry="139.33055"
         sodipodi:rx="182.87135"
         sodipodi:cy="395.90094"
         sodipodi:cx="176.17276"
         id="path4012-1"
         style="fill:#235d79;fill-opacity:1;fill-rule:nonzero;stroke:#b3c1bf;stroke-width:25.77700043;stroke-linecap:round;stroke-linejoin:round;stroke-miterlimit:4;stroke-opacity:0.61643832;stroke-dasharray:none;stroke-dashoffset:0"
         sodipodi:type="arc" />
      <text
         transform="scale(0.83722966,1.1944154)"
         sodipodi:linespacing="125%"
         id="text3822-8-1"
         y="-35.792507"
         x="229.60008"
         style="font-size:92.96598053px;font-style:normal;font-variant:normal;font-weight:500;font-stretch:normal;line-height:125%;letter-spacing:0px;word-spacing:0px;fill:#ff8900;fill-opacity:1;stroke:#034769;stroke-width:1.16873181;stroke-miterlimit:4;stroke-opacity:1;stroke-dasharray:none;font-family:Czaristite;-inkscape-font-specification:Czaristite Medium"
         xml:space="preserve"><tspan
           style="font-weight:bold;stroke-width:1.16873181;-inkscape-font-specification:Czaristite Bold"
           y="-35.792507"
           x="229.60008"
           id="tspan3824-7-6"
           sodipodi:role="line">MyApp</tspan></text>
    </g>
  </g>
</svg>
