<?xml version="1.0" encoding="UTF-8" standalone="no"?>
<!-- Created with Inkscape (http://www.inkscape.org/) -->

<svg
   xmlns:dc="http://purl.org/dc/elements/1.1/"
   xmlns:cc="http://creativecommons.org/ns#"
   xmlns:rdf="http://www.w3.org/1999/02/22-rdf-syntax-ns#"
   xmlns:svg="http://www.w3.org/2000/svg"
   xmlns="http://www.w3.org/2000/svg"
   xmlns:sodipodi="http://sodipodi.sourceforge.net/DTD/sodipodi-0.dtd"
   xmlns:inkscape="http://www.inkscape.org/namespaces/inkscape"
   width="600"
   height="300"
   id="svg2"
   version="1.1"
   inkscape:version="0.48.3.1 r9886"
   inkscape:export-filename="/home/ryan/wp/graph.png"
   inkscape:export-xdpi="72.075127"
   inkscape:export-ydpi="72.075127"
   sodipodi:docname="New document 1">
  <defs
     id="defs4" />
  <sodipodi:namedview
     id="base"
     pagecolor="#ffffff"
     bordercolor="#666666"
     borderopacity="1.0"
     inkscape:pageopacity="0.0"
     inkscape:pageshadow="2"
     inkscape:zoom="0.62137308"
     inkscape:cx="643.38476"
     inkscape:cy="128.90298"
     inkscape:document-units="px"
     inkscape:current-layer="layer2"
     showgrid="false"
     inkscape:window-width="1283"
     inkscape:window-height="1016"
     inkscape:window-x="635"
     inkscape:window-y="24"
     inkscape:window-maximized="0" />
  <metadata
     id="metadata7">
    <rdf:RDF>
      <cc:Work
         rdf:about="">
        <dc:format>image/svg+xml</dc:format>
        <dc:type
           rdf:resource="http://purl.org/dc/dcmitype/StillImage" />
        <dc:title></dc:title>
      </cc:Work>
    </rdf:RDF>
  </metadata>
  <g
     inkscape:label="Layer 1"
     inkscape:groupmode="layer"
     id="layer1"
     transform="translate(0,-752.36218)"
     style="display:none">
    <path
       sodipodi:type="arc"
       style="opacity:0.72427984;fill:#086fa1;fill-opacity:0.89803922;fill-rule:nonzero;stroke:#3df94b;stroke-width:0.05227257;stroke-linecap:round;stroke-linejoin:round;stroke-miterlimit:4;stroke-opacity:1;stroke-dasharray:none;stroke-dashoffset:0"
       id="path2985"
       sodipodi:cx="278.69547"
       sodipodi:cy="436.76273"
       sodipodi:rx="224.60266"
       sodipodi:ry="200.49609"
       d="m 503.29813,436.76273 c 0,110.73093 -100.55804,200.49609 -224.60266,200.49609 -124.04463,0 -224.602666,-89.76516 -224.602666,-200.49609 0,-110.73094 100.558036,-200.4961 224.602666,-200.4961 120.83393,0 220.01228,85.33892 224.45106,193.13096"
       sodipodi:start="0"
       sodipodi:end="6.2464425"
       sodipodi:open="true"
       transform="matrix(1.0920171,0,0,1.0920171,1381.1125,403.79386)" />
    <path
       sodipodi:type="arc"
       style="opacity:0.72427984;fill:#235d79;fill-opacity:0.89803922;fill-rule:nonzero;stroke:#3df94b;stroke-width:0.05227257;stroke-linecap:round;stroke-linejoin:round;stroke-miterlimit:4;stroke-opacity:1;stroke-dasharray:none;stroke-dashoffset:0"
       id="path2987"
       sodipodi:cx="344.54755"
       sodipodi:cy="612.56427"
       sodipodi:rx="110.53744"
       sodipodi:ry="114.06522"
       d="m 455.08498,612.56427 c 0,62.99648 -49.48929,114.06522 -110.53743,114.06522 -61.04814,0 -110.53744,-51.06874 -110.53744,-114.06522 0,-62.99648 49.4893,-114.06522 110.53744,-114.06522 61.04814,0 110.53743,51.06874 110.53743,114.06522 z"
       transform="matrix(1.9158116,0,0,1.6426995,-24.616329,-123.38366)" />
    <path
       sodipodi:type="arc"
       style="opacity:0.72427984;fill:#ff8900;fill-opacity:0.89803922;fill-rule:nonzero;stroke:#3df94b;stroke-width:0.05227257;stroke-linecap:round;stroke-linejoin:round;stroke-miterlimit:4;stroke-opacity:1;stroke-dasharray:none;stroke-dashoffset:0"
       id="path2989"
       sodipodi:cx="475.07581"
       sodipodi:cy="332.10495"
       sodipodi:rx="232.83418"
       sodipodi:ry="154.63481"
       d="m 707.90999,332.10495 c 0,85.40245 -104.24342,154.63481 -232.83418,154.63481 -128.59077,0 -232.83419,-69.23236 -232.83419,-154.63481 0,-85.40245 104.24342,-154.63481 232.83419,-154.63481 128.59076,0 232.83418,69.23236 232.83418,154.63481 z"
       transform="matrix(0.4275856,0,0,0.62745943,687.80436,647.41079)" />
    <path
       sodipodi:type="arc"
       style="opacity:0.72427984;fill:#ff8900;fill-opacity:0.89803922;fill-rule:nonzero;stroke:#3df94b;stroke-width:0.05227257;stroke-linecap:round;stroke-linejoin:round;stroke-miterlimit:4;stroke-opacity:1;stroke-dasharray:none;stroke-dashoffset:0"
       id="path2989-3"
       sodipodi:cx="475.07581"
       sodipodi:cy="332.10495"
       sodipodi:rx="232.83418"
       sodipodi:ry="154.63481"
       d="m 707.90999,332.10495 c 0,85.40245 -104.24342,154.63481 -232.83418,154.63481 -128.59077,0 -232.83419,-69.23236 -232.83419,-154.63481 0,-85.40245 104.24342,-154.63481 232.83419,-154.63481 128.59076,0 232.83418,69.23236 232.83418,154.63481 z"
       transform="matrix(0.43498761,0,0,0.62745943,713.8168,729.46112)" />
    <path
       sodipodi:type="arc"
       style="opacity:0.72427984;fill:#a65900;fill-opacity:0.89803922;fill-rule:nonzero;stroke:#3df94b;stroke-width:0.05227257;stroke-linecap:round;stroke-linejoin:round;stroke-miterlimit:4;stroke-opacity:1;stroke-dasharray:none;stroke-dashoffset:0"
       id="path2989-3-0"
       sodipodi:cx="475.07581"
       sodipodi:cy="332.10495"
       sodipodi:rx="232.83418"
       sodipodi:ry="154.63481"
       d="m 707.90999,332.10495 c 0,85.40245 -104.24342,154.63481 -232.83418,154.63481 -128.59077,0 -232.83419,-69.23236 -232.83419,-154.63481 0,-85.40245 104.24342,-154.63481 232.83419,-154.63481 128.59076,0 232.83418,69.23236 232.83418,154.63481 z"
       transform="matrix(0.62745943,0,0,0.94611123,811.56727,716.73835)" />
    <path
       sodipodi:type="arc"
       style="opacity:0.72427984;fill:#ff5900;fill-opacity:0.89803922;fill-rule:nonzero;stroke:#3df94b;stroke-width:0.05227257;stroke-linecap:round;stroke-linejoin:round;stroke-miterlimit:4;stroke-opacity:1;stroke-dasharray:none;stroke-dashoffset:0"
       id="path2991"
       sodipodi:cx="568.56226"
       sodipodi:cy="520.84174"
       sodipodi:rx="147.57924"
       sodipodi:ry="127.00046"
       d="m 716.14149,520.84174 c 0,70.14041 -66.07347,127.00045 -147.57923,127.00045 -81.50577,0 -147.57924,-56.86004 -147.57924,-127.00045 0,-70.14042 66.07347,-127.00046 147.57924,-127.00046 81.50576,0 147.57923,56.86004 147.57923,127.00046 z"
       transform="matrix(1.299762,0,0,1.299762,-32.205979,333.38426)" />
    <path
       sodipodi:type="arc"
       style="opacity:0.72427984;fill:#034769;fill-opacity:0.89803922;fill-rule:nonzero;stroke:#3df94b;stroke-width:0.05227257;stroke-linecap:round;stroke-linejoin:round;stroke-miterlimit:4;stroke-opacity:1;stroke-dasharray:none;stroke-dashoffset:0"
       id="path2985-8"
       sodipodi:cx="278.69547"
       sodipodi:cy="436.76273"
       sodipodi:rx="224.60266"
       sodipodi:ry="200.49609"
       d="m 503.29813,436.76273 c 0,110.73093 -100.55804,200.49609 -224.60266,200.49609 -124.04463,0 -224.602666,-89.76516 -224.602666,-200.49609 0,-110.73094 100.558036,-200.4961 224.602666,-200.4961 120.83393,0 220.01228,85.33892 224.45106,193.13096"
       sodipodi:start="0"
       sodipodi:end="6.2464425"
       sodipodi:open="true"
       transform="matrix(1.0920171,0,0,1.0920171,1212.5403,364.9709)" />
    <path
       sodipodi:type="arc"
       style="opacity:0.72427984;fill:#086fa1;fill-opacity:0.89803922;fill-rule:nonzero;stroke:#3df94b;stroke-width:0.05227257;stroke-linecap:round;stroke-linejoin:round;stroke-miterlimit:4;stroke-opacity:1;stroke-dasharray:none;stroke-dashoffset:0"
       id="path2985-8-4"
       sodipodi:cx="278.69547"
       sodipodi:cy="436.76273"
       sodipodi:rx="224.60266"
       sodipodi:ry="200.49609"
       d="m 503.29813,436.76273 c 0,110.73093 -100.55804,200.49609 -224.60266,200.49609 -124.04463,0 -224.602666,-89.76516 -224.602666,-200.49609 0,-110.73094 100.558036,-200.4961 224.602666,-200.4961 120.83393,0 220.01228,85.33892 224.45106,193.13096"
       sodipodi:start="0"
       sodipodi:end="6.2464425"
       sodipodi:open="true"
       transform="matrix(1.0920171,0,0,1.0920171,1284.7763,541.67835)" />
    <path
       sodipodi:type="arc"
       style="opacity:0.72427984;fill:#086fa1;fill-opacity:0.89803922;fill-rule:nonzero;stroke:#3df94b;stroke-width:0.05227257;stroke-linecap:round;stroke-linejoin:round;stroke-miterlimit:4;stroke-opacity:1;stroke-dasharray:none;stroke-dashoffset:0"
       id="path2985-8-45"
       sodipodi:cx="278.69547"
       sodipodi:cy="436.76273"
       sodipodi:rx="224.60266"
       sodipodi:ry="200.49609"
       d="m 503.29813,436.76273 c 0,110.73093 -100.55804,200.49609 -224.60266,200.49609 -124.04463,0 -224.602666,-89.76516 -224.602666,-200.49609 0,-110.73094 100.558036,-200.4961 224.602666,-200.4961 120.83393,0 220.01228,85.33892 224.45106,193.13096"
       sodipodi:start="0"
       sodipodi:end="6.2464425"
       sodipodi:open="true"
       transform="matrix(0.94319419,0,0,0.94319419,259.52911,610.18339)" />
    <path
       style="opacity:0.72427984;fill:#ffbe73;fill-opacity:0.89803922;fill-rule:nonzero;stroke:#3df94b;stroke-width:0.04265095;stroke-linecap:round;stroke-linejoin:round;stroke-miterlimit:4;stroke-opacity:1;stroke-dasharray:none;stroke-dashoffset:0"
       d="m 699.15885,1070.5936 c -91.3696,-37.7028 5.28334,-69.4909 10.57932,-108.41317 0.92021,-59.87045 -122.09587,-108.77702 -274.82595,-109.2297 -152.73009,-0.45268 -277.30527,47.72005 -278.22549,107.5905 l 0.13938,4.0027 c 4.44124,56.66157 119.25033,102.18677 262.29056,105.10197 l -0.002,0.1176 z"
       id="path2985-8-1"
       inkscape:connector-curvature="0"
       sodipodi:nodetypes="ccsccccc"
       inkscape:export-xdpi="90"
       inkscape:export-ydpi="90" />
    <path
       sodipodi:type="arc"
       style="opacity:0.72427984;fill:#086fa1;fill-opacity:0.89803922;fill-rule:nonzero;stroke:#3df94b;stroke-width:0.05227257;stroke-linecap:round;stroke-linejoin:round;stroke-miterlimit:4;stroke-opacity:1;stroke-dasharray:none;stroke-dashoffset:0"
       id="path2985-6"
       sodipodi:cx="278.69547"
       sodipodi:cy="436.76273"
       sodipodi:rx="224.60266"
       sodipodi:ry="200.49609"
       d="m 503.29813,436.76273 c 0,110.73093 -100.55804,200.49609 -224.60266,200.49609 -124.04463,0 -224.602666,-89.76516 -224.602666,-200.49609 0,-110.73094 100.558036,-200.4961 224.602666,-200.4961 120.83393,0 220.01228,85.33892 224.45106,193.13096"
       sodipodi:start="0"
       sodipodi:end="6.2464425"
       sodipodi:open="true"
       transform="matrix(1.0920171,0,0,1.0920171,1125.3766,463.48595)" />
    <path
       sodipodi:type="arc"
       style="opacity:0.72427984;fill:#235d79;fill-opacity:0.89803922;fill-rule:nonzero;stroke:#3df94b;stroke-width:0.05227257;stroke-linecap:round;stroke-linejoin:round;stroke-miterlimit:4;stroke-opacity:1;stroke-dasharray:none;stroke-dashoffset:0"
       id="path2987-3"
       sodipodi:cx="344.54755"
       sodipodi:cy="612.56427"
       sodipodi:rx="110.53744"
       sodipodi:ry="114.06522"
       d="m 455.08498,612.56427 c 0,62.99648 -49.48929,114.06522 -110.53743,114.06522 -61.04814,0 -110.53744,-51.06874 -110.53744,-114.06522 0,-62.99648 49.4893,-114.06522 110.53744,-114.06522 61.04814,0 110.53743,51.06874 110.53743,114.06522 z"
       transform="translate(629.5752,235.95403)" />
    <path
       sodipodi:type="arc"
       style="opacity:0.72427984;fill:#ff8900;fill-opacity:0.89803922;fill-rule:nonzero;stroke:#3df94b;stroke-width:0.05227257;stroke-linecap:round;stroke-linejoin:round;stroke-miterlimit:4;stroke-opacity:1;stroke-dasharray:none;stroke-dashoffset:0"
       id="path2989-3-2"
       sodipodi:cx="475.07581"
       sodipodi:cy="332.10495"
       sodipodi:rx="232.83418"
       sodipodi:ry="154.63481"
       d="m 707.90999,332.10495 c 0,85.40245 -104.24342,154.63481 -232.83418,154.63481 -128.59077,0 -232.83419,-69.23236 -232.83419,-154.63481 0,-85.40245 104.24342,-154.63481 232.83419,-154.63481 128.59076,0 232.83418,69.23236 232.83418,154.63481 z"
       transform="matrix(0.38196849,0,0,0.56588428,871.78706,687.32989)" />
    <path
       sodipodi:type="arc"
       style="opacity:0.72427984;fill:#ff5900;fill-opacity:0.89803922;fill-rule:nonzero;stroke:#3df94b;stroke-width:0.05227257;stroke-linecap:round;stroke-linejoin:round;stroke-miterlimit:4;stroke-opacity:1;stroke-dasharray:none;stroke-dashoffset:0"
       id="path2991-8"
       sodipodi:cx="568.56226"
       sodipodi:cy="520.84174"
       sodipodi:rx="147.57924"
       sodipodi:ry="127.00046"
       d="m 716.14149,520.84174 c 0,70.14041 -66.07347,127.00045 -147.57923,127.00045 -81.50577,0 -147.57924,-56.86004 -147.57924,-127.00045 0,-70.14042 66.07347,-127.00046 147.57924,-127.00046 81.50576,0 147.57923,56.86004 147.57923,127.00046 z"
       transform="matrix(1.299762,0,0,1.299762,210.45781,450.4624)" />
    <path
       sodipodi:type="arc"
       style="opacity:0.72427984;fill:#086fa1;fill-opacity:0.89803922;fill-rule:nonzero;stroke:#3df94b;stroke-width:0.05227257;stroke-linecap:round;stroke-linejoin:round;stroke-miterlimit:4;stroke-opacity:1;stroke-dasharray:none;stroke-dashoffset:0"
       id="path2985-8-7"
       sodipodi:cx="278.69547"
       sodipodi:cy="436.76273"
       sodipodi:rx="224.60266"
       sodipodi:ry="200.49609"
       d="m 503.29813,436.76273 c 0,110.73093 -100.55804,200.49609 -224.60266,200.49609 -124.04463,0 -224.602666,-89.76516 -224.602666,-200.49609 0,-110.73094 100.558036,-200.4961 224.602666,-200.4961 120.83393,0 220.01228,85.33892 224.45106,193.13096"
       sodipodi:start="0"
       sodipodi:end="6.2464425"
       sodipodi:open="true"
       transform="matrix(0.57417331,0,0,0.57417331,1146.0275,551.72084)" />
  </g>
  <g
     inkscape:groupmode="layer"
     id="layer2"
     inkscape:label="Graph"
     style="display:inline"
     transform="translate(0,70)">
    <rect
       style="opacity:0.76131688;color:#000000;fill:#3ca0d0;fill-opacity:0.72602737;fill-rule:nonzero;stroke:#034769;stroke-width:7.36534834;stroke-linecap:round;stroke-linejoin:round;stroke-miterlimit:4;stroke-opacity:0.66666667;stroke-dasharray:none;stroke-dashoffset:0;marker:none;visibility:visible;display:inline;overflow:visible;enable-background:accumulate"
       id="rect3139"
       width="256.54712"
       height="156.3334"
       x="57.040039"
       y="35.58997" />
    <path
       style="fill:none;stroke:#ff5900;stroke-width:5.06070185;stroke-linecap:butt;stroke-linejoin:miter;stroke-miterlimit:4;stroke-opacity:1;stroke-dasharray:none"
       d="m 57.841753,174.91002 c 0,0 28.341798,10.02628 40.085483,-38.86977 4.037044,-16.80857 23.500884,-57.568752 38.360044,-42.130881 9.00484,9.355541 18.14323,-28.298922 42.86903,-19.544417 14.38357,5.092701 30.81737,14.736077 42.22822,3.652343 27.78619,-26.989642 91.47795,-29.179167 93.00436,-27.194838"
       id="path3141"
       inkscape:connector-curvature="0"
       sodipodi:nodetypes="cssssc" />
    <path
       style="fill:none;stroke:#034769;stroke-width:4.95319033;stroke-linecap:butt;stroke-linejoin:miter;stroke-miterlimit:4;stroke-opacity:1;stroke-dasharray:none"
       d="M 56.986284,190.53627 C 101.47165,177.12396 196.1831,120.42168 225.6726,128.80415 c 33.11449,-12.39567 17.29264,-20.61456 37.43369,-39.493028 19.06507,-17.86994 49.33896,-22.484084 49.73293,-22.96995"
       id="path3141-7"
       inkscape:connector-curvature="0"
       sodipodi:nodetypes="ccsc" />
    <path
       style="fill:none;stroke:#ff5900;stroke-width:1.17582762;stroke-linecap:butt;stroke-linejoin:miter;stroke-miterlimit:4;stroke-opacity:1;stroke-dasharray:none"
       d="m 347.72168,81.638278 c 0,0 6.58507,2.32956 9.31365,-9.031162 0.93798,-3.905395 5.46031,-13.375806 8.91275,-9.788897 2.09223,2.17371 4.21549,-6.575108 9.9604,-4.541044 3.34195,1.18326 7.16025,3.42385 9.81151,0.848601 6.45597,-6.270901 21.25442,-6.779625 21.60907,-6.318576"
       id="path3141-7-4"
       inkscape:connector-curvature="0"
       sodipodi:nodetypes="cssssc" />
    <path
       style="fill:none;stroke:#034769;stroke-width:1.14680386;stroke-linecap:butt;stroke-linejoin:miter;stroke-miterlimit:4;stroke-opacity:1;stroke-dasharray:none"
       d="m 351.31486,122.43946 c 10.07658,-3.17408 31.53009,-16.59286 38.20988,-14.60911 7.50091,-2.93349 3.91704,-4.87851 8.47928,-9.346147 4.31851,-4.229006 11.17598,-5.320946 11.26522,-5.435938"
       id="path3141-7-9"
       inkscape:connector-curvature="0"
       sodipodi:nodetypes="ccsc" />
    <path
       style="fill:none;stroke:#00a876;stroke-width:4.76153088;stroke-linecap:butt;stroke-linejoin:miter;stroke-miterlimit:4;stroke-opacity:1;stroke-dasharray:none"
       d="M 308.52565,131.45516 C 292.38776,124.19095 282.53254,86.424212 239.22972,93.579136 182.02469,103.03113 131.03794,107.44198 113.9686,139.51304 c -8.47658,15.92638 -38.317688,9.9586 -53.422535,24.29912"
       id="path3141-7-6"
       inkscape:connector-curvature="0"
       sodipodi:nodetypes="cssc" />
    <path
       style="fill:none;stroke:#00a876;stroke-width:1.06108546;stroke-linecap:butt;stroke-linejoin:miter;stroke-miterlimit:4;stroke-opacity:1;stroke-dasharray:none"
       d="m 406.55707,155.58621 c -3.59624,-1.6188 -5.79244,-10.03494 -15.44228,-8.4405 -12.74788,2.10634 -24.11004,3.08927 -27.91387,10.23617 -1.88897,3.54911 -8.53892,2.21922 -11.90496,5.41494"
       id="path3141-7-6-6"
       inkscape:connector-curvature="0"
       sodipodi:nodetypes="cssc" />
    <text
       xml:space="preserve"
       style="font-size:18.5996666px;font-style:normal;font-variant:normal;font-weight:500;font-stretch:normal;line-height:125%;letter-spacing:0px;word-spacing:0px;fill:#000000;fill-opacity:1;stroke:none;font-family:Czaristite;-inkscape-font-specification:Czaristite Medium"
       x="441.86072"
       y="59.641251"
       id="text4020"
       sodipodi:linespacing="125%"><tspan
         sodipodi:role="line"
         id="tspan4022"
         x="441.86072"
         y="59.641251">My Sales</tspan></text>
    <text
       xml:space="preserve"
       style="font-size:18.5996666px;font-style:normal;font-variant:normal;font-weight:500;font-stretch:normal;line-height:125%;letter-spacing:0px;word-spacing:0px;fill:#000000;fill-opacity:1;stroke:none;font-family:Czaristite;-inkscape-font-specification:Czaristite Medium"
       x="439.15424"
       y="108.67737"
       id="text4020-5"
       sodipodi:linespacing="125%"><tspan
         sodipodi:role="line"
         id="tspan4022-7"
         x="439.15424"
         y="108.67737">Responsibility</tspan></text>
    <text
       xml:space="preserve"
       style="font-size:18.5996666px;font-style:normal;font-variant:normal;font-weight:500;font-stretch:normal;line-height:125%;letter-spacing:0px;word-spacing:0px;fill:#000000;fill-opacity:1;stroke:none;font-family:Czaristite;-inkscape-font-specification:Czaristite Medium"
       x="440.75766"
       y="155.17653"
       id="text4020-9"
       sodipodi:linespacing="125%"><tspan
         sodipodi:role="line"
         id="tspan4022-5"
         x="440.75766"
         y="155.17653">Pay &amp; Opportunity</tspan></text>
    <text
       xml:space="preserve"
       style="font-size:40px;font-style:normal;font-variant:normal;font-weight:500;font-stretch:normal;line-height:125%;letter-spacing:0px;word-spacing:0px;fill:#000000;fill-opacity:1;stroke:none;font-family:Czaristite;-inkscape-font-specification:Czaristite Medium"
       x="87.01049"
       y="-9.3107758"
       id="text4132"
       sodipodi:linespacing="125%"><tspan
         sodipodi:role="line"
         id="tspan4134"
         x="87.01049"
         y="-9.3107758"
         style="font-weight:bold;-inkscape-font-specification:Czaristite Bold">Chase Performance, 2011-2013</tspan></text>
    <rect
       style="opacity:0.76131687999999986;color:#000000;fill:#034769;fill-opacity:0.72602736999999984;fill-rule:nonzero;stroke:#034769;stroke-width:15.83974266000000064;stroke-linecap:round;stroke-linejoin:round;stroke-miterlimit:4;stroke-opacity:0.66666667000000002;stroke-dasharray:none;stroke-dashoffset:0;marker:none;visibility:visible;display:inline;overflow:visible;enable-background:accumulate"
       id="rect4136"
       width="372.41379"
       height="194.82759"
       x="213.79311"
       y="-368.96552"
       transform="translate(0,-70)" />
  </g>
</svg>
