<?xml version="1.0" encoding="UTF-8" standalone="no"?>
<!-- Created with Inkscape (http://www.inkscape.org/) -->

<svg
   xmlns:dc="http://purl.org/dc/elements/1.1/"
   xmlns:cc="http://creativecommons.org/ns#"
   xmlns:rdf="http://www.w3.org/1999/02/22-rdf-syntax-ns#"
   xmlns:svg="http://www.w3.org/2000/svg"
   xmlns="http://www.w3.org/2000/svg"
   xmlns:sodipodi="http://sodipodi.sourceforge.net/DTD/sodipodi-0.dtd"
   xmlns:inkscape="http://www.inkscape.org/namespaces/inkscape"
   width="640px"
   height="480px"
   id="svg19912"
   version="1.1"
   inkscape:version="0.48.3.1 r9886"
   sodipodi:docname="gristech.svg">
  <sodipodi:namedview
     id="base"
     pagecolor="#ffffff"
     bordercolor="#666666"
     borderopacity="1.0"
     inkscape:pageopacity="0.0"
     inkscape:pageshadow="2"
     inkscape:zoom="2.4240332"
     inkscape:cx="320"
     inkscape:cy="513.07923"
     inkscape:current-layer="layer1"
     inkscape:document-units="px"
     showgrid="false"
     inkscape:window-width="1312"
     inkscape:window-height="835"
     inkscape:window-x="441"
     inkscape:window-y="110"
     inkscape:window-maximized="0" />
  <defs
     id="defs19914">
    <inkscape:perspective
       sodipodi:type="inkscape:persp3d"
       inkscape:vp_x="-1408.8952 : -122.37643 : 1"
       inkscape:vp_y="-128.95115 : 991.65095 : 0"
       inkscape:vp_z="1642.3811 : 554.98632 : 1"
       inkscape:persp3d-origin="-40.890624 : 223.43238 : 1"
       id="perspective22054" />
    <filter
       color-interpolation-filters="sRGB"
       x="0"
       y="0"
       height="1"
       width="1"
       inkscape:menu-tooltip="Creates an approximative semi-transparent and colorizable image of the saturation levels"
       inkscape:menu="Transparency utilities"
       inkscape:label="Saturation map"
       id="filter21084">
      <feColorMatrix
         in="SourceGraphic"
         result="r"
         type="matrix"
         values="1 0 0 0 0 1 0 0 0 0 1 0 0 0 0 0 0 0 0 1 "
         id="feColorMatrix21086" />
      <feColorMatrix
         in="SourceGraphic"
         result="g"
         type="matrix"
         values="0 1 0 0 0 0 1 0 0 0 0 1 0 0 0 0 0 0 0 1 "
         id="feColorMatrix21088" />
      <feColorMatrix
         in="SourceGraphic"
         result="b"
         type="matrix"
         values="0 0 1 0 0 0 0 1 0 0 0 0 1 0 0 0 0 0 0 1 "
         id="feColorMatrix21090" />
      <feBlend
         mode="darken"
         in="r"
         result="minrg"
         in2="g"
         id="feBlend21092" />
      <feBlend
         mode="darken"
         in="minrg"
         result="p"
         in2="b"
         id="feBlend21094" />
      <feBlend
         mode="lighten"
         in="r"
         result="maxrg"
         in2="g"
         id="feBlend21096" />
      <feBlend
         mode="lighten"
         in="maxrg"
         result="q"
         in2="b"
         id="feBlend21098" />
      <feComponentTransfer
         in="q"
         result="q2"
         id="feComponentTransfer21100">
        <feFuncR
           type="linear"
           slope="0"
           id="feFuncR21102" />
      </feComponentTransfer>
      <feBlend
         mode="lighten"
         in="p"
         result="pq"
         in2="q2"
         id="feBlend21104" />
      <feColorMatrix
         in="pq"
         result="qminp"
         type="matrix"
         values="-1 1 0 0 0 -1 1 0 0 0 -1 1 0 0 0 0 0 0 0 1 "
         id="feColorMatrix21106" />
      <feColorMatrix
         in="qminp"
         result="result1"
         type="luminanceToAlpha"
         id="feColorMatrix21108" />
      <feComposite
         result="result3"
         in="result1"
         operator="arithmetic"
         k1="1"
         k3="0"
         k2="0"
         in2="qminp"
         id="feComposite21110" />
      <feComposite
         result="fbSourceGraphic"
         operator="in"
         in="result3"
         in2="SourceGraphic"
         id="feComposite21112" />
      <feFlood
         in="result3"
         result="result1"
         flood-color="rgb(255,204,0)"
         id="feFlood21114" />
      <feComposite
         result="result2"
         operator="in"
         in2="fbSourceGraphic"
         id="feComposite21116" />
    </filter>
    <filter
       id="filter22084"
       inkscape:label="Button"
       x="0"
       y="0"
       width="1"
       height="1"
       inkscape:menu="Bevels"
       inkscape:menu-tooltip="Soft bevel, slightly depressed middle"
       color-interpolation-filters="sRGB">
      <feGaussianBlur
         id="feGaussianBlur22086"
         stdDeviation="2.3"
         in="SourceAlpha"
         result="result0" />
      <feMorphology
         id="feMorphology22088"
         in="SourceAlpha"
         radius="6.6"
         result="result1" />
      <feGaussianBlur
         id="feGaussianBlur22090"
         stdDeviation="8.9"
         in="result1" />
      <feColorMatrix
         id="feColorMatrix22092"
         values="1 0 0 0 0 0 1 0 0 0 0 0 1 0 0 0 0 0 0.3 0"
         result="result91" />
      <feComposite
         id="feComposite22094"
         in2="result91"
         in="result0"
         operator="out"
         result="result2" />
      <feGaussianBlur
         id="feGaussianBlur22096"
         stdDeviation="1.7"
         result="result4" />
      <feDiffuseLighting
         id="feDiffuseLighting22098"
         surfaceScale="10"
         result="result92">
        <feDistantLight
           id="feDistantLight22100"
           azimuth="225"
           elevation="45" />
      </feDiffuseLighting>
      <feBlend
         id="feBlend22102"
         in2="SourceGraphic"
         mode="multiply"
         result="result93" />
      <feComposite
         id="feComposite22104"
         in2="SourceAlpha"
         operator="in"
         result="result3" />
      <feSpecularLighting
         id="feSpecularLighting22106"
         in="result4"
         surfaceScale="5"
         specularExponent="17.9"
         result="result94">
        <feDistantLight
           id="feDistantLight22108"
           azimuth="225"
           elevation="45" />
      </feSpecularLighting>
      <feComposite
         id="feComposite22110"
         in2="result3"
         operator="atop" />
    </filter>
  </defs>
  <metadata
     id="metadata19917">
    <rdf:RDF>
      <cc:Work
         rdf:about="">
        <dc:format>image/svg+xml</dc:format>
        <dc:type
           rdf:resource="http://purl.org/dc/dcmitype/StillImage" />
        <dc:title />
      </cc:Work>
    </rdf:RDF>
  </metadata>
  <g
     inkscape:groupmode="layer"
     inkscape:label="Layer 1"
     id="layer1">
    <rect
       ry="20.282768"
       rx="123.6968"
       y="27.817015"
       x="76.693359"
       height="81.538948"
       width="151.59227"
       id="rect19920"
       style="fill:#6c5353;fill-opacity:0.64383563;stroke:none"
       inkscape:export-filename="/home/ryan/MyApp6/public/assets/gristech/gristech.png"
       inkscape:export-xdpi="72"
       inkscape:export-ydpi="72" />
    <rect
       ry="18.063227"
       rx="374.55997"
       y="25.869719"
       x="103.92875"
       height="75.950562"
       width="132.0083"
       id="rect19922-7"
       style="fill:#50538f;fill-opacity:0.52968038;stroke:none"
       inkscape:export-filename="/home/ryan/MyApp6/public/assets/gristech/gristech.png"
       inkscape:export-xdpi="72"
       inkscape:export-ydpi="72" />
    <rect
       ry="20.282768"
       rx="123.6968"
       y="34.02853"
       x="63.31604"
       height="81.538948"
       width="151.59227"
       id="rect19920-2"
       style="fill:#b1a764;fill-opacity:0.64383563;stroke:none"
       inkscape:export-filename="/home/ryan/MyApp6/public/assets/gristech/gristech.png"
       inkscape:export-xdpi="72"
       inkscape:export-ydpi="72" />
    <rect
       ry="20.282768"
       rx="123.6968"
       y="39.648708"
       x="49.930786"
       height="81.538948"
       width="151.59227"
       id="rect19920-2-7"
       style="fill:#6c5353;fill-opacity:0.64383563;stroke:none"
       inkscape:export-filename="/home/ryan/MyApp6/public/assets/gristech/gristech.png"
       inkscape:export-xdpi="72"
       inkscape:export-ydpi="72" />
    <rect
       ry="62.931847"
       rx="322.29614"
       y="103.86684"
       x="68.667427"
       height="252.9929"
       width="394.97873"
       id="rect19920-2-7-9"
       style="fill:#6c5353;fill-opacity:0.64383563;stroke:none;filter:url(#filter21084)"
       transform="matrix(0.38379858,0,0,0.32229739,16.531461,10.905484)"
       inkscape:export-filename="/home/ryan/MyApp6/public/assets/gristech/gristech.png"
       inkscape:export-xdpi="72"
       inkscape:export-ydpi="72" />
    <g
       id="text19926"
       style="font-size:199.64938354px;font-style:normal;font-weight:normal;line-height:125%;letter-spacing:0px;word-spacing:0px;fill:#000000;fill-opacity:1;stroke:none;filter:url(#filter22084);font-family:Sans"
       transform="matrix(0.40130171,-0.06388633,0.09784078,0.45644704,8.3317648,-9.1111084)"
       inkscape:export-filename="/home/ryan/MyApp6/public/assets/gristech/gristech.png"
       inkscape:export-xdpi="72"
       inkscape:export-ydpi="72">
      <path
         sodipodi:nodetypes="ccccccccssscccscssccsccscsc"
         inkscape:connector-curvature="0"
         id="path20041"
         style="font-style:italic;font-variant:normal;font-weight:bold;font-stretch:normal;font-family:URW Chancery L;-inkscape-font-specification:URW Chancery L Bold Italic"
         d="m 129.38689,204.32634 4.19264,0 9.18387,-5.59019 c -7.98597,-0.59894 -26.35373,-0.99824 -44.921109,-0.99824 l -12.178612,6.18913 0,1.59719 c 9.982459,-0.59895 19.765301,-0.99825 29.148811,-1.19789 l -7.18738,28.74951 c -8.385265,7.98596 -20.364246,13.37651 -29.548108,13.37651 -14.77404,0 -23.957926,-11.57969 -23.957926,-29.74776 0,-38.93159 26.353747,-75.26782 54.304634,-75.26782 8.18561,0 15.17336,3.39405 18.96669,9.38352 2.59544,3.99298 3.59369,7.38704 4.79158,15.7723 l 14.77406,-16.5709 c -3.79334,-11.38 -11.18038,-15.7723 -26.35372,-15.7723 -21.76176,0 -41.527087,8.98424 -57.499022,26.15407 -16.171584,17.36948 -26.353718,41.92639 -26.353718,62.88956 0,19.36597 10.581434,31.34495 27.751264,31.34495 12.378249,0 22.959697,-3.1944 40.728476,-12.17861 -2.99474,11.97895 -6.588433,24.95618 -8.385276,29.34846 -3.992984,10.78105 -9.78283,15.17335 -20.364237,15.17335 -5.789826,0 -62.331265,7.98292 -80.9267488,-9.02244 l -50.4680202,21.08023 c 7.187371,0.79859 111.829133,0.32047 115.822117,0.32047 15.971935,0 29.548122,-7.18739 42.724965,-22.56038 8.58492,-9.78281 12.17862,-18.16812 17.96845,-41.32742 l 7.78632,-31.1453" />
      <path
         id="path20043"
         style="font-style:italic;font-variant:normal;font-weight:bold;font-stretch:normal;font-family:URW Chancery L;-inkscape-font-specification:URW Chancery L Bold Italic"
         d="m 154.77044,254.23868 15.37301,-5.78983 14.9737,-56.90008 c 6.78807,-4.99122 11.38002,-6.98772 16.77055,-6.98772 4.39228,0 6.98773,1.5972 10.58141,6.18913 l 5.98949,-18.96669 c -3.79334,-1.1979 -5.39054,-1.5972 -7.38703,-1.5972 -3.59369,0 -7.78633,1.79685 -13.17686,5.59018 l -11.77931,8.58493 c 0.19965,-1.5972 0.59894,-2.59545 0.59894,-3.19439 1.5972,-6.58843 1.79685,-7.78633 1.79685,-8.78458 0,-1.19789 -1.1979,-2.19614 -2.59544,-2.19614 -2.59544,0 -20.1646,8.58493 -32.3432,15.97195 l -0.59895,5.39053 c 10.78105,-5.59017 11.97896,-5.98948 14.37475,-5.98948 2.59544,0 3.79334,1.39755 3.79334,4.19264 0,2.79509 -1.99649,12.17862 -4.39228,20.76354 l -11.97897,43.72321"
         inkscape:connector-curvature="0" />
      <path
         sodipodi:nodetypes="cccccssccccsscssccsscsscccc"
         inkscape:connector-curvature="0"
         id="path20045"
         style="font-style:italic;font-variant:normal;font-weight:bold;font-stretch:normal;font-family:URW Chancery L;-inkscape-font-specification:URW Chancery L Bold Italic"
         d="m 245.16794,153.61539 c 5.78982,-5.19088 20.10855,-16.82571 32.13395,-18.10697 -1.1979,-2.39579 110.70639,-32.31039 172.52425,-14.66093 -40.83818,-24.776296 -140.75041,6.63447 -198.01516,6.43473 -0.3993,-0.7986 -0.0546,2.97419 -0.45391,1.97595 -0.99825,0.79859 -2.19615,1.59719 -2.79509,2.19614 -0.7986,0.7986 -2.3958,1.9965 -4.39229,3.59369 -0.99825,0.7986 -2.39579,1.79685 -4.19264,2.99474 -0.79859,0.59895 -1.59719,1.1979 -2.39579,1.5972 1.39755,4.39228 3.1944,7.58668 7.58668,13.97545 m 13.77581,75.46747 c -18.96668,10.18211 -19.366,10.38177 -21.96144,10.38177 -2.19614,0 -3.59369,-2.19615 -3.59369,-5.59019 0,-1.99649 0.59895,-5.78983 1.79685,-10.18211 10.18211,-41.92633 12.17861,-49.91235 12.17861,-51.50955 0,-1.19789 -0.99825,-1.99649 -2.39579,-1.99649 -3.39404,0 -15.17337,6.58844 -31.5446,17.56915 l -0.3993,5.59018 c 11.7793,-6.38877 12.77756,-6.78808 14.5744,-6.78808 1.5972,0 2.39579,1.1979 2.39579,3.59369 0,2.59544 -0.59895,5.39054 -3.59368,16.77055 -9.38352,34.9386 -9.38353,34.93864 -9.38353,39.92987 0,4.79158 1.9965,7.98598 4.79159,7.98598 3.39404,0 8.78458,-2.59545 19.36599,-9.38352 3.79333,-2.39579 7.58668,-4.79159 11.38002,-7.38703 1.79684,-0.99824 3.59369,-2.19614 5.59018,-3.39404 l 0.7986,-5.59018" />
      <path
         id="path20047"
         style="font-style:italic;font-variant:normal;font-weight:bold;font-stretch:normal;font-family:URW Chancery L;-inkscape-font-specification:URW Chancery L Bold Italic"
         d="m 253.40036,235.67129 c -0.19965,1.79684 -0.3993,3.39404 -0.3993,4.59193 0,8.58492 5.98949,14.57441 14.77405,14.57441 6.18913,0 14.77406,-2.59545 21.16284,-6.18913 11.7793,-6.78807 18.96669,-16.97021 18.96669,-26.95267 0,-7.38702 -1.39756,-8.98423 -12.57791,-15.97195 -6.78807,-4.39228 -9.58317,-8.18563 -9.58317,-13.37651 0,-6.78807 5.78984,-12.77756 12.57791,-12.77756 4.59193,0 7.98598,2.19615 12.37826,7.78633 6.78807,-6.58843 6.78808,-6.58844 9.38352,-10.38177 -3.99298,-4.79158 -7.78633,-6.78808 -13.37651,-6.78808 -14.57439,0 -33.34144,17.36951 -33.34144,30.54636 0,6.18912 3.19439,10.98072 10.78106,16.37125 9.98246,6.98772 11.38002,8.78457 11.38002,13.7758 0,7.18737 -9.18388,15.57266 -16.9702,15.57266 -4.39228,0 -7.78633,-2.3958 -9.78282,-6.78808 -1.39754,-2.99474 -1.79685,-5.98949 -1.99649,-12.77756 -2.19615,1.59719 -3.79334,2.59544 -4.59194,3.19439 -1.59719,0.99824 -3.39404,1.99649 -5.19088,3.19439 l -3.59369,2.39579"
         inkscape:connector-curvature="0" />
      <path
         sodipodi:nodetypes="cssccccccccsccssccccccssc"
         inkscape:connector-curvature="0"
         id="path20049"
         style="font-style:italic;font-variant:normal;font-weight:bold;font-stretch:normal;font-family:URW Chancery L;-inkscape-font-specification:URW Chancery L Bold Italic"
         d="m 691.23538,181.11698 c -86.70248,-21.72287 -331.56387,58.34357 -334.35425,58.34765 -2.59528,0.004 -5.78983,-5.19089 -5.78983,-9.38352 0,-2.79509 3.39404,-18.16812 8.58492,-39.13128 2.79509,-0.19965 4.79159,-0.19965 5.78983,-0.19965 l 7.98598,-0.19965 c 0.84315,0.0748 39.47717,-46.47741 131.07808,-19.76783 l -32.96853,-12.58478 c -99.21754,-9.14998 -83.58027,29.15779 -110.08851,25.96383 l 7.98597,-32.3432 c -3.79333,1.99649 -5.39053,2.59544 -8.38527,3.99299 -1.39755,0.79859 -2.99475,1.39754 -4.59194,2.19614 -0.7986,0.3993 -1.79684,0.7986 -2.79509,1.19789 l -5.59018,24.95618 c -1.79685,0.19965 -2.99474,0.19965 -3.59369,0.19965 l -4.79159,0 c -0.3993,0 -1.39754,0 -2.99474,0.19965 -2.19614,1.39754 -2.39579,1.39754 -5.78983,4.19263 -0.59895,0.3993 -1.5972,1.1979 -2.99474,2.19615 l 4.79158,0 9.18388,0 4.39228,0 c -10.5814,44.32212 -10.58141,44.32217 -10.58141,50.51129 0,6.38877 4.19264,13.37651 7.98597,13.37651 4.39228,0 269.79187,-96.75171 364.48234,-66.94394" />
      <path
         id="path20051"
         style="font-style:italic;font-variant:normal;font-weight:bold;font-stretch:normal;font-family:URW Chancery L;-inkscape-font-specification:URW Chancery L Bold Italic"
         d="m 448.58259,224.89022 c -14.97369,12.9772 -24.55688,18.56739 -32.14355,18.56739 -4.99123,0 -9.18387,-3.39404 -10.58142,-8.58492 -0.79859,-3.19439 -0.99825,-5.39054 -0.99825,-11.18036 8.98422,-5.59018 14.97372,-9.78283 26.75302,-18.5674 10.78106,-8.18561 14.97371,-14.77406 14.97371,-23.75827 0,-6.98773 -4.3923,-11.18037 -11.38002,-11.18037 -4.39228,0 -7.58668,0.99825 -12.17861,3.59369 -7.58667,4.39228 -14.37476,9.78282 -18.56739,14.5744 -7.58667,9.18387 -14.37476,31.14532 -14.37476,47.31691 0,11.7793 6.18914,19.16634 16.37125,19.16634 11.7793,0 26.35373,-8.38529 42.12602,-24.15758 l 0,-5.78983 m -43.12427,-8.38527 c 3.39404,-21.36246 12.57792,-37.93339 21.16284,-37.93339 3.39403,0 5.59018,3.39405 5.59018,8.18563 0,9.98246 -5.39055,15.97196 -26.75302,29.74776"
         inkscape:connector-curvature="0" />
      <path
         id="path20053"
         style="font-style:italic;font-variant:normal;font-weight:bold;font-stretch:normal;font-family:URW Chancery L;-inkscape-font-specification:URW Chancery L Bold Italic"
         d="m 517.03112,226.88672 c -15.37299,10.9807 -25.95443,16.57089 -32.3432,16.57089 -7.18737,0 -11.38002,-5.59019 -11.38002,-15.17335 0,-9.58316 2.3958,-22.36074 6.18913,-31.74425 3.99299,-10.58141 9.18388,-15.97195 14.97371,-15.97195 4.79158,0 7.38702,3.79335 8.38527,12.57791 l 11.57966,-6.78808 c 0.19965,-0.99824 0.19965,-1.99649 0.19965,-2.19614 0,-8.58492 -4.39229,-13.97546 -11.38001,-13.97546 -3.59369,0 -5.78984,0.7986 -12.97721,5.59018 -14.97369,9.38352 -18.1681,12.37827 -22.56038,20.56389 -5.59018,10.78106 -9.78282,27.75128 -9.78282,40.12953 0,11.57965 5.39054,18.36774 14.5744,18.36774 9.58317,0 25.95444,-7.98599 44.12252,-21.56213 l 0.3993,-6.38878"
         inkscape:connector-curvature="0" />
      <path
         id="path20055"
         style="font-style:italic;font-variant:normal;font-weight:bold;font-stretch:normal;font-family:URW Chancery L;-inkscape-font-specification:URW Chancery L Bold Italic"
         d="m 523.38872,254.03903 14.1751,-5.78983 11.77932,-46.51831 c 1.99649,-1.39754 4.39228,-2.79509 4.79158,-2.99474 13.77579,-8.78456 22.16108,-13.17686 24.35723,-13.17686 1.39754,0 2.39579,1.39755 2.39579,3.19439 0,2.39579 -0.7986,6.18915 -3.59369,16.9702 -6.18913,23.9579 -8.58492,35.5376 -8.58492,40.92812 0,2.39579 0.7986,4.79159 2.99474,8.58493 10.9807,-5.59018 25.35548,-14.77406 36.33618,-22.76003 l 1.39755,-5.78983 c -16.97018,9.98246 -19.76529,11.38001 -22.36073,11.38001 -1.79684,0 -2.99474,-1.9965 -2.99474,-5.19088 0,-3.99299 1.1979,-9.78284 4.59193,-22.76003 6.38878,-23.55861 9.58317,-35.73724 9.58317,-36.53584 0,-1.99649 -1.59719,-3.39404 -4.19263,-3.39404 -4.19263,0 -17.96847,7.58669 -42.92462,23.75828 l 6.78808,-26.75302 c 4.79158,-19.56562 6.78808,-25.75478 9.38352,-30.746 2.79509,-5.59018 6.98773,-8.18563 12.37826,-8.18563 2.59544,0 4.19265,0.19965 11.97897,1.79684 l 8.58492,-12.17861 c -3.59369,-0.79859 -5.19089,-0.99824 -8.18563,-0.99824 -10.9807,0 -16.77056,2.99475 -31.34495,15.7723 -10.38176,9.18386 -11.97897,12.57793 -18.16809,38.93163 l -19.16634,82.45519"
         inkscape:connector-curvature="0" />
    </g>
    <g
       id="g22014"
       transform="matrix(1.1349679,0,0,0.99100214,431.92145,377.20841)"
       inkscape:label="Cube :x0.00:x0.00:x0.00:x0.00:x0.00:x0.00" />
  </g>
</svg>
